<svg width="130" height="152" viewBox="0 0 130 152" fill="none" xmlns="http://www.w3.org/2000/svg">
<path fill-rule="evenodd" clip-rule="evenodd" d="M64.9998 0.75C66.9226 0.75 68.7667 1.51384 70.1263 2.87348C71.486 4.23311 72.2498 6.07718 72.2498 8V9.3775C81.3631 13.0315 86.7498 23.37 86.7498 33.375C86.7498 45.7943 78.4413 58.75 64.9998 58.75C51.5583 58.75 43.2498 45.7943 43.2498 33.375C43.2498 23.37 48.6366 13.0315 57.7498 9.3775V8C57.7498 6.07718 58.5137 4.23311 59.8733 2.87348C61.2329 1.51384 63.077 0.75 64.9998 0.75ZM112.85 26.4368C110.075 26.5762 107.367 27.3369 104.926 28.6625C100.518 31.0187 96.8418 35.028 94.5508 39.9435C92.2598 44.8518 91.5493 50.2458 92.5788 55.1323C93.6083 60.0188 96.5301 64.8617 101.786 67.3122C107.035 69.7627 112.625 68.8928 117.033 66.5365C121.434 64.1803 125.11 60.171 127.401 55.2628C129.692 50.3473 130.402 44.9533 129.373 40.0668C128.811 37.3466 127.654 34.7843 125.987 32.563C126.742 30.8296 126.79 28.8699 126.12 27.1017C125.451 25.3336 124.117 23.8968 122.404 23.0977C120.69 22.2987 118.733 22.2006 116.948 22.8243C115.163 23.4481 113.693 24.7443 112.85 26.4368ZM4.01282 32.592C2.28732 34.8395 1.18532 37.4495 0.627072 40.0958C-0.402428 44.9823 0.308071 50.3763 2.59907 55.2845C4.89007 60.1928 8.56582 64.202 12.9666 66.5655C17.3746 68.9218 22.9643 69.7918 28.2133 67.3413C33.4623 64.8908 36.3913 60.0478 37.4208 55.1613C38.4503 50.2748 37.7398 44.8808 35.4488 39.9653C33.1578 35.057 29.4821 31.0478 25.0813 28.6915C22.6339 27.3739 19.9254 26.6138 17.1498 26.4657C16.3374 24.7227 14.8659 23.3738 13.0589 22.7157C11.252 22.0577 9.25761 22.1444 7.51457 22.9568C5.77154 23.7691 4.42261 25.2407 3.76455 27.0476C3.10648 28.8546 3.19318 30.849 4.00557 32.592H4.01282ZM29.8446 77.7378C39.9813 70.1188 52.319 65.9995 64.9998 66C78.7023 66 91.0998 70.8285 100.155 77.7378C108.949 84.444 115.75 94.0865 115.75 104.265C115.75 114.466 107.166 121.194 98.7196 124.979C89.6933 129.017 77.7598 131.25 64.9998 131.25C52.2398 131.25 40.3063 129.017 31.2801 124.979C22.8338 121.194 14.2498 114.466 14.2498 104.265C14.2498 94.0865 21.0503 84.444 29.8446 77.7305V77.7378Z" fill="black"/>
</svg>
