<svg width="129" height="129" viewBox="0 0 129 129" fill="none" xmlns="http://www.w3.org/2000/svg">
<path d="M98.7656 0H30.2344C13.5364 0 0 13.5364 0 30.2344V98.7656C0 115.464 13.5364 129 30.2344 129H98.7656C115.464 129 129 115.464 129 98.7656V30.2344C129 13.5364 115.464 0 98.7656 0Z" fill="white"/>
<path d="M98.7656 0H30.2344C13.5364 0 0 13.5364 0 30.2344V98.7656C0 115.464 13.5364 129 30.2344 129H98.7656C115.464 129 129 115.464 129 98.7656V30.2344C129 13.5364 115.464 0 98.7656 0Z" fill="#0A66C2"/>
<path d="M93.079 109.693H107.828C108.363 109.693 108.875 109.481 109.253 109.103C109.631 108.725 109.844 108.212 109.844 107.678L109.852 76.5151C109.852 60.2274 106.342 47.7078 87.3078 47.7078C80.0722 47.4387 73.2488 51.1687 69.5668 57.3969C69.5488 57.4272 69.5214 57.4507 69.4887 57.4639C69.4561 57.4772 69.4201 57.4793 69.3861 57.4701C69.3521 57.4609 69.3221 57.4409 69.3005 57.413C69.279 57.3852 69.2672 57.351 69.267 57.3158V51.2271C69.267 50.6925 69.0546 50.1799 68.6766 49.8018C68.2986 49.4238 67.7859 49.2115 67.2513 49.2115H53.2543C52.7197 49.2115 52.2071 49.4238 51.8291 49.8018C51.4511 50.1799 51.2387 50.6925 51.2387 51.2271V107.675C51.2387 108.209 51.4511 108.722 51.8291 109.1C52.2071 109.478 52.7197 109.69 53.2543 109.69H68.0027C68.5372 109.69 69.0499 109.478 69.4279 109.1C69.8059 108.722 70.0183 108.209 70.0183 107.675V79.7719C70.0183 71.8822 71.5149 64.2415 81.2962 64.2415C90.9384 64.2415 91.0634 73.2695 91.0634 80.2828V107.677C91.0634 108.212 91.2758 108.724 91.6538 109.102C92.0318 109.48 92.5445 109.693 93.079 109.693ZM19.1484 30.0469C19.1484 36.0253 24.0701 40.9444 30.0489 40.9444C36.0263 40.9439 40.9449 36.0217 40.9449 30.0444C40.9439 24.0671 36.0248 19.1484 30.0469 19.1484C24.0676 19.1484 19.1484 24.0686 19.1484 30.0469ZM22.6551 109.693H37.4231C37.9577 109.693 38.4704 109.48 38.8484 109.102C39.2264 108.724 39.4387 108.212 39.4387 107.677V51.2271C39.4387 50.6925 39.2264 50.1799 38.8484 49.8018C38.4704 49.4238 37.9577 49.2115 37.4231 49.2115H22.6551C22.1205 49.2115 21.6079 49.4238 21.2299 49.8018C20.8519 50.1799 20.6395 50.6925 20.6395 51.2271V107.677C20.6395 108.212 20.8519 108.724 21.2299 109.102C21.6079 109.48 22.1205 109.693 22.6551 109.693Z" fill="white"/>
</svg>
