<?xml version="1.0" encoding="UTF-8"?>
<svg id="Layer_1" xmlns="http://www.w3.org/2000/svg" version="1.1" xmlns:xlink="http://www.w3.org/1999/xlink" viewBox="0 0 500 500">
  <!-- Generator: Adobe Illustrator 29.8.1, SVG Export Plug-In . SVG Version: 2.1.1 Build 2)  -->
  <defs>
    <style>
      .st0 {
        stroke: url(#linear-gradient2);
      }

      .st0, .st1, .st2, .st3, .st4, .st5, .st6, .st7 {
        fill: #fff;
        stroke-miterlimit: 10;
        stroke-width: 3.5px;
      }

      .st1 {
        stroke: url(#linear-gradient);
      }

      .st2 {
        stroke: url(#linear-gradient4);
      }

      .st3 {
        stroke: url(#linear-gradient3);
      }

      .st4 {
        stroke: url(#linear-gradient1);
      }

      .st5 {
        stroke: url(#linear-gradient6);
      }

      .st6 {
        stroke: url(#linear-gradient5);
      }

      .st7 {
        stroke: url(#linear-gradient7);
      }
    </style>
    <linearGradient id="linear-gradient" x1="249.9" y1="231.3" x2="296.4" y2="231.3" gradientUnits="userSpaceOnUse">
      <stop offset="0" stop-color="#0074ab"/>
      <stop offset="1" stop-color="#6fa893"/>
    </linearGradient>
    <linearGradient id="linear-gradient1" x1="233.6" y1="291.4" x2="263.1" y2="291.4" xlink:href="#linear-gradient"/>
    <linearGradient id="linear-gradient2" x1="214.7" y1="268.3" x2="249.7" y2="268.3" xlink:href="#linear-gradient"/>
    <linearGradient id="linear-gradient3" x1="245.9" y1="265.1" x2="279" y2="265.1" xlink:href="#linear-gradient"/>
    <linearGradient id="linear-gradient4" x1="193.4" y1="92.9" x2="302.3" y2="92.9" xlink:href="#linear-gradient"/>
    <linearGradient id="linear-gradient5" x1="136.5" y1="111.6" x2="398.1" y2="111.6" xlink:href="#linear-gradient"/>
    <linearGradient id="linear-gradient6" x1="99.2" y1="109.8" x2="380.6" y2="109.8" xlink:href="#linear-gradient"/>
    <linearGradient id="linear-gradient7" x1="130.7" y1="107.2" x2="403.5" y2="107.2" xlink:href="#linear-gradient"/>
  </defs>
  <g id="Layer_11">
    <g>
      <path class="st1" d="M251.8,107.2c8.6,31.5,14.7,59.7,19.2,83,9.4,49.9,13.2,89.9,14.9,108.9,2.3,24,3,44.3,3.3,58,6.9-55.2,5.8-96.4,4.7-117.8-.1-1.9.2-35.8-6.3-65.9-2.2-10.7-5.6-21.1-10.2-31.1-2.6-5.4-5.6-10.5-8.9-15.6-4.7-7.2-10.3-13.8-16.5-19.7h-.1v.2Z"/>
      <path class="st4" d="M252.6,104c-9.9,37.6-15.3,76.3-15.9,115.1-.9,48.7,6.1,72.1,7.9,123,1.6,45.6-1.6,91.3-9.3,136.2,20.5-57.8,25.2-105,25.9-137.1.8-40.6-4.9-62.5-8-125.7-2.3-47.8-1.5-86.8-.6-111.6h0Z"/>
      <path class="st0" d="M248.2,113c-11,16.2-24.1,41.6-29.4,76.5-4.8,31.9-1.3,60.3,1.7,84.4,4,32.5,8.1,36.2,10.1,58.9,1.8,20.6,1.3,51.4-10.7,91.4,17.7-39,21.7-71,22-93.1.1-10.2-2.2-38.8-6.9-95.9-2.3-27.9-2.9-33.6-2.6-43.9.6-26.8,6-53.3,15.7-78.2h0Z"/>
      <path class="st3" d="M248.2,109.4c11.9,22.2,26,56.3,28.6,99.3,2.2,36.2-5.4,54.9-8,101-2.1,37.6,0,75.3,6,112.5-17.8-56.2-20-100.7-18.6-131,1.5-33.3,7.5-53.9,6-94-1-29.8-5.7-59.3-14-88h.1v.2Z"/>
      <path class="st2" d="M202.6,91c3.1-2.6,19.2-15.9,45.6-17,29.2-1.1,48,13.5,50.9,15.8l-45.2,21.8-51.4-20.6h.1Z"/>
      <path class="st6" d="M388.7,112.4c-31.2-12-56.1-14-72.8-13.4-16.5.5-20,3.1-62.7,8-25.5,3-38.3,4.5-53.4,4.5s-42.1-2.3-62.6-7c18.2,7.3,37.2,12.5,56.5,15.7,19.6,3.2,37.6,6.2,59.7,2.4,10.3-1.7,10.5-3.1,30.6-7.3,10.2-2.2,26.5-5.7,41.9-7.1,21-1.8,42.2-.5,62.7,4.2,0,0,.1,0,.1,0Z"/>
      <path class="st5" d="M111.4,102.5c42.5-19.4,72.8-19.5,92.7-15.7,30.3,5.5,40.8,20.5,77.4,31.4,32.2,9.6,62.5,9.5,83,7.9-34.2,10.3-61,10.1-81.6,6.1-39.1-7.6-51.4-27.5-90.6-35.1-29.2-5.7-57.3-1.5-81,5.5h.1Z"/>
      <path class="st7" d="M135.1,117.9c43.3,18.2,73.5,17.7,93.3,13.4,29.9-6.3,40-21.6,76.1-33.5,31.9-10.4,62-11.1,82.7-10-34.6-9.4-61.5-8.5-81.9-4-38.8,8.5-50.2,28.8-89.1,37.4-28.9,6.4-57.2,2.9-81.1-3.4h-.1.1Z"/>
    </g>
  </g>
</svg>