<?xml version="1.0" encoding="UTF-8"?>
<svg id="Layer_1" xmlns="http://www.w3.org/2000/svg" version="1.1" viewBox="0 0 120 120">
  <!-- Generator: Adobe Illustrator 29.8.1, SVG Export Plug-In . SVG Version: 2.1.1 Build 2)  -->
  <defs>
    <style>
      .st0 {
        fill: #fff;
      }

      .st1 {
        fill: #f4d1a8;
      }

      .st2 {
        fill: #caa170;
      }
    </style>
  </defs>
  <path class="st0" d="M59,54.9c.2-1,.3-2.1.5-3.1,0-.2-.2-.6-.2-1,0-.8.4-1.2.6-2.1.3-1.1-.2-1.2,0-2.6,0-.8.2-.9.6-2.4.3-1.2.2-1.2.5-2.6.4-1.8.5-1.8,1.1-4.1.5-2,.4-1.8.7-3,.5-1.9.8-1.6,1.3-3.5.2-.9.5-1.7,1.1-2.5.3-.4.6-.7.8-.9,0-.2.2-.5.2-.7.5,0,1.2-.2,1.7-.3.4.9.7,2,1,3.1.2.8.4,1.5.6,2.1.2,1.3.4,2.7.5,4.2,0,1.2.2,2.5.2,3.6-.2,2.6-.4,5.3-.6,7.9,0,.3-.2.9-.2,1.5,0,.6.3,1.1.4,1.2.3.6.6,2.1.2,5.8,1.7,0,3.6-.4,5.8-1,.6-.2,1.2-.4,1.8-.6,1.2-.2,2.3-.3,3.5-.5.8-.3,1.5-.4,1.9-.5.7,0,1.1,0,1.8-.2.7-.2.8-.3,1.3-.5,1.4-.5,1.8.2,3.6,0,.9-.2,1-.4,1.8-.4s.9,0,1.7,0c.5,0,.8,0,1.3-.2,1.9-.3,2.9-.5,3.3-.4.9.2,1.3.6,2.2.5.3,0,.5-.2.7-.2h2.8l1.1,1.2c-.2.4-.5,1-1,1.5-.5.5-1,.6-2.4,1.2-2.1.9-1.8,1-2.5,1.2-1,.2-1.8,0-2.5.7-.3.2-.5.4-.6.6-.7.2-1.5.5-2.4.7-.8.2-1.7.3-2.4.3-.3.3-.8.7-1.6,1.1s-.8.2-1.8.5c-1,.2-1.8.6-3.5,1.4-.7.3-1.2.5-1.5.7l-1.4.2c-.9.5-1.8.9-2.7,1.5-.7,0-1.5.2-2.3.4-1,.3-1.8.6-2.5,1,1.1,2.3,2.5,4.9,4.4,7.6,1.4,2.1,2.8,3.8,4.1,5.4,0,.3-.2.6-.2.9,1.2,2,2.2,3.6,3,4.7,1,1.5,1.9,2.6,2.5,4.5,0,.2.9,2.7.5,2.9-.2,0-.4,0-.5-.2-1.2-.8-1.5-.5-3.1-1.3-2.2-1.2-1.8-2-4.1-3.2-.5-.3-1.2-.6-2-1.4s-.5-.7-1.1-1.3c-.7-.7-1.2-.8-2-1.8-.2-.3-.5-.6-.5-1.1s.2-.4.2-.5c-.9-.6-1.8-1.3-2.8-2.1-1.3-1.1-2.4-2.1-3.4-3.1-.4-.8-.9-1.4-1.3-1.8-.8-.7-1.4-.8-2.1-1.5s-.7-.9-.8-1.2c-.3.4-.6.8-.9,1.2-.4,0-.8.2-1.2.2,0,.2,0,.5-.2.9-.3.7-.7,1.1-1.1,1.4-.6.6-.2.3-1.7,2-1.6,1.8-2.8,2.9-4.8,5-2,2.1-2.4,2.8-4.3,4.7s-.8.8-1.4,1.4c-1.8,2-2.2,3-3.6,4.1-.8.7-.9.5-1.7,1.3-.3.3-.5.5-.8.5-.5,0-.9-.6-1.2-1,.5-1.8,1.2-3.7,1.7-5.5.6-.6,1-1.2,1.3-1.7.8-1.2.7-1.5,1.9-3.7s.8-1.2,1-1.9c.2-.6.2-1,.5-1.5s.7-.8.9-1.1c.2-.4.4-.8.5-.9,1.1-1.9,2-2.5,2.8-4.1,0-.2.2-.3.3-.8.2-.4.5-1.2.8-1.7.7-1.5,1.2-1.5,1.9-2.9s.5-1.1.5-1.5c-.9-.9-1.8-1.4-2.5-1.6-.5-.2-.8-.2-1.5-.4-1.1-.3-1.8-.5-2.7-.9-2.8-1.2-3-1.7-4.1-1.6-.5,0-.9.2-1.5,0-.5-.2-.7-.5-1.2-.9-.4-.3-.9-.8-1.8-1.1l-.5.2c-.8-.2-1.9-.6-3.3-1.1-1.6-.5-3.1-1.1-4.8-1.6-2.4-.8-3-.9-3.8-1.6-.4-.4-1.7-1.5-1.3-2.5.2-.6.9-1,1.2-1.1,0,.2.2.4.5.5s.7,0,.8,0c.5-.2,1.8-.2,5.8,0,.2,0,.5-.2.7-.2.9,0,4.3.3,6.9.6,1,0,1.5.2,2.1.4,1.5.4,1.6.8,2.6.8,1,0,1.3-.4,2.3-.2.2,0,.5.2,1.1.4,1,.3.9.4,1.2.5.9.2,1.1-.3,2.1-.2,1,0,1,.5,1.9.5.6,0,.8-.3,1.4-.2.6,0,1.1.2,1.3.4l.4.2Z"/>
  <g>
    <path class="st2" d="M43.8,94.2c-.2,0-.3,0-.4-.2-.2-.2-.2-.6,0-.8.3-.2.6-.5.9-.7.3-.2.6-.4.8-.6.4-.4.9-.9,1.3-1.5.2-.3.5-.5.7-.8.3-.3.5-.6.7-.9.3-.3.5-.6.8-.9.2-.2.4-.4.6-.6.1,0,.2-.2.4-.3.6-.6,1.2-1.3,1.8-1.9.6-.6,1.2-1.3,1.8-1.9,0-.1.2-.2.2-.3,0,0,.1-.2.2-.3.2-.3.5-.3.8-.2.3.2.3.5.2.8,0,.1-.2.2-.3.3,0,0-.1.2-.2.3h0c-.6.7-1.2,1.4-1.8,2-.6.7-1.2,1.3-1.8,2-.2.2-.3.3-.5.4-.2.1-.3.3-.4.4-.3.3-.5.6-.8.9-.3.3-.5.6-.8.9-.2.3-.5.5-.7.8-.5.5-.9,1.1-1.4,1.5-.3.3-.6.5-.9.7-.3.2-.6.4-.8.6-.1,0-.2.1-.4.1Z"/>
    <path class="st2" d="M42.9,94.6s0,0-.1,0c-.5,0-.7-.5-.9-.8,0,0-.1-.2-.2-.3l-1.3-.3,1.1-.7s0,0,0,0c.3-.8.5-1.7.7-2.5.3-.9.5-1.8.8-2.7h0c0-.1.1-.2.1-.2,0,0,0,0,0,0h0c0-.1,0-.2,0-.2,1-.8,1.5-1.9,2-3.1l.2-.4c.1-.3.5-.4.8-.3.3.1.4.5.3.8l-.2.4c-.5,1.2-1.1,2.4-2.2,3.4,0,0,0,0,0,.1-.3.8-.5,1.7-.7,2.5-.2.9-.5,1.7-.8,2.6,0,0,.1.2.2.3,0,0,0,.1.1.2,0,0,.1,0,.2-.1.2-.2.6-.2.8,0,.2.2.2.6,0,.8-.3.3-.7.4-1,.4Z"/>
    <path class="st2" d="M54.5,82.9c-.1,0-.3,0-.4-.1-.2-.2-.3-.6,0-.8.4-.5.8-.9,1.2-1.3.4-.4.8-.8,1.2-1.2,1.2-1.2,2.4-2.4,3.4-3.7.2-.3.5-.6.8-.8.6-.6,1.2-1.2,1.3-2.1,0-.5.5-.6.8-.7,0,0,.2,0,.2,0,.3-.1.6,0,.7.4,0,.3,0,.6-.4.7,0,0-.2,0-.3,0,0,0,0,0,0,0-.2,1.1-.9,1.8-1.5,2.5-.3.3-.5.5-.7.7-1.1,1.4-2.3,2.6-3.5,3.8-.4.4-.8.8-1.2,1.2-.4.4-.8.8-1.1,1.3-.1.1-.3.2-.4.2ZM63,72.7s0,0,0,0c0,0,0,0,0,0Z"/>
    <path class="st2" d="M59.4,52.4c-.2,0-.4-.1-.5-.3-.4-.8-.2-1.6,0-2.2,0-.1,0-.3.1-.4,0-.3.1-.6.2-.9.1-.4.2-.7.2-1-.2-1.4.2-2.7.5-4,.2-.7.4-1.3.5-1.9.1-.8.3-1.5.5-2.3.2-.8.5-1.6.5-2.4,0-.3.3-.6.6-.5.3,0,.5.3.5.6,0,.9-.3,1.8-.6,2.7-.2.7-.4,1.4-.5,2.1-.1.7-.3,1.4-.5,2-.3,1.2-.7,2.4-.5,3.5,0,.6,0,1.1-.2,1.5,0,.3-.1.5-.2.7,0,.2,0,.4-.1.5-.1.5-.3,1,0,1.4.1.3,0,.6-.3.8,0,0-.2,0-.3,0Z"/>
    <path class="st2" d="M74,66h-.1c0,0-.4,0-.6-.2-.2-.2-.2-.6,0-.8.2-.2.4-.2.6-.1h.2c1.3-.7,2.6-1.2,4.2-1.3,0,0,0,0,0,0,0,0,.2-.2.4-.2.2-.1.5-.3.8-.5.8-.5,1.7-1.1,2.9-.8.3,0,.5.3.5.7,0,.3-.3.5-.7.5-.8-.1-1.4.3-2.1.7-.3.2-.6.4-1,.6,0,0-.1,0-.2,0-.1.1-.4.3-.7.3-1.3,0-2.5.5-3.8,1.1l-.5.2ZM74,65h0,0ZM78.1,63.6h0Z"/>
    <path class="st2" d="M87.4,92c0,0-.1,0-.2,0-.3,0-.5-.2-.8-.3-.6-.2-1.3-.4-1.9-.7-1.1-.5-1.8-1.2-2.6-1.9-.6-.6-1.1-1.1-1.8-1.5-.3-.2-.4-.5-.2-.8s.5-.4.8-.2c.8.5,1.4,1.1,2,1.7.7.7,1.3,1.3,2.2,1.7.6.3,1.2.4,1.8.6.3,0,.6.2.8.3.3.1.5.4.4.7,0,.2-.3.4-.5.4Z"/>
    <path class="st2" d="M52.6,73.1s0,0-.1,0c-.3,0-.5-.4-.4-.7.3-1.4,1.1-2.6,1.8-3.7.6-.9,1.1-1.7,1.4-2.6-.3-.2-.7-.4-1-.7-.3-.2-.6-.4-1-.6-.3,0-.8-.1-1.2-.3-.2,0-.5-.2-.8-.3-.2,0-.5-.2-.7-.3-.5-.2-1-.3-1.5-.5-.8-.2-1.6-.5-2.3-.8-.2,0-.3-.1-.5-.2-.6-.3-1.1-.5-1.8-.5-.7,0-1.2,0-1.6-.4-.2-.2-.5-.6-.5-1.4s.3-.6.6-.6.6.3.6.6,0,.4.2.5c.1.1.4.2.7.1,1,0,1.7.3,2.4.6.1,0,.3.1.4.2.7.3,1.4.5,2.2.8.5.2,1,.3,1.5.5.2,0,.5.2.8.3.2,0,.5.2.7.3.5.2.8.3,1.1.3h.3c.3.3.7.6,1,.8.5.3.9.6,1.4.9l.3.2v.4c-.4,1.2-1.1,2.3-1.8,3.3-.7,1.1-1.4,2.1-1.7,3.3,0,.3-.3.5-.6.5Z"/>
    <path class="st2" d="M69.8,37.8s0,0,0,0c-.3,0-.5-.3-.5-.7,0-.4,0-.8,0-1.3,0-.4,0-.9,0-1.4,0-1.3-.1-2.5-.6-3.6-.1-.3,0-.6.3-.8.3-.1.6,0,.8.3.5,1.3.6,2.7.7,4,0,.5,0,.9,0,1.4,0,.5,0,1,0,1.5,0,.3-.3.5-.6.5Z"/>
    <path class="st2" d="M80.2,87.3c0,0-.1,0-.2,0-1-.3-2.2-.9-2.9-2.3,0,0-.2-.2-.2-.2-1.1-.6-2-1.6-2.8-3h0v-.3c0-.2,0-.4.2-.6,0,0,0,0,0-.1.1-.3.5-.4.8-.3.3.1.4.5.3.8,0,0,0,.1,0,.2.6,1.1,1.3,1.8,2.2,2.3.3.1.6.4.7.7.4.8,1.1,1.3,2.2,1.7.3.1.5.4.3.7,0,.2-.3.4-.5.4Z"/>
    <path class="st2" d="M79.4,75.8c-.2,0-.4,0-.5-.2-.2-.3-.4-.6-.6-.8-.2-.3-.3-.5-.5-.8l-1.8-2.5c-.2-.3-.4-.6-.6-.8-.2-.3-.3-.5-.5-.8h0c0-.1-.5-1.3-.5-1.3-.1-.3,0-.6.3-.7.3-.1.6,0,.7.3l.4,1.1c.2.3.3.5.5.8.2.3.3.5.5.8l1.8,2.5c.2.3.4.6.6.8.2.3.3.5.5.8.2.3.1.6-.1.8-.1,0-.2.1-.3.1Z"/>
    <path class="st2" d="M42.9,53.1h-2.1c-1.6-.2-3.3-.3-4.9-.5-.3,0-.5-.3-.5-.7,0-.3.3-.5.7-.5,1.6.2,3.2.4,4.8.5h2c.3,0,.6.3.6.6s-.3.6-.6.6Z"/>
    <path class="st2" d="M69.3,56.1v-.7c0-.7,0-1.3,0-1.8,0-.5,0-.9,0-1.4s.3-.6.6-.6.6.3.6.6c0,.5,0,1,0,1.5,0,.3,0,.7,0,1.1.4,0,.8-.1,1.1-.2,1.1-.2,2.2-.3,3.2-.5.3,0,.6.1.7.5,0,.3-.1.6-.5.7-1.1.2-2.1.4-3.3.6-.6,0-1.2.2-1.8.3h-.7Z"/>
    <path class="st2" d="M29.1,53c-.4,0-.8-.1-1.1-.7-.2-.3,0-.6.2-.8.3-.2.6,0,.8.2,0,0,0,0,0,0,0,0,.2,0,.3,0,.2,0,.3,0,.6,0h5.4c.3,0,.6.3.6.6s-.3.6-.6.6h-5.4c0,0-.2,0-.3,0-.1,0-.3,0-.6,0Z"/>
    <path class="st2" d="M59.2,55.5s0,0-.1,0c-.2,0-.4-.1-.6-.2-.3-.1-.7-.3-.9-.2-.9.3-1.6,0-2.3,0-.4-.1-.9-.2-1.3-.2-.3,0-.6,0-.8,0-.3,0-.6-.1-.7-.4,0-.3.1-.6.4-.7.4,0,.7,0,1.1,0,.5,0,1.1,0,1.6.2.6.2,1.2.3,1.7.1.6-.2,1.1,0,1.6.2.2,0,.3.1.5.2.3,0,.5.4.4.7,0,.3-.3.4-.6.4Z"/>
    <path class="st2" d="M81.8,80s0,0-.1,0c-.3,0-.5-.4-.4-.7,0-.1,0-.3.2-.4,0,0,0,0,0-.1-.7-.9-1.5-1.9-2.2-2.8-.2-.2-.2-.6,0-.8.2-.2.6-.2.8,0,.8,1,1.6,2,2.4,3,.3.3.1.8,0,1.2,0,0,0,.2,0,.3,0,.3-.3.4-.6.4ZM81.6,78.9h0,0Z"/>
    <path class="st2" d="M85.5,53.1c-.3,0-.5-.2-.6-.5,0-.3.2-.6.5-.7.3,0,.5-.1.8-.2.5-.1,1.1-.3,1.7-.3s.9,0,1.2.1c.2,0,.4,0,.6,0,.3,0,.5.3.5.6,0,.3-.3.5-.6.5-.2,0-.4,0-.7-.1-.4,0-.7-.1-1-.1s-1,.1-1.5.2c-.3,0-.6.1-.9.2,0,0,0,0-.1,0Z"/>
    <path class="st2" d="M96,57.9c-.3,0-.5-.2-.6-.4,0-.3,0-.6.4-.7.3,0,.6-.1.9-.2.6-.1,1.1-.3,1.6-.5.4-.2.7-.3,1.1-.5.7-.4,1.4-.7,2.2-.9,1-.3,1.6-.9,2.1-1.8,0,0-.2-.2-.3-.3-.1-.1-.2-.3-.4-.4h-2.5c-.3,0-.6-.3-.6-.6s.3-.6.6-.6h3l.2.2c.2.2.4.4.6.6.2.2.3.4.5.6l.3.3-.2.4c-.6,1.2-1.4,2.3-3,2.7-.7.2-1.3.5-1.9.8-.4.2-.8.4-1.2.6-.6.2-1.2.4-1.8.5-.3,0-.6.1-.8.2,0,0-.1,0-.2,0Z"/>
    <path class="st2" d="M63.7,52.1s0,0,0,0c-.3,0-.6-.3-.5-.6l.2-3.9c0-.3.3-.6.6-.5.3,0,.6.3.5.6l-.2,3.9c0,.3-.3.5-.6.5Z"/>
    <path class="st2" d="M93.6,52.4c-.2,0-.4-.1-.5-.3-.1-.3,0-.6.2-.8s.5-.1.6-.1c.3,0,.7-.1,1.1-.2.8-.1,1.7-.3,2.5-.3s1.1.1,1.6.3c.2,0,.5.1.7.2.3,0,.5.4.5.7s-.4.5-.7.5c-.3,0-.6-.1-.8-.2-.4-.1-.9-.2-1.3-.2-.8,0-1.5.1-2.4.3-.4,0-.8.1-1.3.2-.1,0-.1,0-.2,0,0,0-.2,0-.3,0Z"/>
    <path class="st2" d="M68.5,76.1c-.2,0-.4-.1-.5-.3-.4-.8-1.1-1.3-1.8-1.8-.6-.5-1.3-.9-1.8-1.6,0,0,0,0-.1.1l-.3.4c-.2.2-.6.3-.8,0s-.3-.6,0-.8l.3-.4c.2-.2.4-.5.6-.8l.6-.7.4.9c.4.8,1.1,1.4,1.9,1.9.8.6,1.7,1.2,2.2,2.2.1.3,0,.6-.3.8s-.2,0-.3,0Z"/>
    <path class="st2" d="M47.4,81.7c-.1,0-.2,0-.3,0-.3-.2-.3-.5-.2-.8.2-.4.4-.8.5-1.2.3-.8.6-1.6,1.4-2.3.3-.2.6-.2.8,0,.2.2.2.6,0,.8-.5.4-.7,1-1,1.7-.2.5-.4,1-.7,1.5-.1.2-.3.3-.5.3Z"/>
    <path class="st2" d="M68.3,28.2c-.2,0-.5-.2-.5-.4-.1-.3-.2-.7-.3-1.1,0,0-.2,0-.3,0-.3,0-.6.1-.9.2-.3,0-.6-.2-.7-.5,0-.3.2-.6.5-.7.3,0,.5,0,.8-.1.3,0,.6-.1.9-.2h.5c0,0,.1.4.1.4.1.7.3,1.1.4,1.6.1.3,0,.6-.4.7s-.1,0-.2,0Z"/>
    <path class="st2" d="M84.8,62.2h-.1c-.2,0-.4,0-.6-.2,0,0-.1,0-.1,0-.3-.1-.4-.5-.3-.8.1-.3.5-.4.8-.3,0,0,.1,0,.2.1,0,0,0,0,0,0l2.3-1c.3-.1.6,0,.8.3.1.3,0,.6-.3.8l-2.6,1.2Z"/>
    <path class="st2" d="M87.9,90.8c-.2,0-.5-.2-.5-.4,0-.2-.1-.4-.2-.6,0-.2-.1-.4-.2-.6-.2-.6-.5-1.1-.7-1.7-.1-.3,0-.6.3-.8.3-.1.6,0,.8.3.3.6.5,1.2.8,1.8,0,.2.2.5.2.8,0,.2,0,.4.2.6.1.3,0,.6-.4.7,0,0-.1,0-.2,0Z"/>
    <path class="st2" d="M85.7,86.3c-.2,0-.4-.1-.5-.3l-1.6-2.8c-.2-.3,0-.6.2-.8.3-.2.6,0,.8.2l1.6,2.8c.2.3,0,.6-.2.8s-.2,0-.3,0Z"/>
    <path class="st2" d="M74.8,68.8c-.2,0-.4,0-.5-.3-.4-.7-.8-1.4-1.1-2l-.3-.5v-2c0-.3.3-.6.6-.6s.6.3.6.6v1.9c.4.6.8,1.3,1.2,2,.2.3,0,.6-.2.8,0,0-.2,0-.3,0Z"/>
    <path class="st2" d="M75.6,55.1c-.2,0-.4-.1-.5-.3-.1-.3,0-.6.3-.8h.2c.9-.5,1.8-.9,2.9-.7.3,0,.5.3.5.7,0,.3-.3.5-.7.5-.8-.1-1.5.2-2.3.6h-.2c0,.1-.2.1-.2.1Z"/>
    <path class="st2" d="M79,54.2c-.3,0-.5-.2-.6-.5,0-.3.2-.6.5-.7l2.8-.5c.3,0,.6.2.7.5,0,.3-.2.6-.5.7l-2.8.5s0,0,0,0Z"/>
    <path class="st2" d="M49.5,77.7c-.1,0-.2,0-.3,0-.3-.2-.3-.5-.2-.8l2.5-3.8c.2-.3.5-.3.8-.2.3.2.3.5.2.8l-2.5,3.8c-.1.2-.3.3-.5.3Z"/>
    <path class="st2" d="M90.6,59.6c-.3,0-.5-.2-.6-.5,0-.3.2-.6.5-.7h.6c1.4-.3,2.7-.5,4-1,.3-.1.6,0,.8.3.1.3,0,.6-.3.8-1.4.6-2.9.8-4.3,1h-.6c0,0,0,0,0,0Z"/>
    <path class="st2" d="M56.4,75c-.1,0-.3,0-.4-.1-.2-.2-.3-.6,0-.8l1.8-2.3c.2-.2.6-.3.8,0,.2.2.3.6,0,.8l-1.8,2.3c-.1.1-.3.2-.4.2Z"/>
    <path class="st2" d="M40.2,60.3c0,0-.1,0-.2,0l-2.5-.9c-.3-.1-.5-.4-.3-.7.1-.3.4-.5.7-.3l2.5.9c.3.1.5.4.3.7,0,.2-.3.4-.5.4Z"/>
    <path class="st2" d="M63.1,34.1c0,0-.1,0-.2,0-.3,0-.5-.4-.4-.7l.7-2.5c0-.3.4-.5.7-.4.3,0,.5.4.4.7l-.7,2.5c0,.3-.3.4-.6.4Z"/>
    <path class="st2" d="M74.5,81.5c-.1,0-.3,0-.4-.1l-2.3-1.8c-.2-.2-.3-.6,0-.8.2-.2.6-.3.8,0l2.3,1.8c.2.2.3.6,0,.8-.1.1-.3.2-.4.2Z"/>
    <path class="st2" d="M30.7,57.3l-.9-.6c-.2-.2-.5-.3-.9-.5-.8-.4-1.9-.9-2.2-2.3,0-.3.1-.6.4-.7.3,0,.6.1.7.4.2.8.7,1.1,1.6,1.5,0,0,.1,0,.2,0,.2-.1.4-.1.6,0,0,0,0,0,.1,0h.9l-.4.8c0,0,0,.1,0,.2v1Z"/>
    <path class="st2" d="M72.2,79.8l-.3-.3c-.4-.4-.8-.7-1.2-1.1-.7-.7-1.5-1.3-2.2-2-.4-.2-.4-.7-.4-.8,0-.3.2-.5.5-.7h.3c0-.1.3,0,.3,0,.2,0,.3.2.5.3.2,0,.3.2.5.3.3.1.4.5.3.8,0,0-.1.2-.2.2.4.4.8.8,1.3,1.2.3.3.6.5.8.8.2-.1.5,0,.7.1.2.2.2.6,0,.8-.1.1-.3.2-.4.3l-.4.3Z"/>
    <path class="st2" d="M63.6,47.5c-.2,0-.4,0-.5-.3-.2-.3,0-.6.2-.8.2-.1.2-.3.2-.7,0-.3,0-.7.2-1.1.1-.3.5-.4.8-.3.3.1.4.5.3.8,0,.1,0,.3,0,.6,0,.5,0,1.2-.8,1.7,0,0-.2,0-.3,0Z"/>
    <path class="st2" d="M35.8,58.8c0,0-.1,0-.2,0-.3-.1-.7-.3-1-.4-1-.4-2-.8-3-.9-.3,0-.5-.3-.5-.6,0-.3.3-.5.6-.5,1.2.1,2.3.6,3.3,1,.3.1.6.3,1,.4.3.1.4.4.3.7,0,.2-.3.4-.5.4Z"/>
    <path class="st2" d="M49,83.1c-.1,0-.2,0-.3,0-.3-.2-.3-.5-.2-.8l1.4-2.1c.2-.3.5-.3.8-.2s.3.5.2.8l-1.4,2.1c-.1.2-.3.3-.5.3Z"/>
    <path class="st2" d="M69.6,49.7c-.2,0-.3,0-.4-.2-.6-.7-.5-1.5-.3-2h0v-.6c.2-1.3.3-2.7.4-4,0-1.3.2-2.7.3-4,0-.3.3-.5.6-.5.3,0,.6.3.5.6-.1,1.3-.2,2.7-.3,4,0,1.1-.2,2.3-.3,3.4h.5l-.3.8c0,.2-.1.3-.2.5-.3.6-.3.9,0,1.2.2.2.2.6,0,.8-.1,0-.2.1-.4.1Z"/>
    <path class="st2" d="M64,31c0,0-.1,0-.2,0-.3-.1-.5-.4-.4-.7l.7-2.1c0-.3.4-.5.7-.4.3.1.5.4.4.7l-.7,2.1c0,.2-.3.4-.5.4Z"/>
    <path class="st2" d="M46.1,83.9c0,0-.2,0-.3,0-.3-.2-.4-.5-.2-.8.2-.3.4-.7.5-1,.2-.3.4-.7.5-1,.2-.3.5-.4.8-.2.3.2.4.5.2.8-.2.3-.4.7-.5,1-.2.3-.3.7-.5,1-.1.2-.3.3-.5.3Z"/>
    <path class="st2" d="M50.8,80.8c-.1,0-.2,0-.3-.1-.3-.2-.3-.5-.1-.8l2.1-3c.2-.3.5-.3.8-.1.3.2.3.5.1.8l-2.1,3c-.1.2-.3.2-.5.2Z"/>
    <path class="st2" d="M63.2,57.2s0,0,0,0c-.3,0-.5-.3-.5-.7,0-.5.1-1.1.2-1.6,0-.5.1-1.1.2-1.6,0-.3.3-.5.7-.5.3,0,.5.3.5.7,0,.5-.1,1.1-.2,1.6,0,.5-.1,1.1-.2,1.6,0,.3-.3.5-.6.5Z"/>
    <path class="st2" d="M88.3,60.8c-.4,0-.8-.2-1.2-.4-.3-.1-.4-.5-.3-.8.1-.3.5-.4.8-.3.2.1.5.2.7.2,0,0,.2,0,.2,0,0,0,.2,0,.3-.1.3-.1.6,0,.7.4.1.3,0,.6-.4.7,0,0-.1,0-.2,0-.2,0-.4.2-.7.2Z"/>
    <path class="st2" d="M69.2,30.7c-.2,0-.5-.1-.5-.4-.1-.3-.2-.6-.3-.9s-.2-.6-.3-.9c-.1-.3,0-.6.3-.7.3-.1.6,0,.7.3.1.3.2.6.3.9s.2.6.3.9c.1.3,0,.6-.3.7,0,0-.1,0-.2,0Z"/>
    <path class="st2" d="M73.8,59.7c-.2,0-.5-.2-.5-.4-.1-.3,0-.6.4-.7s.7-.2,1-.4.7-.3,1-.4c.3-.1.6,0,.7,0,.3,0,.6.3.6.6s-.3.6-.6.6-.3,0-.4,0c-.3.1-.6.2-.9.3-.4.1-.7.3-1.1.4,0,0-.1,0-.2,0Z"/>
    <path class="st2" d="M73.8,60.3c-.2,0-.4-.1-.5-.3,0-.2-.2-.3-.2-.3,0,0-.2,0-.3.1-.3.2-.5.2-.7.2,0,0-.1,0-.2,0-.3,0-.6,0-.7-.4,0-.3,0-.6.4-.7.2,0,.3,0,.5,0,0,0,.2,0,.2,0,.4-.3.9-.4,1.3-.3.4.1.7.4.9.9.1.3,0,.6-.3.8,0,0-.2,0-.3,0Z"/>
    <path class="st2" d="M84,83.2c-.2,0-.4,0-.5-.2-.2-.3-.4-.5-.5-.8-.2-.2-.3-.5-.5-.8-.2-.3-.1-.6.1-.8.3-.2.6-.1.8.1.2.3.4.5.5.8.2.3.3.5.5.8.2.3.1.6-.1.8-.1,0-.2.1-.3.1Z"/>
    <path class="st2" d="M50.4,58.4c0,0-.1,0-.2,0-.2,0-.4-.2-.6-.3-.6-.2-1.1-.5-1.6-.3-.3,0-.6-.1-.7-.4,0-.3.1-.6.4-.7.9-.2,1.6.1,2.3.4.2,0,.4.2.6.2.3.1.5.4.3.7,0,.2-.3.4-.5.4Z"/>
    <path class="st2" d="M83.3,62.7c-.4,0-.8-.2-.9-.4,0,0-.1,0-.2-.1-.3-.2-.4-.5-.2-.8.2-.3.5-.4.8-.2,0,0,.2.1.2.2,0,0,.2.2.3.2,0,0,0,0,0,0,.2-.2.6-.2.8,0s.2.6,0,.8-.6.4-.9.4Z"/>
    <path class="st2" d="M59,55.1s0,0-.1,0c-.3,0-.5-.4-.5-.7l.5-2.3c0-.3.4-.5.7-.5.3,0,.5.4.5.7l-.5,2.3c0,.3-.3.5-.6.5Z"/>
    <path class="st2" d="M90.2,52.7c-.3,0-.5-.2-.6-.5,0-.3.2-.6.5-.7.2,0,.5-.1.7-.2.8-.2,1.6-.4,2.5,0,.3.2.4.5.2.8-.1.3-.5.4-.8.2-.5-.3-1-.2-1.7,0-.3,0-.6.1-.9.2,0,0,0,0,0,0Z"/>
    <path class="st2" d="M65,28.5c-.1,0-.3,0-.4-.2-.2-.2-.2-.6,0-.8.1-.1.3-.3.4-.4.1-.2.3-.3.4-.5.2-.2.6-.2.8,0,.2.2.2.6,0,.8-.1.1-.3.3-.4.4-.1.2-.3.3-.4.5-.1.1-.3.2-.4.2Z"/>
    <path class="st2" d="M42.5,61.1c-.1,0-.2,0-.3,0-.3-.2-.6-.4-.9-.5-.3-.2-.6-.4-.9-.6-.3-.2-.4-.5-.2-.8.2-.3.5-.4.8-.2.3.2.6.4.9.5.3.2.6.4.9.6.3.2.4.5.2.8-.1.2-.3.3-.5.3Z"/>
    <path class="st2" d="M53,59.5c-.3,0-.5-.2-.6-.5,0-.1,0-.3,0-.4-.4,0-.8-.2-1.2-.3h-.2c-.3-.2-.5-.5-.4-.8,0-.3.4-.5.7-.4h.2c.4.2.6.3.9.3s.5,0,.8.3c.3.3.2.6.2.8,0,0,0,.1,0,.2,0,.3-.1.6-.5.7,0,0,0,0-.1,0ZM52.7,58.7h0,0Z"/>
    <path class="st2" d="M86.7,56.4c-.2,0-.4-.1-.5-.4-.1-.3,0-.6.3-.7.2,0,.4-.1.6-.2.2,0,.4-.1.5-.2.3-.1.6,0,.7.3.1.3,0,.6-.3.7-.2,0-.4.1-.6.2-.2,0-.4.1-.5.2,0,0-.1,0-.2,0Z"/>
    <path class="st2" d="M73.4,65.9c0,0-.1,0-.2,0-1.2-.4-1.2-1.3-1.2-2.1s.3-.6.6-.6.6.3.6.6c0,.7,0,.8.5,1,.3.1.5.4.3.7,0,.2-.3.4-.5.4Z"/>
    <path class="st2" d="M72.6,76c-.2,0-.3,0-.4-.2l-.5-.6c-.2-.2-.4-.4-.5-.7-.2-.2-.2-.6,0-.8s.6-.2.8,0c.2.2.4.5.6.7l.5.6c.2.2.2.6,0,.8-.1,0-.2.1-.4.1Z"/>
    <path class="st2" d="M70.4,60.8l-1.2-.2c-.2,0-.4,0-.6,0-.3,0-.5,0-.7,0-.3,0-.6-.3-.6-.6s.3-.6.6-.6.1,0,.2,0c0-.3,0-.5.3-.6.3-.1.6,0,.8.3,0,.1.2.4.5.8l.7,1Z"/>
    <path class="st2" d="M97.2,54.2c-.1,0-.2,0-.3,0l-1.1-.7c-.3-.2-.3-.5-.2-.8s.5-.3.8-.2l1.1.7c.3.2.3.5.2.8-.1.2-.3.3-.5.3Z"/>
    <path class="st2" d="M47.8,54.4c-.3,0-.5-.2-.6-.5,0-.3.2-.6.5-.6.7,0,1.4-.2,2.1-.2s.6.3.6.6-.3.6-.6.6c-.7,0-1.3,0-2,.2,0,0,0,0,0,0Z"/>
    <path class="st2" d="M76.7,58.3c-.3,0-.5-.2-.6-.5,0-.3.2-.6.5-.6l2.8-.2c.3,0,.6.2.6.5,0,.3-.2.6-.5.6l-2.8.2s0,0,0,0Z"/>
    <path class="st2" d="M83.6,53.5h-.9c-.3,0-.6-.3-.6-.6s.3-.6.6-.6h.9c.3,0,.6.3.6.6s-.3.6-.6.6Z"/>
    <path class="st2" d="M69.6,52.4c-.3,0-.6-.3-.6-.6v-1.1s.2-.9.2-.9c0-.3.4-.5.7-.4.3,0,.5.4.4.7l-.2.9v.8c0,.3-.3.6-.6.6Z"/>
    <path class="st2" d="M62.6,36.3c-.2,0-.5-.2-.5-.4,0,0,0-.1,0-.2,0-.2-.2-.4-.2-.7h0c0-.3.1-.5.2-.6,0-.1,0-.2.1-.3,0-.3.4-.5.7-.4.3,0,.5.4.4.7,0,.2-.1.3-.2.5,0,0,0,.2,0,.2,0,0,0,.1,0,.2,0,0,0,.2.1.3,0,.3,0,.6-.4.7,0,0-.1,0-.2,0Z"/>
    <path class="st2" d="M43.7,53.7c-.2,0-.5-.2-.5-.4-.1-.3,0-.6.4-.7l.7-.2c.3-.1.6,0,.7.4.1.3,0,.6-.4.7l-.7.2c0,0-.1,0-.2,0Z"/>
    <path class="st2" d="M40.3,56.7c-.2,0-.4-.1-.5-.3-.1-.3-.2-.5-.3-.8,0-.2-.2-.5-.3-.7-.1-.3,0-.6.3-.8.3-.1.6,0,.8.3.1.3.2.5.3.8,0,.2.2.5.3.7.1.3,0,.6-.3.8,0,0-.2,0-.2,0Z"/>
    <path class="st2" d="M69.5,44.6c-.1,0-.3,0-.4-.2l-.6-.6c-.2-.2-.2-.6,0-.8s.6-.2.8,0l.6.6c.2.2.2.6,0,.8s-.3.2-.4.2Z"/>
    <path class="st2" d="M38.9,59.4c0,0-.1,0-.2,0-.3-.1-.5-.4-.4-.7h0c0-.3,0-.4,0-.4,0-.3.3-.6.6-.6s.6.3.6.6,0,.5-.1.7h0c0,.4-.3.5-.5.5Z"/>
    <path class="st2" d="M65.8,73.1c0,0-.2,0-.3,0-.1,0-.2-.1-.2-.2-.1,0-.2-.1-.2-.2-.1-.3,0-.6.3-.8.2-.1.4-.2.7-.2h1.1l-.6.9c-.1.2-.2.3-.2.3-.1.2-.3.3-.5.3Z"/>
    <path class="st2" d="M81.3,62.6c-.1,0-.3,0-.4-.2-.2-.2-.2-.6,0-.8l.2-.2c.2-.2.6-.2.8,0s.2.6,0,.8l-.2.2c-.1.1-.3.2-.4.2Z"/>
    <path class="st2" d="M68.8,55.1c-.1,0-.3,0-.4-.2-.2-.2-.2-.6,0-.8l.2-.2c.2-.2.6-.2.8,0s.2.6,0,.8l-.2.2c-.1.1-.3.2-.4.2Z"/>
    <path class="st2" d="M68.8,50.8c-.1,0-.3,0-.4-.2l-.2-.2c-.2-.2-.2-.6,0-.8s.6-.2.8,0l.2.2c.2.2.2.6,0,.8s-.3.2-.4.2Z"/>
    <path class="st2" d="M58.6,77.9c-.3,0-.4-.1-.6-.2h0c-.3-.2-.4-.5-.3-.8.1-.3.5-.4.8-.3,0,0,0,0,.1,0,.3,0,.6.3.6.6s-.3.6-.6.6Z"/>
    <path class="st2" d="M40.5,59.6c-.1,0-.3,0-.4-.2-.2-.2-.2-.6,0-.8l.2-.2c.2-.2.6-.2.8,0,.2.2.2.6,0,.8l-.2.2c-.1.1-.3.2-.4.2Z"/>
    <path class="st2" d="M68.8,55.8c-.1,0-.3,0-.4-.2-.2-.2-.2-.6,0-.8l.2-.2c.2-.2.6-.2.8,0,.2.2.2.6,0,.8l-.2.2c-.1.1-.3.2-.4.2Z"/>
    <path class="st2" d="M44.8,53.7c-.1,0-.3,0-.4-.2-.2-.2-.2-.6,0-.8l.2-.2c.2-.2.6-.2.8,0s.2.6,0,.8l-.2.2c-.1.1-.3.2-.4.2Z"/>
    <path class="st2" d="M74.1,80.7c-.2,0-.4-.1-.5-.3-.1-.3,0-.6.3-.8h0c.1-.1.3-.2.6-.2s.6.3.6.6-.2.5-.5.6c0,0-.1,0-.2,0,0,0-.2,0-.3,0Z"/>
    <path class="st2" d="M86.1,61c-.3,0-.4-.1-.6-.2h0c-.3-.2-.4-.5-.3-.8.1-.3.5-.4.8-.3,0,0,0,0,.1,0,.3,0,.6.3.6.6s-.3.6-.6.6Z"/>
    <path class="st2" d="M63.8,53.3c-.1,0-.3,0-.4-.2l-.2-.2c-.2-.2-.2-.6,0-.8s.6-.2.8,0l.2.2c.2.2.2.6,0,.8s-.3.2-.4.2Z"/>
    <path class="st2" d="M74,63.9c-.1,0-.3,0-.4-.2l-.2-.2c-.2-.2-.2-.6,0-.8s.6-.2.8,0l.2.2c.2.2.2.6,0,.8-.1.1-.3.2-.4.2Z"/>
    <path class="st2" d="M33.1,57.4c0,0-.2,0-.3,0-.3-.1-.4-.5-.3-.8,0,0,0,0,0-.1,0-.3.3-.6.6-.6s.6.3.6.6-.1.4-.2.6h0c-.1.3-.3.4-.5.4Z"/>
    <path class="st2" d="M42.3,57.4c-.1,0-.3,0-.4-.2l-.2-.2c-.2-.2-.2-.6,0-.8.2-.2.6-.2.8,0l.2.2c.2.2.2.6,0,.8s-.3.2-.4.2Z"/>
    <g>
      <path class="st1" d="M48.4,85.8c-.1,0-.3,0-.4-.1-.2-.2-.3-.6,0-.8.4-.4.8-.9,1.1-1.4.6-.7,1.1-1.5,1.8-2.2,1.3-1.3,2.3-2.8,3.3-4.4.4-.6.8-1.2,1.2-1.8.2-.3.5-.3.8-.2.3.2.3.5.2.8-.4.6-.8,1.2-1.1,1.8-1,1.6-2,3.2-3.5,4.6-.6.6-1.1,1.3-1.7,2-.4.5-.8,1-1.2,1.5-.1.1-.3.2-.4.2Z"/>
      <path class="st1" d="M64.4,59.8h-1.5v-.6c0-.3,0-.7-.1-1.1,0-.2,0-.5-.1-.8,0-.3.2-.6.5-.6.3,0,.6.2.6.5,0-.2,0-.5,0-.7h0c0-.3,0-.5,0-.6,0-.3.1-.7.1-1l.7-6.3c0-.3.3-.5.6-.5.3,0,.5.3.5.6l-.7,6.2c0,.3,0,.7-.1,1.1,0,.2,0,.3,0,.5,0,.7,0,1.3-.2,2,0,.3-.1.5-.2.7,0,0,0,.1,0,.2v.4Z"/>
      <path class="st1" d="M75.2,60.1h0c-.4,0-.6-.3-.8-.5h0c-.2-.3-.2-.7,0-.9s.6-.2.8,0c0,0,0,0,.1.1,0,0,0,0,0,.1.9-.2,1.9-.4,2.8-.6,1-.2,2.1-.5,3.1-.7.3,0,.6.1.7.4,0,.3-.1.6-.4.7-1,.2-2.1.5-3.1.7-1,.2-2,.5-3,.7h0Z"/>
      <path class="st1" d="M65.2,48.2c-.3,0-.5-.2-.6-.5,0-.5,0-.9,0-1.4s0-.6,0-1c0-.3,0-.6,0-.9,0-.6,0-1.1,0-1.7,0-.6,0-1.1,0-1.7,0-1.3.2-2.6.3-3.9,0-.6.1-1.3.2-1.9,0-.3.3-.5.6-.5.3,0,.6.3.5.6,0,.6-.1,1.3-.2,1.9-.1,1.3-.2,2.5-.3,3.8,0,.5,0,1.1,0,1.6,0,.6,0,1.1,0,1.7s0,.6,0,1c0,.3,0,.6,0,.9,0,.4,0,.8,0,1.2,0,.3-.2.6-.5.7,0,0,0,0,0,0Z"/>
      <path class="st1" d="M68.8,71.6c-.2,0-.4,0-.5-.3s-.2-.3-.4-.5c-.2-.3-.4-.6-.6-.9-.2-.3-.5-.6-.8-.9-.6-.6-1.3-1.3-1.1-2.5,0-.3.3-.5.7-.5.3,0,.5.3.5.7,0,.6.2,1,.8,1.6.4.3.7.7,1,1.3.1.2.3.4.5.7.1.2.3.4.4.5.2.3.1.6-.2.8,0,0-.2,0-.3,0Z"/>
      <path class="st1" d="M52.1,59.4s0,0,0,0c-.2,0-.4,0-.6,0-.3,0-.7-.1-1-.1-1.3,0-2.6-.4-3.8-.8-.8-.3-1.6-.5-2.4-.6-.3,0-.5-.3-.5-.7,0-.3.3-.5.7-.5.9.1,1.8.4,2.6.7,1.2.4,2.3.7,3.4.7s.8,0,1.2.1c.2,0,.3,0,.5,0,.3,0,.5.3.5.7,0,.3-.3.5-.6.5Z"/>
      <path class="st1" d="M54.1,76.1c0,0-.2,0-.2,0-.3-.1-.4-.5-.3-.8.5-1.2,1.2-2.1,2.1-2.9.2-.1.3-.4.4-.7,0-.2.2-.4.3-.6.2-.3.5-.4.8-.2s.4.5.2.8c0,.2-.2.3-.2.5-.2.4-.4.8-.7,1.1-.7.6-1.3,1.5-1.8,2.5,0,.2-.3.3-.5.3Z"/>
      <path class="st1" d="M85.9,57.5c-.4,0-.7-.2-.9-.4,0,0-.2-.1-.2-.1-.3,0-.6,0-.9,0-.4,0-.7,0-1.1,0s-.6-.3-.6-.6.3-.6.6-.6.6,0,1,0c.4,0,.7,0,1.1,0s.7.2.9.4c0,0,.1.1.2.1,0,0,0,0,.1-.1.2-.2.6-.3.8,0,.2.2.3.6,0,.8-.4.4-.7.5-1,.5Z"/>
      <path class="st1" d="M68.5,61.5c-.3,0-.6,0-.8-.1-.1,0-.2,0-.4,0h-.5c0,0,0-.6,0-.6,0-.6.2-1.1.2-1.5,0-.3.4-.5.7-.5.3,0,.5.3.5.6,0,.3-.1.6-.2,1,.2,0,.4,0,.5,0,.9-.4,1.8-.5,2.7-.6,1,0,2-.2,2.8-.8.3-.2.6-.1.8.1.2.3.1.6-.1.8-1.1.8-2.2.9-3.4,1-.8,0-1.6.1-2.3.5-.2,0-.4.1-.5.1Z"/>
      <path class="st1" d="M60.4,69.3c0,0-.1,0-.2,0-.3,0-.5-.4-.4-.7.1-.5.4-.9.6-1.3.1-.2.2-.4.3-.6,0,0-.1,0-.2,0-.3-.1-.4-.5-.3-.7.1-.4.3-.7.4-1.2v-.4h.5c.1,0,.5,0,.7.2h.1c0,0,0,.2,0,.2.4,1.2-.2,2.2-.6,3-.2.4-.4.7-.5,1.1,0,.2-.3.4-.5.4Z"/>
      <path class="st1" d="M71.3,72.4c-.3,0-.5-.2-.6-.5,0-.5-.5-.8-.9-1.2-.4-.3-.7-.6-1-1.1-.2-.3,0-.6.2-.8.3-.2.6,0,.8.2.2.3.5.5.8.8.5.4,1.1,1,1.3,1.8,0,.3-.1.6-.5.7,0,0,0,0-.1,0Z"/>
      <path class="st1" d="M67.5,67.2c-.2,0-.4,0-.5-.3-.1-.2-.3-.5-.5-.7,0,0,0,0,0-.1,0,.1,0,.2-.1.3-.1.3-.5.4-.8.3-.3-.1-.4-.5-.3-.8,0-.1.1-.3.2-.4,0-.2.1-.4.2-.6l.2-.3h1l.2.3c.2.2.3.5.5.7.2.2.3.5.5.7.2.3.1.6-.2.8,0,0-.2,0-.3,0Z"/>
      <path class="st1" d="M96,55.1s0,0-.1,0c-.5,0-.9-.3-1.2-.7-.2-.3-.1-.6.2-.8.3-.2.6-.1.8.2,0,.1.2.2.4.2.3,0,.7-.2,1-.5.2-.2.6-.3.8,0,.2.2.3.6,0,.8-.5.6-1.2.9-1.8.9Z"/>
      <path class="st1" d="M87.6,57c-.4,0-.9-.2-1.2-.3-.1,0-.2,0-.3-.1h0c0,0-.1,0-.2,0-.3.2-.6.1-.8-.2-.2-.3-.1-.6.2-.8.1,0,.3-.2.4-.3.1,0,.2-.1.3-.2l.9-.6v1c.3.1.6.2.8.2.6,0,1.3-.1,1.9-.3l.2,1.1c-.7.2-1.4.3-2.2.3Z"/>
      <path class="st1" d="M40,56.3s0,0-.1,0c-.5-.1-1.1-.2-1.6-.3-.5-.1-1-.2-1.6-.3-.3,0-.5-.4-.4-.7s.4-.5.7-.4c.5.1,1.1.2,1.6.3.5.1,1,.2,1.6.3.3,0,.5.4.4.7,0,.3-.3.5-.6.5Z"/>
      <path class="st1" d="M56.8,60s0,0-.1,0c-.3,0-.6-.1-.9-.2-.3,0-.6-.1-1-.2-.3,0-.5-.4-.4-.7,0-.3.4-.5.7-.4.3,0,.6.1.9.2.3,0,.6.1,1,.2.3,0,.5.4.4.7,0,.3-.3.4-.6.4Z"/>
      <path class="st1" d="M81.7,85.7c-.2,0-.3,0-.4-.2l-2.2-2.4c-.1-.2,0-.5,0-.8,0,0,0-.2,0-.3,0-.3.3-.6.6-.6s.6.3.6.6,0,.3,0,.4c0,0,0,0,0,.1l2,2.2c.2.2.2.6,0,.8-.1,0-.2.1-.4.1ZM80.2,82.7h0,0Z"/>
      <path class="st1" d="M47.4,57.2c0,0-.2,0-.3,0l-3.1-.5c0,.2-.3.4-.6.4s-.6-.3-.6-.6v-1.2l4.2.7c.2-.2.6,0,.8.1h.1v.5c0,.3-.3.6-.6.6Z"/>
      <path class="st1" d="M73.1,75.1c-.2,0-.4,0-.5-.3-.2-.3-.4-.6-.6-.9-.2-.3-.4-.6-.6-.9s0-.6.2-.8c.3-.2.6,0,.8.2.2.3.4.6.6.9.2.3.4.6.6.9s0,.6-.2.8c0,0-.2,0-.3,0Z"/>
      <path class="st1" d="M36.2,55.6c-.3,0-.6,0-.9-.3-.2-.2-.4-.4-.5-.7,0,0,0,0,0,0-.2,0-.3.1-.4.1-.3,0-.6-.1-.7-.4,0-.3.1-.6.4-.7.1,0,.2,0,.3-.1.2,0,.4-.1.7-.2h.6c0-.1,0,.5,0,.5,0,.3.1.4.2.5,0,0,0,0,.1,0,0-.1,0-.3,0-.5.2-.3.5-.4.8-.2.4.2.6.6.6,1,0,.4-.3.6-.7.7-.2,0-.4,0-.6,0Z"/>
      <path class="st1" d="M54.7,60s0,0,0,0c-.2,0-.3,0-.5,0-.3,0-.6-.1-.8-.1h-1.2c-.3,0-.6-.3-.6-.6s.3-.6.6-.6h1.2c.4,0,.7,0,1,.2.1,0,.3,0,.4,0,.3,0,.5.3.5.7,0,.3-.3.5-.6.5Z"/>
      <path class="st1" d="M74.2,77c-.6,0-1-.4-1.3-.6,0,0-.1,0-.2-.1-.2-.2-.3-.6,0-.8,0,0,0,0,.1-.1-.2-.2-.2-.5,0-.7.2-.3.5-.3.8-.1.5.4,1.1.8,1.7,1.3l.6.5-.6.4c-.4.3-.7.4-1,.4Z"/>
      <path class="st1" d="M77.4,79.9c-.2,0-.3,0-.5-.2l-1.1-1.4c-.2-.3-.1-.6.1-.8.3-.2.6-.2.8.1l1.1,1.4c.2.3.1.6-.1.8-.1,0-.2.1-.4.1Z"/>
      <path class="st1" d="M90.7,56.4c-.1,0-.3,0-.4-.1-.2-.2-.3-.6,0-.8.5-.6,1.1-.8,2-.8s1.3-.2,2.1-.4c.2,0,.4,0,.6-.1.3,0,.6.1.7.4,0,.3-.1.6-.4.7-.2,0-.4,0-.5.1-.8.2-1.5.4-2.4.4s-.9.1-1.1.4c-.1.1-.3.2-.4.2Z"/>
      <path class="st1" d="M47,87s0,0,0,0c-.3,0-.5-.3-.5-.7l.2-1.6c0-.3.3-.5.7-.5.3,0,.5.3.5.7l-.2,1.6c0,.3-.3.5-.6.5Z"/>
      <path class="st1" d="M58.7,69.5c-.1,0-.2,0-.3,0-.3-.2-.3-.5-.2-.8l.9-1.4c.2-.3.5-.3.8-.2.3.2.3.5.2.8l-.9,1.4c-.1.2-.3.3-.5.3Z"/>
      <path class="st1" d="M75.4,78.6c-.2,0-.4,0-.5-.3l-.9-1.4c-.2-.3-.1-.6.2-.8.3-.2.6-.1.8.2l.9,1.4c.2.3.1.6-.2.8,0,0-.2,0-.3,0Z"/>
      <path class="st1" d="M61.5,61.9h-2.2c-.3,0-.6-.3-.6-.6s.3-.6.6-.6h.7s0,0,0-.1c0-.3.3-.6.6-.6s.6.3.6.6c0,0,0,.2,0,.3l.2,1ZM61.2,60.6h0,0Z"/>
      <path class="st1" d="M58.6,61.8c0,0-.2,0-.2,0-.9-.4-1.4-1.2-1.8-1.9-.1-.3-.3-.5-.5-.7-.2-.3-.1-.6.1-.8.3-.2.6-.1.8.1.2.3.4.6.5.9.3.6.7,1.2,1.2,1.4.3.1.4.5.3.8,0,.2-.3.3-.5.3Z"/>
      <path class="st1" d="M56,60.5c-1.1,0-1.5-.5-1.6-1.1,0,0,0,0,0,0-.1,0-.2,0-.3,0-.3-.1-.5-.4-.4-.7,0-.3.4-.5.7-.4,0,0,.2,0,.2,0,.4,0,.8.2.8.7s0,.3.5.3.6.3.6.6-.3.6-.6.6ZM54.6,59.5h0,0Z"/>
      <path class="st1" d="M42.5,56.3c0,0-.2,0-.3,0-.1,0-.3-.1-.4-.2-.2,0-.3-.1-.5-.2-.3-.1-.4-.5-.3-.8.1-.3.5-.4.8-.3.1,0,.3.1.4.2.2,0,.3.1.5.2.3.1.4.5.3.8-.1.2-.3.3-.5.3Z"/>
      <path class="st1" d="M46.2,87.6c-.2,0-.4,0-.5-.2-.2-.3-.1-.6.1-.8.3-.2.5-.4.8-.5.2-.2.5-.3.8-.5.3-.2.6-.1.8.1s.1.6-.1.8c-.3.2-.5.4-.8.5-.2.2-.5.3-.8.5-.1,0-.2.1-.3.1Z"/>
      <path class="st1" d="M78.7,81.9c-.2,0-.4-.1-.5-.3-.1-.2-.2-.5-.3-.7,0-.2-.2-.4-.3-.6-.1-.3,0-.6.3-.8.3-.1.6,0,.8.3.1.2.2.5.3.7,0,.2.2.4.3.6.1.3,0,.6-.3.8,0,0-.2,0-.3,0Z"/>
      <path class="st1" d="M34,55c0,0-.1,0-.2,0-.3,0-.5-.1-.8-.2-.3,0-.6-.1-.8-.2-.3,0-.5-.4-.4-.7,0-.3.4-.5.7-.4.3,0,.5.1.8.2.3,0,.6.1.8.2.3,0,.5.4.4.7,0,.3-.3.4-.6.4Z"/>
      <path class="st1" d="M81.4,58.5c-.2,0-.5-.2-.5-.4-.1-.3,0-.6.4-.7s.5-.1.7-.2c.2,0,.4-.1.6-.2.3,0,.6,0,.7.4.1.3,0,.6-.4.7-.2,0-.5.1-.7.2-.2,0-.4.1-.6.2s-.1,0-.2,0Z"/>
      <path class="st1" d="M64.4,62.9h-1.7v-.4c-.5-1-.2-1.7.7-2.2,0,0,.2,0,.3,0,.1,0,.2,0,.3,0,1.2.7.7,1.8.5,2.2l-.2.3ZM63.5,61.7h.1c0,0,0-.2,0-.2,0,0-.1.1-.1.2Z"/>
    </g>
  </g>
</svg>