<?xml version="1.0" encoding="UTF-8"?>
<svg id="Layer_1" xmlns="http://www.w3.org/2000/svg" version="1.1" viewBox="0 0 120 120">
  <!-- Generator: Adobe Illustrator 29.8.1, SVG Export Plug-In . SVG Version: 2.1.1 Build 2)  -->
  <defs>
    <style>
      .st0 {
        fill: #fff;
      }

      .st1 {
        fill: #f4d1a8;
      }

      .st2 {
        fill: #caa170;
      }
    </style>
  </defs>
  <path class="st0" d="M98,92.5c-1.4-.6-2.7-1-3.6-1.2-1.2-.3-2.3-.4-2.8-.4h-2.2c-.2,0-.4-.1-.6-.3-1.9,1.6-3.7,2.5-4.9,3.1-2.1,1-3.5,1.6-4.7,1.1-.8-.3-1.5-1.3-2.9-3.3-1-1.5-1.6-2.2-1.8-2.7-1.4-3.2-.2-6.5,0-7.2,1.3-3.8,4.4-5.6,5.3-6.1-.9-4.1,0-8,2.5-10.1.6-.5,1.5-1,2.8-1.3-.1-.4-1.3-3.6.6-6.5,1.2-1.9,3-2.6,3.7-2.8-1.4-2.3-2-4.9-1.1-6.2.4-.6,1.4-1.5,2.3-2.1.4-.3.8-.5,1-.6-.1-.3-.8-1.7-.1-3.3.7-1.9,2.5-2.5,2.7-2.6-.1-.3-.9-2.1,0-4.1.8-1.7,2.3-2.4,2.6-2.5-.2-.4-.6-1.1-.4-1.8.1-1.3,1.3-1.4,2-3.1.5-1.3.1-1.8.8-2.5.6-.6,1.5-.8,1.8-.8,1.1-.1,1.9.2,2.3.4.4.2,1.6.7,2,2,.6,1.6-.4,3-.5,3.2.2.2,1.6,1.7,1.4,3.8-.1,1.6-1.1,2.6-1.3,2.9.2.3,1.5,1.9,1.1,4.2-.4,1.8-1.6,2.8-1.8,3,.4.5,1.1,1.8,1.1,3.7,0,2.5-1.6,4.1-2,4.4,1.9,3,2.2,6.2.7,8.2-.4.4-.8,1-1.8,1.4.3.4,3,4.7,1.1,8.9-.7,1.5-1.7,2.4-2.5,3,.5.6,2.4,3.5,1.9,7.5-.5,3.6-2.6,5.8-3.2,6.4.1.1.8.9.8,2s-.9,2.2-2.2,2.6h0Z"/>
  <g>
    <path class="st2" d="M79.9,95.3c-1.8,0-2.8-1.2-3.7-2.9-.4-.9-.8-1.6-1.5-2.4-.9-1.1-1.3-2.9-1.2-4.2,0-3.5,1-6.3,3-8.4.6-.7,1.4-1.3,2.2-1.8.3-.2.5-.4.8-.6-1.3-6,.3-9.7,5-11.4-.6-1.3-.6-3,0-4.5.7-2,2.2-3.7,4-4.4.3-.1.6,0,.7.3.1.3,0,.6-.3.7-1.5.6-2.8,2.1-3.4,3.8-.5,1.5-.4,3.1.3,4.2l.3.6-.6.2c-4.6,1.4-6.2,4.8-4.8,10.7v.3c0,0-.2.2-.2.2-.4.3-.7.6-1.1.8-.7.5-1.4,1-2,1.7-1.8,1.9-2.7,4.5-2.7,7.7,0,1.3.3,2.7.9,3.5.8.9,1.2,1.7,1.7,2.7,1,2.1,2,2.6,4,2.1.2,0,.4,0,.5-.1.2,0,.3,0,.5-.1.3,0,.6.1.6.4,0,.3-.1.6-.4.6-.2,0-.3,0-.5.1-.2,0-.3,0-.5.1-.6.1-1.1.2-1.5.2Z"/>
    <path class="st2" d="M94.1,39.6c-.2,0-.4-.2-.5-.4-.4-1.6-.3-3.1.4-4.3.4-.6,1-1.1,1.6-1.5.1,0,.3-.2.4-.3-.9-1.7.4-3.2,1.4-4.4.3-.3.4-.6.4-.7.2-1.5.6-2.4,1.4-2.9.8-.5,1.8-.6,3.2-.2.1,0,.2,0,.3,0,.1,0,.3,0,.4,0,.3,0,.5.4.4.6,0,.3-.4.5-.6.4-.1,0-.2,0-.3,0-.1,0-.3,0-.4,0-1.1-.3-1.8-.3-2.3,0-.5.3-.8,1-.9,2.1,0,.6-.5,1.2-.7,1.4-1.2,1.4-1.9,2.4-1.1,3.5l.3.4-.4.3c-.3.2-.6.4-.9.6-.6.4-1.1.7-1.3,1.1-.5,1-.6,2.2-.3,3.5,0,.3,0,.6-.4.6,0,0,0,0-.1,0Z"/>
    <path class="st2" d="M102.4,62.4c-.2,0-.4,0-.5-.3-.2-.2,0-.6.2-.7,1-.6,1.6-1.1,1.8-2.1.5-2.1.1-4.1-1.3-6.4l-.2-.4.3-.3c1.8-1.7,2.6-4.9.9-7.4-.2-.2-.1-.6.1-.7.2-.2.6-.1.7.1,2,2.9,1.2,6.4-.7,8.5,1.4,2.4,1.8,4.6,1.2,6.9-.3,1.4-1.4,2.1-2.3,2.7,0,0-.2,0-.3,0Z"/>
    <path class="st2" d="M99.3,88.6c-.1,0-.2,0-.3-.1-.2-.2-.3-.5-.1-.7,0-.1.1-.2.2-.3.1-.2.2-.4.4-.6,2.2-2.5,3.1-5.4,2.5-8.6-.3-1.5-.8-3.1-2.3-3.9-.3-.1-.4-.5-.2-.7.1-.3.5-.4.7-.2,1.9,1,2.4,2.9,2.8,4.7.7,3.6-.3,6.8-2.7,9.6,0,0-.2.2-.3.4,0,.1-.2.3-.3.4-.1.1-.3.2-.4.2Z"/>
    <path class="st2" d="M100.7,74.6c-.1,0-.3,0-.4-.1-.2-.2-.2-.5,0-.7.2-.3.5-.5.8-.8.5-.5,1-1,1.3-1.5,1.1-1.9,1.1-4,.2-6.5,0-.3-.2-.5-.2-.8-.2-.8-.4-1.6-1.1-2-.2-.2-.3-.5-.2-.7.2-.2.5-.3.7-.2,1.1.7,1.3,1.7,1.6,2.6,0,.2.1.5.2.7,1,2.7.9,5.2-.3,7.4-.4.6-.9,1.2-1.5,1.7-.3.2-.5.5-.7.7-.1.1-.2.2-.4.2Z"/>
    <path class="st2" d="M89.5,55.2c-.2,0-.4-.1-.5-.3-.1-.3-.3-.6-.5-.8-.4-.7-.8-1.3-1-2.1-.7-2.9.6-5.3,3.6-6.4-.5-1.3-.5-2.7,0-3.8.5-1.2,1.5-2,3-2.5.3,0,.6,0,.7.3,0,.3,0,.6-.3.7-1.1.4-1.9,1-2.3,1.9-.4.9-.4,2.1.1,3.3v.2c0,0,0,.2,0,.2,0,.2-.3.6-.6.6-2.5.9-3.6,2.8-3,5.1.2.6.5,1.2.9,1.8.2.3.4.6.5.9.1.3,0,.6-.2.7,0,0-.2,0-.3,0Z"/>
    <path class="st2" d="M105,37.7c-.1,0-.2,0-.3-.1-.2-.2-.3-.5,0-.7.9-1.1,1.1-2.5.7-3.9-.4-1.4-1.5-2.5-2.8-2.8-.3,0-.4-.4-.4-.7,0-.3.4-.4.7-.4,1.6.5,3,1.8,3.5,3.5.5,1.7.2,3.5-.8,4.9-.1.1-.3.2-.4.2Z"/>
    <path class="st2" d="M104.2,44.9c-.1,0-.3,0-.4-.2-.2-.2-.2-.5,0-.7,1.5-1.4,1.8-3.1,1.1-5.1,0-.1,0-.3-.1-.4-.2-.6-.3-.8-.7-1-.3,0-.4-.4-.3-.7,0-.3.4-.4.7-.3.9.3,1.2,1,1.4,1.6,0,.1,0,.2.1.4.9,2.3.4,4.5-1.4,6.2-.1,0-.2.1-.4.1Z"/>
    <path class="st2" d="M97.9,93.1c0,0-.2,0-.3,0,0,0,0,0,0,0h-.2c-2.5-1.3-4.8-1.7-7.1-1.5-.6,0-2,0-2-1.2v-.2s1.4-4,1.4-4c0-.3.4-.4.7-.3.3,0,.4.4.3.7l-1.3,3.9c.1,0,.7,0,.9,0,2.4-.3,4.9.2,7.5,1.5.2,0,.4,0,.6.2s.2.5,0,.7-.2.2-.4.2Z"/>
    <path class="st2" d="M83.1,94.5c-.2,0-.5-.2-.5-.4,0-.3.1-.6.4-.6,2-.5,3.7-1.5,5.5-3.3.2-.2.5-.2.7,0,.2.2.2.5,0,.7-1.9,1.9-3.8,3-6,3.5,0,0,0,0-.1,0Z"/>
    <path class="st2" d="M92.1,53.9s0,0-.1,0c-.4-.1-.9-.2-1.3-.4-.4-.1-.8-.2-1.2-.3-.3,0-.5-.4-.4-.6,0-.3.4-.5.6-.4.4.1.9.2,1.3.4.4.1.8.2,1.2.3.3,0,.5.4.4.6,0,.2-.3.4-.5.4Z"/>
    <path class="st2" d="M83.3,75.9c0,0-.1,0-.2,0-.3-.1-.6-.3-1-.4-.3-.1-.7-.3-1-.4-.3-.1-.4-.4-.3-.7.1-.3.4-.4.7-.3.3.1.6.3,1,.4.3.1.7.3,1,.4.3.1.4.4.3.7,0,.2-.3.3-.5.3Z"/>
    <path class="st2" d="M96.7,39.8c0,0-.1,0-.2,0-.3-.1-.6-.2-.8-.3-.3,0-.6-.2-.9-.3-.3-.1-.4-.4-.3-.7.1-.3.4-.4.7-.3.3.1.6.2.8.3.3,0,.6.2.9.3.3.1.4.4.3.7,0,.2-.3.3-.5.3Z"/>
    <path class="st2" d="M105,30.4s0,0,0,0c-.3,0-.5-.3-.5-.6,0-.3,0-.6.1-1,0-.3.1-.6.1-.9,0-.3.3-.5.6-.5.3,0,.5.3.5.6,0,.3,0,.6-.1.9,0,.3-.1.6-.1.9,0,.3-.3.5-.5.5Z"/>
    <path class="st2" d="M80.7,78.8c0,0-.2,0-.3,0-.2-.1-.5-.3-.7-.4-.3-.1-.5-.3-.8-.4-.3-.1-.3-.5-.2-.7.1-.3.5-.3.7-.2.2.1.5.3.7.4.3.1.5.3.8.4.3.1.3.5.2.7,0,.2-.3.3-.5.3Z"/>
    <path class="st2" d="M79.7,79.5s0,0-.1,0c-.3,0-.5-.2-.8-.3-.2,0-.5-.2-.7-.2-.3,0-.4-.4-.4-.7,0-.3.4-.4.7-.4.3,0,.5.2.8.3.2,0,.5.2.7.2.3,0,.4.4.4.7,0,.2-.3.4-.5.4Z"/>
    <path class="st2" d="M104.5,39.4c-.1,0-.2,0-.3-.1l-1.4-1.1c-.2-.2-.3-.5-.1-.7.2-.2.5-.3.7-.1l1.4,1.1c.2.2.3.5.1.7-.1.1-.3.2-.4.2Z"/>
    <path class="st2" d="M92.4,54.9s0,0-.1,0c-.3,0-.5-.2-.8-.3-.2,0-.5-.2-.7-.2-.3,0-.4-.4-.4-.7,0-.3.4-.4.7-.4.3,0,.5.2.8.3.2,0,.5.2.7.2.3,0,.4.4.4.7,0,.2-.3.4-.5.4Z"/>
    <path class="st2" d="M101.1,79.8c-.1,0-.3,0-.4-.2-.4-.4-.8-.9-1.2-1.3-.2-.2-.2-.6,0-.8.2-.2.6-.2.7,0h0c.4.4.7.8,1.1,1.2.2.2.2.5,0,.7-.1.1-.2.2-.4.2Z"/>
    <path class="st2" d="M91.9,91.3c0,0-.2,0-.3,0-.2-.1-.3-.2-.5-.3-.2,0-.3-.2-.5-.3-.3-.2-.3-.5-.2-.7.1-.3.5-.3.7-.2.2.1.3.2.5.3.2,0,.3.2.5.3.3.2.3.5.2.7,0,.2-.3.3-.5.3Z"/>
    <path class="st2" d="M102.9,60.7c-.2,0-.3,0-.4-.2-.1-.2-.3-.4-.4-.6-.1-.2-.3-.4-.4-.6s0-.6.1-.7c.2-.2.6,0,.7.1.1.2.3.4.4.6.1.2.3.4.4.6s0,.6-.1.7c0,0-.2,0-.3,0Z"/>
    <path class="st2" d="M90.9,52.3s0,0-.1,0l-1.1-.2c-.3,0-.5-.3-.4-.6,0-.3.3-.5.6-.4l1.1.2c.3,0,.5.3.4.6,0,.3-.3.4-.5.4Z"/>
    <path class="st2" d="M100.7,77.9c-.1,0-.2,0-.3-.1-.3-.2-.5-.5-.7-.7,0,0-.2-.2-.3-.3-.2-.2-.2-.5,0-.7.2-.2.5-.2.7,0,0,0,.2.2.3.3.2.2.4.4.6.6.2.2.3.5,0,.7-.1.1-.3.2-.4.2Z"/>
    <path class="st2" d="M104.6,40.1c-.1,0-.2,0-.3-.1-.1-.1-.3-.2-.5-.4-.2-.1-.3-.2-.4-.3-.2-.2-.3-.5-.1-.7.2-.2.5-.3.7-.1.1.1.3.2.5.4.2.1.3.2.5.4.2.2.3.5.1.7-.1.1-.3.2-.4.2Z"/>
    <path class="st2" d="M105,36.3c-.1,0-.2,0-.3-.1l-.9-.7c-.2-.2-.3-.5,0-.7.2-.2.5-.3.7,0l.9.7c.2.2.3.5,0,.7-.1.1-.3.2-.4.2Z"/>
    <path class="st2" d="M91.5,89.6s0,0-.1,0l-1.1-.2c-.3,0-.5-.3-.4-.6,0-.3.3-.5.6-.4l1.1.2c.3,0,.5.3.4.6,0,.3-.3.4-.5.4Z"/>
    <path class="st2" d="M101.1,81.2c-.2,0-.3,0-.4-.2l-.6-.9c-.2-.2-.1-.6.1-.7.2-.2.6-.1.7.1l.6.9c.2.2.1.6-.1.7,0,0-.2,0-.3,0Z"/>
    <path class="st2" d="M77.6,81c-.1,0-.2,0-.3,0,0,0-.2-.1-.3-.2-.1,0-.3-.2-.4-.2-.2-.2-.3-.5-.1-.7.2-.2.5-.3.7-.1,0,0,.2.1.3.2.1,0,.3.2.4.2.2.2.3.5.1.7-.1.2-.3.2-.4.2Z"/>
    <path class="st2" d="M78.5,80.4c-.1,0-.2,0-.3,0,0,0-.2-.1-.3-.2-.1,0-.3-.2-.4-.2-.2-.2-.3-.5-.1-.7.2-.2.5-.3.7-.1,0,0,.2.1.3.2.1,0,.3.2.4.2.2.2.3.5.1.7-.1.2-.3.2-.4.2Z"/>
    <path class="st2" d="M90.5,91s0,0,0,0h-.8c-.3-.2-.5-.5-.4-.8,0-.3.3-.5.6-.4h.8c.3.2.5.5.4.8,0,.3-.3.4-.5.4Z"/>
    <path class="st2" d="M101,72.6c-.1,0-.2,0-.3-.1-.3-.2-.5-.5-.8-.7-.2-.2-.2-.5,0-.8.2-.2.5-.2.7,0h0c.2.2.4.4.6.6.2.2.3.5.1.7-.1.1-.3.2-.4.2Z"/>
    <path class="st2" d="M103.4,59.5c-.2,0-.3,0-.4-.2l-.4-.6c-.2-.2,0-.6.1-.7.2-.2.6,0,.7.1l.4.6c.2.2,0,.6-.1.7,0,0-.2,0-.3,0Z"/>
    <path class="st2" d="M101.5,71.9c-.2,0-.3,0-.4-.2l-.4-.6c-.2-.2,0-.6.1-.7.2-.2.6,0,.7.1l.4.6c.2.2,0,.6-.1.7,0,0-.2,0-.3,0Z"/>
    <path class="st2" d="M82.7,86.7c-.2,0-.3,0-.4-.2l-.4-.6c-.2-.2,0-.6.1-.7.2-.2.6,0,.7.1l.4.6c.2.2,0,.6-.1.7,0,0-.2,0-.3,0Z"/>
    <path class="st2" d="M88.3,58c-.1,0-.2,0-.3,0h-.1c-.1-.2-.3-.3-.4-.4-.2-.2-.2-.5,0-.7s.5-.2.7,0c0,0,.1.1.2.2h.2c.2.3.3.6.1.8-.1.2-.3.2-.4.2Z"/>
    <path class="st2" d="M86,64.9c-.1,0-.3,0-.4-.2-.2-.2-.2-.5,0-.7,0,0,.2-.1.2-.2,0,0,0,0,0,0,.2-.2.6-.2.7,0s.2.5,0,.7c0,0-.1.1-.2.2,0,0,0,0,0,0-.1,0-.2.1-.4.1Z"/>
    <path class="st2" d="M89.8,56.6c-.1,0-.3,0-.4-.2-.2-.2-.2-.5,0-.7,0,0,.1-.1.2-.2,0,0,0,0,0,0,.2-.2.6-.2.7,0,.2.2.2.5,0,.7s-.1.1-.2.2c0,0,0,0,0,0-.1,0-.2.1-.4.1Z"/>
    <g>
      <path class="st1" d="M78.5,91.6c-.3,0-.5-.2-.5-.5-.5-3.2,1.2-5.9,4.9-8.1h.2c.5-.4,1-.7,1.6-.8,1.2-.2,2.7-.3,3.7,1,0,0,.2,0,.3,0,.2,0,.3,0,.5-.1.3,0,.6.1.6.4,0,.3-.1.6-.4.6-.1,0-.3,0-.4.1-.2,0-.5.1-.7.2h-.4c0,0-.2-.2-.2-.2-.6-1-1.5-1-2.8-.8-.4,0-.8.4-1.3.6h-.2c-3.4,2-4.8,4.3-4.4,7.1,0,.3-.2.6-.4.6,0,0,0,0,0,0Z"/>
      <path class="st1" d="M100.3,73.8c-.2,0-.3,0-.4-.2-.2-.2-.4-.5-.6-.7-.4-.5-.8-1.1-1.3-1.5-1-.7-2-1.4-3.1-2.1-.6-.4-1.2-.8-1.8-1.2-.2-.2-.3-.5-.1-.7.2-.2.5-.3.7-.1.6.4,1.2.8,1.8,1.2,1.1.7,2.1,1.4,3.1,2.2.6.5,1.1,1.1,1.5,1.7.2.2.4.5.5.7.2.2.2.6,0,.7,0,0-.2.1-.3.1Z"/>
      <path class="st1" d="M87.8,79.8c-.1,0-.3,0-.4-.2,0,0-.2-.2-.2-.3,0,0,0,0,0,0-1-.5-2-1-3.1-1.5-1-.5-2.1-1-3.1-1.6-.3-.1-.4-.5-.2-.7s.5-.4.7-.2c1,.5,2.1,1,3.1,1.5,1,.5,2.1,1,3.1,1.6.2.1.3.3.4.4,0,0,0,0,0,.1.2.2.2.5,0,.7-.1.1-.2.2-.4.2ZM87.3,79.3s0,0,0,0c0,0,0,0,0,0Z"/>
      <path class="st1" d="M97.2,58.2c0,0-.1,0-.2,0-1-.4-2-.9-3-1.3-1-.4-2-.9-3-1.3-.3-.1-.4-.4-.3-.7.1-.3.4-.4.7-.3,1,.4,2,.9,3,1.3,1,.4,2,.9,3,1.3.3.1.4.4.3.7,0,.2-.3.3-.5.3Z"/>
      <path class="st1" d="M99.2,50.4c-.1,0-.2,0-.3,0-2.1-1.5-4.3-3-6.5-4.4-.2-.2-.3-.5-.1-.7s.5-.3.7-.1c2.1,1.4,4.4,2.9,6.5,4.4.2.2.3.5.1.7-.1.1-.3.2-.4.2Z"/>
      <path class="st1" d="M99.7,91.6c0,0-.1,0-.2,0-.3-.1-.4-.4-.3-.7.1-.2.2-.5.3-.8,0-.2.1-.3.2-.5-.3-.4-.6-.8-.9-1.2h0c-1.4,1-3,1.1-4.4,1.1s-.5-.2-.5-.5.2-.5.5-.5c1.7,0,3-.2,4.1-1.2l.4-.4.7.9c.4.5.7.9,1.1,1.5l.2.2v.3c-.2.2-.3.5-.4.8-.1.3-.2.5-.3.8,0,.2-.3.3-.5.3Z"/>
      <path class="st1" d="M100.5,35.2c0,0-.2,0-.2,0-.5-.2-.9-.4-1.3-.6s-.9-.4-1.3-.6c-.3-.1-.4-.4-.3-.7s.4-.4.7-.3c.5.2.9.4,1.4.6.4.2.9.4,1.3.6.3.1.4.4.3.7,0,.2-.3.3-.5.3Z"/>
      <path class="st1" d="M97.3,41s0,0-.1,0c-.4-.1-.9-.2-1.3-.4-.4-.1-.8-.2-1.3-.3-.3,0-.5-.4-.4-.6,0-.3.4-.5.6-.4.4.1.9.2,1.3.4.4.1.8.2,1.2.3.3,0,.5.4.4.6,0,.2-.3.4-.5.4Z"/>
      <path class="st1" d="M102.5,61.9c-.2,0-.3,0-.4-.2-.3-.4-.6-.8-.9-1.2-.3-.4-.6-.8-.9-1.2-.2-.2-.2-.6,0-.7.2-.2.6-.2.7,0,.3.4.6.8.9,1.2.3.4.6.8.9,1.2.2.2.2.6,0,.7,0,0-.2.1-.3.1Z"/>
      <path class="st1" d="M91.3,90.3s0,0,0,0c-.6,0-1.2-.1-1.9-.2h-.2c-.3,0-.5-.3-.5-.6s.3-.5.6-.5h.2c.6,0,1.3.1,1.9.2.3,0,.5.3.5.6,0,.3-.3.5-.5.5Z"/>
      <path class="st1" d="M88.8,67.3c0,0-.1,0-.2,0-.4-.1-.7-.2-1-.3-.3-.1-.7-.2-1-.3-.3,0-.4-.4-.4-.7,0-.3.4-.4.7-.4.3.1.7.2,1,.3.3.1.7.2,1,.3.3,0,.4.4.4.7,0,.2-.3.4-.5.4Z"/>
      <path class="st1" d="M104.5,36.7c0,0-.2,0-.3,0-.2-.1-.5-.3-.7-.4s-.5-.3-.8-.4c-.3-.1-.3-.5-.2-.7.1-.3.5-.3.7-.2.2.1.5.3.7.4.3.1.5.3.8.4.3.1.3.5.2.7,0,.2-.3.3-.5.3Z"/>
      <path class="st1" d="M94.5,47.3s0,0,0,0c-.4,0-.8-.2-1.2-.3h-.3c-.3-.2-.4-.5-.4-.7,0-.3.4-.4.7-.4h.3c.4.2.7.3,1.1.3.3,0,.5.3.4.6,0,.3-.3.5-.5.5Z"/>
      <path class="st1" d="M103.2,44.3c-.1,0-.2,0-.3-.1l-1.1-.8c-.2-.2-.3-.5,0-.7.2-.2.5-.3.7,0l1.1.8c.2.2.3.5,0,.7-.1.1-.3.2-.4.2Z"/>
      <path class="st1" d="M99.9,27.6c-.1,0-.3,0-.4-.2-.2-.2-.2-.5,0-.7,0,0,.1-.1.2-.2,0,0,0,0,0,0,.2-.2.6-.2.7,0,.2.2.2.5,0,.7,0,0-.1.1-.2.2,0,0,0,0,0,0-.1,0-.2.1-.4.1Z"/>
    </g>
    <path class="st2" d="M104.7,41.2c-.1,0-.3,0-.4-.1,0,0-.1-.1-.2-.2s0,0,0,0c-.2-.2-.2-.6,0-.7.2-.2.5-.2.7,0,0,0,.1.1.2.2s0,0,0,0c.2.2.2.6,0,.7-.1,0-.2.1-.4.1Z"/>
    <path class="st2" d="M101,81.9c-.2,0-.3,0-.4-.2l-.2-.3c-.2-.2-.1-.6.1-.7.2-.2.6-.1.7.1l.2.3c.2.2.1.6-.1.7,0,0-.2.1-.3.1Z"/>
  </g>
</svg>