<?xml version="1.0" encoding="UTF-8"?>
<svg id="Layer_1" xmlns="http://www.w3.org/2000/svg" version="1.1" viewBox="0 0 120 120">
  <!-- Generator: Adobe Illustrator 29.8.1, SVG Export Plug-In . SVG Version: 2.1.1 Build 2)  -->
  <defs>
    <style>
      .st0 {
        fill: #fff;
      }

      .st1 {
        fill: #f4d1a8;
      }

      .st2 {
        fill: #caa170;
      }
    </style>
  </defs>
  <path class="st0" d="M72.4,60.9c0-.2.1-.5.4-.9.5-1.2,1.2-1.8,1.7-2.4.4-.4.4-.5,1.5-3.2.4-.8.9-1.9,1.5-3.4-.7-1.5-1.3-2.5-1.7-3.2-.1-.3-.5-.8-.7-1.5,0-.2,0-.7,0-1.2.2-.7.6-.8,1.2-1.5.8-1,1.2-2.1,1.4-2.9.2-.7.3-1,.3-1.3,0-1.4-1-2-1.2-3.5,0-.5,0-.9,0-1.1,1.9-1.7,2.3-2.5,2.2-2.9,0,0,0-.3,0-.7v-1c0-.1.5-.6.4-1.3,0-.8-.7-1.3-.7-1.4.3-.2.7-.6,1-1.2.4-.8.4-1.6.4-2.1-.1-.4-.1-.9.1-1.2,0,0,.4-.4.7-.3.4,0,.5.4,1.1,1.1.7.7,1,.6,1.4,1.2.2.3.4.7.4.9,0,0,0-.2.1-.3.8.4,1.6.9,2.4,1.3,0,0,0,.2-.1.3,0,.4.1,1,.3,1.4l2.5.4v.4c.1.6.1,1.2.1,1.9s-.1,1.3-.2,1.8l3.2.4c.2,0,.5,0,.7,0,.2,0,.6.1.9.4.5.4.7,1,.9,2.3.1.8.2,1.8.3,3.2l1.7.8c1,.5,2.2,1,3.8,1.4,1,.2,1.8.4,2.6.4.1.2.4.5.5.7.2,1.8.4,3.7.6,5.4,0,.3,0,.7,0,1v2.6c-.1,1.5-.4,2.9-.7,4-.1.2-.4.4-.5.7.1.5.3,1,.5,1.5l-1.2,1.2c-.4.9-.9,1.7-1.3,2.6,0,.6-.2,1.2-.3,1.8-.4.5-.7,1-1,1.5.1.2.4.7.5,1.3,0,.7-.1,1.3-.2,1.6,0,.8,0,1.5,0,2.4,0,.2.2.4.3.6.4.8.8,2.1.7,3.8,0,.7-.1,1.3-.2,1.8.4,1,.7,2.1,1,3.2.1.2.5.7.7,1.3.1.7,0,1.3,0,1.6,0,0,.7.7.7,1.5,0,.6-.3,1-.4,1.2,0,.3-.1.6-.1.9l.3.8c-.4,1-.6,1.7-.5,2.2,0,.7.2.9.2,1.8s0,1.1-.4,1.9c-.2.6-.4.6-.5,1-.1.7.2,1,0,1.5-.1.5-.4.8-.9,1.3s-.5.5-.7.6c-.8.2-1.7-1-1.8-1.1-.4-.4-.7-.8-1.1-1.2-.4-1-.8-2.1-1.3-3.1-.3,0-1.1-.3-1.7-1-1-1.3-.7-2.8-.6-3-.3-.1-.6-.3-.8-.4,0-.2,0-.5-.1-.7,0,0,0-.3,0-.5,0-.2-.2-.3-.3-.4,0,0-.7,0-1-.6-.3-.4-.1-.9-.1-1-.1-.8-.2-1.5-.4-2.4-.1,0-1,0-1.7-.8-.5-.7-.5-1.3-.5-1.5h-.6c-.7-.2-1.3-1-1.3-2.1-.2,0-.6,0-1-.2-1.1-.4-1-1.4-2-1.8-.6-.2-.9,0-1.9-.3-.4-.1-.7-.3-.8-.4,0-.6-.5-2.6-1.8-3h-.2c-.3-.2-.7-.5-1.1-1-.5-.7-.8-1.4-.9-1.8-.2-.4-.4-.8-.6-1.2-.6-.5-1.2-1-1.8-1.5,0-1.3-.4-2.1-.7-2.6-.2-.3-.5-.5-.8-1.1-.3-.6-.4-1.2-.4-1.5h-.5Z"/>
  <g>
    <path class="st2" d="M73.5,64c-.2,0-.4-.1-.5-.3l-.2-.4c-1.2-1.7-1.2-2.5,0-4.2.2-.3.4-.5.6-.7.2-.3.5-.6.6-.9,1-2,1.9-4,2.9-6.1l.5.2.5.3c-1,2.1-1.9,4.1-2.9,6.1-.2.4-.5.8-.8,1.1-.2.2-.4.4-.5.6-.9,1.3-.9,1.6,0,3h0c0,0,.2.5.2.5.1.3,0,.6-.2.7,0,0-.2,0-.2,0Z"/>
    <path class="st2" d="M100.2,97.6c-.2,0-.3,0-.5-.2-.2-.3-.1-.6.1-.8,1-.7,1.3-1.5,1-2.6v-.3c0,0,0-.2,0-.2.8-1.1.9-2.3.4-3.7s0-1.1.1-1.6c-.1.2-.3.4-.4.6-.2.3-.5.3-.8.2-.3-.2-.3-.5-.2-.8.5-.8,1-1.6,1.6-2.5l.5-.7.4.7c.5.8.2,1.5,0,2,0,.1,0,.3-.1.4v.3c-.2.3-.3.8-.2,1,.5,1.6.4,3.1-.4,4.5.4,1.5-.1,2.7-1.5,3.6,0,0-.2,0-.3,0Z"/>
    <path class="st2" d="M92.3,42c-.2,0-.3,0-.4-.2-.2-.2-.1-.6.1-.8.8-.6,1.6-1.2,2.3-1.7,0-.2,0-.3,0-.5,0-.9,0-1.7-.2-2.4h0c-.2-1.2-.5-2-1.3-2.2-.3,0-.5-.4-.4-.7,0-.3.4-.5.7-.4,1.6.4,1.9,1.8,2.2,2.9h0c.2,1,.2,1.8.3,2.7,0,.3,0,.5,0,.8v.3s-.2.2-.2.2c-.8.6-1.7,1.2-2.6,1.9s-.2.1-.3.1Z"/>
    <path class="st2" d="M86.5,29c-.3,0-.6-.2-.6-.6s0-.6-.1-1.1h0c0-.1,0-.1,0-.2-.5-.3-1-.6-1.5-.8l-.6.6-.4-1.4h-.1c-.2-.3-.4-.4-.6-.6-.4-.3-.9-.7-1.2-1.1h-.1c0-.2-.2-.4-.3-.4,0,0,0,0-.1,0-.2.1-.3.2-.1.6.1.3,0,.6-.2.7-.3.1-.6,0-.7-.2-.2-.4-.3-.8-.2-1.2,0-.4.4-.7.8-.9.9-.5,1.4.2,1.8.5h0c.3.5.7.8,1.1,1.1,0,0,.2.1.2.2l.5-.5.4,1.3h0c.7.5,1.5.9,2.3,1.3l.6.4-.5.5c0,.5.1.8.1,1.1s-.2.6-.6.6ZM86.9,27.4h0s0,0,0,0Z"/>
    <path class="st2" d="M75.1,45.8c-.1,0-.2,0-.3-.1-.2-.2-.3-.5-.1-.8,0-.1.1-.2.2-.3.1-.2.3-.4.4-.6,1-1,1.5-2.3,2.1-4,.1-.3,0-.7,0-1.1,0-.3-.3-.6-.4-1-.3-.6-.7-1.2-.7-2s.2-.6.6-.6.6.2.6.6c0,.5.3,1,.5,1.5.2.4.5.8.6,1.3,0,.5.2,1.1,0,1.6-.5,1.4-1.1,3.1-2.3,4.4-.1.1-.2.2-.3.4,0,.1-.2.2-.2.4-.1.1-.3.2-.4.2Z"/>
    <path class="st2" d="M98.5,79.3c-.1,0-.2,0-.3-.1-.2-.2-.3-.5,0-.8,0-.1.2-.2.3-.4.2-.3.5-.7.8-.9,1-.8,1.4-1.9,1.2-3.4-.1-.9-.4-1.8-.7-2.8l1.1-.3-.5.2h.5c.3.8.6,1.8.7,2.8.3,1.8-.3,3.3-1.6,4.4-.2.2-.4.4-.6.7-.1.1-.2.3-.3.4-.1.1-.3.2-.4.2Z"/>
    <path class="st2" d="M92.6,87.3c0,0-.1,0-.2,0-.3,0-.5-.4-.4-.7,0-.2,0-.3,0-.3,0,0-.3-.1-.4-.2-.3-.1-.7-.2-.9-.6h0c0-.1,0-.3,0-.3,0-.5-.2-1.1-.3-1.6,0-.4-.1-.9-.2-1.3-.9-.3-1.7-.8-2-1.5-.3-.5-.3-1-.1-1.5.2-.6.6-1.1,1-1.6.2-.2.3-.4.4-.6.2-.3.5-.3.8-.2.3.2.3.5.2.8-.1.2-.3.4-.5.6-.3.4-.7.9-.8,1.3,0,.2,0,.4,0,.6.3.5.9.8,1.7,1h.4c0,0,0,.5,0,.5,0,.5.2,1.1.3,1.6,0,.5.2,1,.2,1.5,0,0,.2.1.4.2.5.2,1.4.5,1,1.8,0,.2-.3.4-.5.4Z"/>
    <path class="st2" d="M103.5,56.4s0,0,0,0c-.3,0-.5-.3-.4-.6,0-.4.2-.8.2-1.3.2-.8.3-1.6.4-2.5v-2.7c0-.3.2-.6.5-.6s.6.2.6.6v2.8c-.1.9-.3,1.8-.4,2.6,0,.4-.2.8-.2,1.2,0,.3-.3.5-.5.5Z"/>
    <path class="st2" d="M103.2,42.8c-.1,0-.3,0-.4-.2-2.5-.1-4.6-1-6.4-1.8-.3-.1-.4-.5-.3-.7.1-.3.5-.4.7-.3,1.7.8,3.8,1.6,6.2,1.7h.2s.3.3.3.3c.2.2.2.6,0,.8-.1.1-.2.2-.4.2Z"/>
    <path class="st2" d="M103.5,48.5c-.2-.5-.3-1.1-.3-1.7-.1-1.3-.2-2.6-.3-3.9,0-.3.2-.6.5-.6.3,0,.6.2.6.5h0c0,1.3.1,2.6.3,3.9,0,.5.1,1,.3,1.4l-1.1.3Z"/>
    <path class="st2" d="M97,95.3c-.2,0-.4-.1-.5-.3-.3-.8-.7-1.6-1.1-2.5-2.3-.7-2.6-2.8-2.5-4.5v-.2s.1-.1.1-.1c0,0,.2-.2,0-.7,0-.3,0-.6.4-.7.3,0,.6,0,.7.4.2.7,0,1.2-.1,1.5,0,2.1.5,3,1.9,3.3h.3c0,0,.1.3.1.3.4,1,.8,1.9,1.2,2.8.1.3,0,.6-.3.7,0,0-.1,0-.2,0Z"/>
    <path class="st2" d="M101.1,62.1c-.1,0-.2,0-.3,0-.3-.2-.3-.5-.2-.8.3-.4.5-.8.7-1.3,0,0,0-.2,0-.3,0-.3.2-.6.4-.9.2-.3.5-.6.8-.8,0,0,0,0,.1-.1-.1-.3-.2-.6-.4-.8-.1-.3,0-.6.3-.7.3-.1.6,0,.7.3.1.4.3.7.5,1.1l.2.4-.3.3c-.2.2-.3.3-.5.4-.3.2-.5.4-.6.7-.1.1-.2.4-.2.6,0,.1,0,.3-.1.4-.2.5-.5,1-.8,1.4-.1.2-.3.2-.5.2Z"/>
    <path class="st2" d="M77.4,51.7c-.2,0-.4-.1-.5-.3l-1.3-2.6c-.1-.2-.2-.5-.4-.7-.3-.6-.7-1.2-.7-2.1s.2-.6.6-.6.6.2.6.6c0,.5.3,1,.6,1.5.1.3.3.5.4.8l1.3,2.6c.1.3,0,.6-.2.7,0,0-.2,0-.2,0Z"/>
    <path class="st2" d="M78.7,72.1c0,0-.2,0-.2,0-1.3-.6-1.7-1.8-2-2.8,0-.3-.3-.5-.5-.8-.1-.2-.3-.4-.4-.6-.2-.3,0-.6.2-.8.3-.2.6,0,.8.2,0,.2.2.3.3.5.3.3.6.7.7,1.2.3,1,.6,1.7,1.4,2.1.3.1.4.5.2.7,0,.2-.3.3-.5.3Z"/>
    <path class="st2" d="M86.3,77.9c-.9,0-1.6-.4-2.1-1.2-.5-.7-1.1-1-1.8-1s-1.1-.2-1.5-.4c-.1,0-.2,0-.3-.1h-.2c0,0,0-.3,0-.3-.2-.4-.3-.8-.4-1.2-.2-.9-.4-1.4-1-1.5-.3,0-.5-.4-.4-.7,0-.3.4-.5.7-.4,1.4.3,1.6,1.5,1.8,2.4,0,.3.1.5.2.8,0,0,0,0,.1,0,.3.1.7.3,1.1.3,1.1,0,2.1.5,2.7,1.5.4.6.8.8,1.3.7.3,0,.6.2.6.5,0,.3-.2.6-.5.6,0,0-.2,0-.3,0Z"/>
    <path class="st2" d="M99.8,70.8s0,0,0,0c-.3,0-.5-.3-.5-.6,0-.3,0-.7.1-1-.3.3-.5.6-.8.8-.2.2-.6.2-.8,0-.2-.2-.2-.5,0-.8.6-.6,1.1-1.1,1.6-1.7l.2-.2h.3c.2,0,.4,0,.5.1h.6v.7c-.3.7-.3,1.4-.4,2.1,0,.3-.3.5-.5.5Z"/>
    <path class="st2" d="M79.1,31.9c-.3,0-.6-.2-.6-.6s0-.2,0-.3c0-.3-.1-.8.2-1.2.5-.6.6-1.1-.3-1.8l-.6-.5.6-.4c.8-.5,1.1-1.3,1.1-2.3s.2-.6.6-.6.6.2.6.6c0,1.2-.4,2.2-1.1,2.8.9,1.1.5,2.1,0,2.9,0,0,0,.2,0,.4,0,.2,0,.3,0,.5,0,.3-.2.6-.6.6Z"/>
    <path class="st2" d="M76.9,36.2s0,0-.1,0c-.3,0-.5-.4-.4-.7,0-.2,0-.4,0-.6v-.4h.3c1-.6,1.4-1.5,1.8-2.6v-.2c.2-.3.5-.4.8-.3.3.1.4.4.3.7v.2c-.6,1.1-1,2.2-2.2,2.8,0,.2,0,.3,0,.5,0,.3-.3.4-.5.4Z"/>
    <path class="st2" d="M83.5,64.2c-.2,0-.4-.1-.5-.3-.6-1.2-1.4-2.2-2.7-3.3-.3.3-.5.5-.8.8-.2.2-.6.2-.8,0s-.2-.6,0-.8c.4-.4.8-.8,1.2-1.1l.4-.3.4.3c1.6,1.3,2.6,2.6,3.3,4,.1.3,0,.6-.3.7,0,0-.2,0-.2,0Z"/>
    <path class="st2" d="M88.9,33.5c0,0-.1,0-.2,0-.3-.1-.4-.4-.3-.7.5-1.1.4-2.3.3-3.2,0-.3.2-.6.5-.6.3,0,.6.2.6.5.1,1,.2,2.4-.4,3.8,0,.2-.3.3-.5.3Z"/>
    <path class="st2" d="M102.4,85.7c0,0-.2,0-.3,0-.3-.1-.4-.5-.2-.8.5-1,.5-1.2-.2-2.1v-.2c-.1,0,0-.2,0-.2.2-1.2,0-2-.7-2.7l-.4-.4.3-.3c-.1-.3-.2-.6-.3-.9-.2-.5-.3-.9-.5-1.4,0-.3,0-.6.3-.7.3,0,.6,0,.7.3.1.4.3.9.5,1.3.2.5.3.9.5,1.4l.2.5c.5.8.6,1.7.5,2.8.8,1.1.9,1.8.1,3.1-.1.2-.3.3-.5.3Z"/>
    <path class="st2" d="M87.4,34.3c-.2,0-.4-.1-.5-.4,0-.3,0-.6.3-.7,0,0,.1,0,.2,0,.1,0,.2-.1.4-.2.5-.2,1.1-.3,1.8-.2.6,0,1.1,0,1.6.2.3,0,.7.1,1,.1.3,0,.5.3.5.6,0,.3-.3.5-.6.5-.4,0-.7,0-1.1-.1-.5,0-1-.2-1.5-.2h0c-.4,0-.8,0-1.3.2,0,0,0,0-.2,0-.1,0-.2.1-.4.2,0,0-.1,0-.2,0Z"/>
    <path class="st2" d="M88.2,80c-1.4,0-1.7-1.1-1.9-1.8,0-.2-.1-.5-.2-.7l-.2-.4.6-.6c.2-.2.6-.2.8,0,.2.2.2.6,0,.8h0c0,.2,0,.3.1.5.2.8.3,1.1,1,1,.3,0,.6.2.6.5s-.2.6-.5.6c0,0-.2,0-.3,0Z"/>
    <path class="st2" d="M99.9,68.4c0,0-.1,0-.2,0-.3-.1-.4-.4-.3-.7.2-.5.4-1.4-.2-2.1-.2-.2-.1-.6.1-.8.2-.2.6-.1.8.1.7.9.8,2,.3,3.2,0,.2-.3.3-.5.3Z"/>
    <path class="st2" d="M74.3,66.7c-.3,0-.5-.2-.5-.4l-.2-1.1c0-.4-.2-.8-.4-1.3,0-.3,0-.6.3-.7s.6,0,.7.3c.2.5.3.9.4,1.4l.2,1.1c0,.3-.1.6-.4.6,0,0,0,0-.1,0Z"/>
    <path class="st2" d="M90.4,58.4c-.2,0-.4-.1-.5-.3-.2-.3-.3-.7-.4-1-.1-.3-.3-.6-.4-1-.1-.3,0-.6.3-.7.3-.1.6,0,.7.3.2.3.3.7.4,1,.1.3.3.6.4,1,.1.3,0,.6-.3.7,0,0-.1,0-.2,0Z"/>
    <path class="st2" d="M82.9,75.6c0,0-.2,0-.3,0-.3-.1-.4-.5-.2-.7.2-.4.5-.8.7-1.2.2-.4.5-.8.7-1.1.1-.3.5-.4.7-.2.3.1.4.5.2.7-.2.4-.5.8-.7,1.2-.2.4-.5.8-.7,1.2-.1.2-.3.3-.5.3Z"/>
    <path class="st2" d="M89,29.6s0,0,0,0c-.3,0-.7,0-1-.2-.3,0-.6-.1-.9-.1h-1c-.3,0-.6-.2-.6-.5s.2-.6.6-.6h1c.4,0,.7,0,1.1.2.3,0,.6.1.9.1.3,0,.5.3.5.6,0,.3-.3.5-.5.5Z"/>
    <path class="st2" d="M98.2,96.8c-.1,0-.2,0-.3,0h-.1c-.2-.2-.5-.4-.7-.7,0,0,0-.1-.1-.2-.2-.2-.5-.5-.4-.9,0-.4.5-.6.6-.7.3-.1.6,0,.7.2.1.2,0,.5-.1.6,0,0,.2.2.2.3,0,0,.2.1.3.2h.2c.3.3.3.6.2.9-.1.2-.3.2-.5.2Z"/>
    <path class="st2" d="M78.9,39c-.2,0-.4,0-.5-.3-.2-.3,0-.6.2-.8.3-.2.6-.4.8-.5.3-.2.6-.4.9-.6.3-.2.6,0,.8.2.2.3,0,.6-.2.8-.3.2-.6.4-.8.5-.3.2-.6.4-.9.6,0,0-.2,0-.3,0Z"/>
    <path class="st2" d="M88.5,36.8c0,0-.1,0-.2,0-.6-.2-1.3-.5-1.9-.8-.3-.1-.4-.5-.2-.7.1-.3.5-.4.7-.2.6.3,1.2.6,1.8.8.3.1.4.4.3.7,0,.2-.3.4-.5.4Z"/>
    <path class="st2" d="M91,36.9c-.1,0-.2,0-.3-.1-.2-.2-.3-.5,0-.8.3-.4.7-.8,1.1-1.1s.6-.2.8,0,.2.6,0,.8c-.4.4-.7.7-1,1.1-.1.1-.3.2-.4.2Z"/>
    <path class="st2" d="M91.5,37.4c-.2,0-.3,0-.4-.2-.2-.2-.2-.6,0-.8.2-.1.4-.3.5-.5.2-.2.4-.3.6-.5.2-.2.6-.2.8,0,.2.2.2.6,0,.8-.2.1-.4.3-.5.5-.2.2-.4.3-.6.5-.1,0-.2.1-.3.1Z"/>
    <path class="st2" d="M94.2,46.2c-.1,0-.2,0-.3,0l-.3-.2c-.4-.2-.7-.5-1.1-.7-.3-.2-.4-.5-.2-.8.2-.3.5-.4.8-.2.4.2.8.5,1.2.7l.3.2c.3.2.3.5.2.8-.1.2-.3.2-.5.2Z"/>
    <path class="st2" d="M78.2,61.2c-.1,0-.2,0-.3-.1-.2-.2-.3-.5,0-.8.3-.4.7-.8,1.1-1.1s.6-.2.8,0,.2.6,0,.8c-.4.4-.7.7-1,1.1-.1.1-.3.2-.4.2Z"/>
    <path class="st2" d="M99.3,60.9c-.2,0-.4,0-.5-.3-.2-.3,0-.6.2-.8.2-.1.4-.2.6-.4.2-.1.4-.3.6-.4.3-.2.6,0,.8.2.2.3,0,.6-.2.8-.2.1-.4.2-.6.4-.2.1-.4.3-.6.4,0,0-.2,0-.3,0Z"/>
    <path class="st2" d="M100.8,63.4c-.2,0-.5-.2-.5-.4v-.4c-.2,0-.4.2-.5.2-.3.2-.6,0-.8-.2-.2-.3,0-.6.2-.8.4-.2.8-.5,1.1-.6l.6-.3.5,1.7c0,.3,0,.6-.4.7,0,0-.1,0-.2,0Z"/>
    <path class="st2" d="M79,38c-.1,0-.3,0-.4-.2-.2-.2-.2-.6,0-.8s.5-.4.8-.6c0,0,.2-.1.3-.2.2-.2.6-.1.8.1.2.2.1.6-.1.8,0,0-.2.1-.3.2-.2.2-.4.3-.6.5-.1.1-.2.2-.4.2Z"/>
    <path class="st2" d="M80.1,48.6c-.1,0-.3,0-.4-.2-.2-.2-.2-.6,0-.8s.5-.4.8-.6c0,0,.2-.1.3-.2.2-.2.6-.1.8.1.2.2.1.6-.1.8,0,0-.2.1-.3.2-.2.2-.4.3-.6.5-.1.1-.2.2-.4.2Z"/>
    <path class="st2" d="M80,61.7c-.2,0-.3,0-.4-.2-.2-.2-.1-.6.1-.8.1-.1.3-.2.4-.3.2-.1.3-.3.5-.4.2-.2.6-.1.8.1.2.2.1.6-.1.8-.1.1-.3.2-.4.3-.2.1-.3.3-.5.4,0,0-.2.1-.3.1Z"/>
    <path class="st2" d="M78.8,35c-.2,0-.5-.2-.5-.4,0-.3,0-.6.4-.7l1-.3c.3,0,.6,0,.7.4,0,.3,0,.6-.4.7l-1,.3c0,0-.1,0-.2,0Z"/>
    <path class="st2" d="M96,47.9c-.2,0-.3,0-.4-.2-.1-.1-.2-.3-.3-.4-.1-.1-.2-.3-.4-.4-.2-.2-.1-.6.1-.8.2-.2.6-.1.8.1.1.1.2.3.3.4.1.1.2.3.4.4.2.2.1.6-.1.8,0,0-.2.1-.3.1Z"/>
    <path class="st2" d="M98.5,52.4c-.2,0-.5-.2-.5-.4l-.3-1c0-.3,0-.6.4-.7.3,0,.6,0,.7.4l.3,1c0,.3,0,.6-.4.7,0,0-.1,0-.2,0Z"/>
    <path class="st2" d="M83.7,36.2c0,0-.2,0-.2,0-.3-.1-.4-.5-.2-.7l.4-.7c.1-.3.5-.4.7-.2.3.1.4.5.2.7l-.4.7c0,.2-.3.3-.5.3Z"/>
    <path class="st2" d="M80.1,47.9c-.1,0-.2,0-.3,0-.3-.2-.3-.5-.2-.8.1-.2.3-.3.5-.5,0,0,.1-.1.2-.2.2-.2.6-.2.8,0,.2.2.2.6,0,.8,0,0-.2.2-.3.2-.1.1-.2.2-.3.3-.1.2-.3.2-.5.2Z"/>
    <path class="st2" d="M93.3,88.4c-.1,0-.2,0-.3,0l-.7-.4c-.3-.2-.3-.5-.2-.8.2-.3.5-.3.8-.2l.7.4c.3.2.3.5.2.8-.1.2-.3.2-.5.2Z"/>
    <path class="st2" d="M75.5,47l-.5-.5c0,0-.1,0-.2-.1,0,0-.2-.1-.3-.2-.2-.2-.2-.6,0-.8.2-.2.4-.2.6-.1,0,0,0,0,0-.1,0-.3.4-.4.7-.3.3,0,.4.4.3.7,0,.3-.2.6-.4.9l-.3.7Z"/>
    <path class="st2" d="M75.7,47c0,0-.2,0-.2,0-.3-.1-.4-.5-.2-.7l.4-.7c.1-.3.5-.4.7-.2.3.1.4.5.2.7l-.4.7c0,.2-.3.3-.5.3Z"/>
    <path class="st2" d="M102.1,56.1c-.1,0-.3,0-.4-.2-.2-.2-.2-.6,0-.8,0,0,.1-.1.2-.2,0-.1.2-.2.3-.3.2-.2.6-.2.8,0s.2.6,0,.8c0,0-.1.1-.2.2,0,.1-.2.2-.3.3-.1.1-.2.2-.4.2Z"/>
    <path class="st2" d="M79.4,36c0,0-.2,0-.2,0l-.7-.4c-.3-.1-.4-.5-.2-.7.1-.3.5-.4.7-.2l.7.4c.3.1.4.5.2.7,0,.2-.3.3-.5.3Z"/>
    <path class="st2" d="M85.9,77.1c-.1,0-.3,0-.4-.2,0,0-.2-.2-.3-.4l-.4-.8h1.2c.3,0,.6.2.6.6s0,.2,0,.3c0,.1,0,.3-.2.4-.1.1-.2.2-.4.2Z"/>
    <path class="st2" d="M92,37.6c-.1,0-.3,0-.4-.2-.2-.2-.2-.6,0-.8l.3-.3c.2-.2.6-.2.8,0s.2.6,0,.8l-.3.3c-.1.1-.2.2-.4.2Z"/>
    <path class="st2" d="M83.1,41.4c-.1,0-.3,0-.4-.2-.2-.2-.2-.6,0-.8l.3-.3c.2-.2.6-.2.8,0s.2.6,0,.8l-.3.3c-.1.1-.2.2-.4.2Z"/>
    <path class="st2" d="M85.5,69.8c-.1,0-.3,0-.4-.2-.2-.2-.2-.6,0-.8l.3-.3c.2-.2.6-.2.8,0s.2.6,0,.8l-.3.3c-.1.1-.2.2-.4.2Z"/>
    <path class="st2" d="M82.5,36.9c-.1,0-.3,0-.4-.2-.2-.2-.2-.6,0-.8l.3-.3c.2-.2.6-.2.8,0,.2.2.2.6,0,.8l-.3.3c-.1.1-.2.2-.4.2Z"/>
    <path class="st2" d="M79.4,34c-.1,0-.3,0-.4-.2-.2-.2-.2-.6,0-.8,0,0,0,0,0,0,0-.2.3-.4.5-.4s.6.2.6.6-.2.5-.3.6-.2.2-.4.2ZM79,33.2h0s0,0,0,0Z"/>
    <path class="st2" d="M92.6,36c-.1,0-.3,0-.4-.2,0,0,0,0,0,0-.2,0-.4-.3-.4-.5s.2-.6.6-.6.5.2.6.3c.2.2.2.6,0,.8-.1.1-.2.2-.4.2ZM92.4,35.9h0,0Z"/>
    <path class="st2" d="M81.8,62.8c-.1,0-.2,0-.3,0-.3-.2-.3-.5-.2-.8v-.2c.3-.3.7-.3.9-.2.3.2.3.5.2.8v.2c-.3.2-.4.2-.6.2Z"/>
    <path class="st2" d="M95.1,42.1c-.1,0-.2,0-.3,0h-.2c-.3-.3-.3-.7-.2-.9s.5-.3.8-.2h.2c.3.3.3.7.2.9-.1.2-.3.2-.5.2Z"/>
    <path class="st2" d="M85.5,44.8c-.1,0-.2,0-.3,0h-.2c-.3-.3-.3-.7-.2-.9.2-.3.5-.3.8-.2h.2c.3.3.3.7.2.9-.1.2-.3.2-.5.2Z"/>
    <g>
      <path class="st1" d="M97,47.6c-.2,0-.5-.1-.5-.4,0-.3,0-.6.4-.7,1.2-.4,2.1-1.1,3.1-1.9.5-.4.9-.7,1.4-1,.3-.2.6,0,.8.2.2.3.1.6-.2.8-.5.3-.9.6-1.4,1-1,.8-2.1,1.6-3.5,2.1,0,0-.1,0-.2,0Z"/>
      <path class="st1" d="M78,51.2c-.2,0-.4,0-.5-.2-.2-.3-.1-.6.2-.8.2-.1.4-.3.6-.4.4-.4.9-.8,1.3-1.1.6-.5,1.2-.9,1.6-1.5.2-.2.5-.3.8-.1.2.2.3.5.1.8-.5.7-1.2,1.2-1.9,1.7-.4.3-.9.6-1.2,1s-.5.4-.7.6c0,0-.2,0-.3,0Z"/>
      <path class="st1" d="M93.5,75c-.1,0-.2,0-.3-.1-.2-.2-.3-.5,0-.8.5-.6,1-1.2,1.5-1.8.5-.6,1-1.2,1.5-1.8.2-.2.5-.3.8,0,.2.2.3.5,0,.8-.5.6-1,1.2-1.5,1.8-.5.6-1,1.2-1.5,1.8-.1.1-.3.2-.4.2Z"/>
      <path class="st1" d="M100.1,58.9c-.2,0-.5-.2-.5-.4,0-.3,0-.6.4-.7,1.3-.4,2.1-.9,2.6-1.7.2-.3.5-.3.8-.2.3.2.3.5.2.8-.8,1.3-2.1,1.8-3.2,2.1,0,0-.1,0-.2,0Z"/>
      <path class="st1" d="M91.2,51.4c-.2,0-.4-.1-.5-.3-.1-.3,0-.6.2-.7l2.9-1.5c.3-.1.6,0,.7.2.1.3,0,.6-.2.7l-2.9,1.5c0,0-.2,0-.3,0Z"/>
      <path class="st1" d="M90.7,82.2c-.1,0-.2,0-.3-.1-.2-.2-.3-.5-.1-.8.4-.6.9-1.3,1.3-2,.3-.4.5-.8.8-1.3.2-.3.5-.3.8-.2.3.2.3.5.2.8-.3.4-.5.8-.8,1.2-.4.7-.9,1.4-1.3,2-.1.2-.3.2-.4.2Z"/>
      <path class="st1" d="M83.4,75.7c-.1,0-.2,0-.3,0-.3-.2-.3-.5-.2-.8l2-3.1c.2-.3.5-.3.8-.2s.3.5.2.8l-2,3.1c-.1.2-.3.3-.5.3Z"/>
      <path class="st1" d="M82.9,40.6c-.2,0-.4,0-.5-.3-.2-.3,0-.6.2-.8.2-.1.4-.3.6-.5.6-.5,1.3-1,2.3-1s.6.2.6.6-.2.6-.6.6c-.6,0-1,.4-1.6.8-.2.2-.5.4-.7.5,0,0-.2,0-.3,0Z"/>
      <path class="st1" d="M98,85.9c-.1,0-.2,0-.3,0-.3-.2-.3-.5-.2-.8.6-1,1.2-2.1,1.8-3.2l.5.2.5.3c-.6,1.1-1.2,2.2-1.9,3.3-.1.2-.3.3-.5.3Z"/>
      <path class="st1" d="M83.5,55.3c-.2,0-.4-.1-.5-.3-.1-.3,0-.6.3-.7l2.4-1c.3-.1.6,0,.7.3s0,.6-.3.7l-2.4,1c0,0-.1,0-.2,0Z"/>
      <path class="st1" d="M96.2,68.6c-.2,0-.3,0-.4-.2-.2-.2-.2-.6,0-.8l1.8-1.5c.2-.2.6-.2.8,0,.2.2.2.6,0,.8l-1.8,1.5c-.1,0-.2.1-.4.1Z"/>
      <path class="st1" d="M79,55.5c-.3,0-.6-.2-.6-.6s0-.7,0-1.1c0-.3,0-.7,0-1s.2-.6.6-.6.6.2.6.6,0,.7,0,1.1c0,.3,0,.7,0,1s-.2.6-.6.6Z"/>
      <path class="st1" d="M80.3,34.3c-.2,0-.4-.1-.5-.3-.1-.3,0-.6.3-.7.5-.2,1.1-.4,1.7-.7.3-.1.6,0,.7.3.1.3,0,.6-.3.7-.6.2-1.2.4-1.7.7,0,0-.1,0-.2,0Z"/>
      <path class="st1" d="M85.1,32.5c-.2,0-.4,0-.5-.3-.2-.3,0-.6.2-.8.2,0,.3-.2.5-.3.3-.2.6-.3.9-.5.3-.2.6-.1.8.2.2.3.1.6-.2.8-.3.2-.6.4-1,.6-.1,0-.3.2-.4.3,0,0-.2,0-.3,0Z"/>
      <path class="st1" d="M98.2,66.7c-.2,0-.3,0-.4-.2-.2-.2-.1-.6.1-.8h.2c.9-.8,1.7-1.4,2.1-2.4.1-.3.4-.4.7-.3.3.1.4.4.3.7-.5,1.3-1.5,2.1-2.4,2.8h-.2c0,.2-.2.2-.3.2Z"/>
      <path class="st1" d="M87.2,70.8c-.2,0-.4,0-.5-.3-.2-.3,0-.6.2-.8.2-.1.4-.2.6-.3.2-.1.4-.2.6-.3.3-.2.6,0,.8.2.2.3,0,.6-.2.8-.2.1-.4.2-.6.3-.2.1-.4.2-.6.3,0,0-.2,0-.3,0Z"/>
      <path class="st1" d="M85.1,68.2c-.2,0-.4,0-.5-.2-.2-.3-.1-.6.2-.8.4-.3.8-.6,1.1-.9.2-.2.6-.2.8,0,.2.2.2.6,0,.8-.4.3-.7.6-1.2.9,0,0-.2,0-.3,0Z"/>
      <path class="st1" d="M94.4,66.7c-.2,0-.3,0-.4-.2-.2-.2-.2-.6,0-.8.2-.1.4-.3.5-.5.2-.2.4-.3.6-.5.2-.2.6-.2.8,0,.2.2.2.6,0,.8-.2.1-.3.3-.5.5-.2.2-.4.3-.6.5-.1,0-.2.1-.3.1Z"/>
      <path class="st1" d="M80.1,32.2l-.3-.3c-.3-.3-.6-.6-1-.9-.2-.2-.3-.5,0-.8.2-.2.5-.3.8,0,.3.2.5.5.8.7,0,0,0,0,0,0,.2-.1.4-.2.5-.3.2-.2.6-.1.8.1.2.2.1.6-.1.8-.2.2-.4.3-.7.4-.1,0-.3.1-.4.2l-.4.2Z"/>
      <path class="st1" d="M81.9,70.7c-.1,0-.3,0-.4-.2-.2-.2-.2-.6,0-.8.2-.2.3-.3.5-.4.1-.1.3-.2.4-.4.2-.2.6-.2.8,0,.2.2.2.6,0,.8-.2.2-.3.3-.5.5-.1.1-.3.2-.4.4-.1.1-.2.2-.4.2Z"/>
      <path class="st1" d="M80.4,41.7c-.3,0-.5-.2-.5-.4,0-.3.1-.6.4-.6l1.1-.2c.3,0,.6.1.6.4s-.1.6-.4.6l-1.1.2s0,0-.1,0Z"/>
      <path class="st1" d="M97.6,64.1c-.1,0-.3,0-.4-.2-.2-.2-.2-.6,0-.8s.5-.4.8-.6c0,0,.2-.1.3-.2.2-.2.6-.1.8.1.2.2.1.6-.1.8,0,0-.2.1-.3.2-.2.1-.4.3-.6.5s-.2.2-.4.2Z"/>
      <path class="st1" d="M100.7,81.2c0,0-.2,0-.3,0-.3-.2-.3-.5-.2-.8.1-.2.3-.4.4-.6.1-.2.2-.3.3-.5.2-.3.5-.3.8-.2.3.2.3.5.2.8-.1.2-.3.4-.4.6-.1.2-.2.3-.3.5-.1.2-.3.3-.5.3Z"/>
      <path class="st1" d="M84.6,32.6s0,0-.1,0c-.3,0-.6,0-.9,0s-.6-.2-.6-.6.2-.6.6-.6.7,0,1.1,0c.3,0,.5.3.4.6,0,.3-.3.4-.5.4Z"/>
      <path class="st1" d="M81.9,31c0,0-.1,0-.2,0-.3,0-.5-.3-.6-.7,0-.3,0-.6.4-.7s.4,0,.5.1c.1,0,.3-.1.4-.1.3,0,.6.2.6.6s-.2.5-.4.5c0,0,0,0,0,0-.1.1-.4.3-.7.3ZM82.4,30.7h0,0ZM82.2,30.1h0Z"/>
      <path class="st1" d="M78,44.6s0,0-.1,0c-.3,0-.5-.4-.4-.7,0-.1,0-.3.1-.4,0,0,0-.1,0-.2-.4-.9,0-1.5.3-2,.2-.3.5-.4.8-.2.3.2.4.5.2.8-.3.5-.4.7-.2,1.1.1.4,0,.7-.1.9,0,0,0,.2,0,.2,0,.3-.3.4-.5.4Z"/>
      <path class="st1" d="M88.4,38.4c-.2,0-.4,0-.5-.2-.2-.3-.1-.6.2-.8l.7-.4c.3-.2.6-.1.8.2.2.3.1.6-.2.8l-.7.4c0,0-.2,0-.3,0Z"/>
      <path class="st1" d="M99,59.4c-.2,0-.5-.2-.5-.4,0-.3,0-.6.4-.7l.7-.2c.3,0,.6,0,.7.4,0,.3,0,.6-.4.7l-.7.2c0,0-.1,0-.2,0Z"/>
      <path class="st1" d="M92.6,86.4s0,0-.1,0c-.3,0-.5-.4-.4-.7l.4-1.8c0-.3.4-.5.7-.4.3,0,.5.4.4.7l-.4,1.8c0,.3-.3.4-.5.4Z"/>
      <path class="st1" d="M97,81.8c0,0-.2,0-.2,0-.3-.1-.4-.5-.2-.7l.4-.7c.1-.3.5-.4.7-.2.3.1.4.5.2.7l-.4.7c0,.2-.3.3-.5.3Z"/>
      <path class="st1" d="M83.4,27.4c-.1,0-.2,0-.3,0-.3-.2-.3-.5-.2-.8l.4-.7c.2-.3.5-.3.8-.2.3.2.3.5.2.8l-.4.7c-.1.2-.3.2-.5.2Z"/>
      <path class="st1" d="M93.2,65.6c-.1,0-.3,0-.4-.2-.2-.2-.2-.6,0-.8s.1-.1.2-.2c0-.1.2-.2.3-.3.2-.2.6-.2.8,0,.2.2.2.6,0,.8,0,0-.1.1-.2.2,0,.1-.2.2-.3.3s-.2.2-.4.2Z"/>
      <path class="st1" d="M95.7,91.2c-.3,0-.6-.2-.6-.6v-.6c0-.3.2-.6.6-.6s.6.2.6.6v.6c0,.3-.2.6-.6.6Z"/>
      <path class="st1" d="M83.5,70h-1.8l.7-.9c.2-.3.3-.4.5-.5,0,0,0,0,.1,0,.2-.2.6-.2.8,0,.1.1.2.3.1.5,0,0,.2.2.2.4,0,.3-.2.6-.6.6Z"/>
      <path class="st1" d="M95,64.1c-.1,0-.3,0-.4-.2-.2-.2-.2-.6,0-.8l.3-.3c.2-.2.6-.2.8,0,.2.2.2.6,0,.8l-.3.3c-.1.1-.2.2-.4.2Z"/>
      <path class="st1" d="M94.6,76.5c-.1,0-.3,0-.4-.2-.2-.2-.2-.6,0-.8l.3-.3c.2-.2.6-.2.8,0s.2.6,0,.8l-.3.3c-.1.1-.2.2-.4.2Z"/>
      <path class="st1" d="M82.9,33.1c-.1,0-.3,0-.4-.2,0,0,0,0,0,0-.2,0-.4-.3-.4-.5s.2-.6.6-.6.5.2.6.3c.2.2.2.6,0,.8-.1.1-.2.2-.4.2ZM82.7,33h0,0Z"/>
      <path class="st1" d="M93.5,78c-.1,0-.3,0-.4-.2-.2-.2-.2-.6,0-.8,0,0,0,0,0,0,0-.2.3-.4.5-.4s.6.2.6.6-.2.5-.3.6-.2.2-.4.2ZM93.1,77.2h0s0,0,0,0Z"/>
      <path class="st1" d="M84.8,46.6c-.1,0-.2,0-.3,0-.3-.2-.3-.5-.2-.8v-.2c.3-.3.7-.3.9-.2.3.2.3.5.2.8v.2c-.3.2-.4.2-.6.2Z"/>
      <path class="st1" d="M90.3,43.4c-.1,0-.3,0-.4-.2-.2-.2-.2-.6,0-.8,0,0,0,0,0,0,0-.2.3-.4.5-.4s.6.2.6.6-.2.5-.3.6-.2.2-.4.2ZM89.9,42.6h0s0,0,0,0Z"/>
      <path class="st1" d="M92.5,85.3h-.3c-.3,0-.6-.2-.6-.6s.2-.6.6-.6h.3c.3,0,.6.2.6.6s-.2.6-.6.6Z"/>
    </g>
    <path class="st2" d="M81.2,62c-.3,0-.6-.2-.6-.6s.1-.4.3-.5c0,0,.2-.2.5-.2s.6.2.6.6-.1.4-.3.5c0,0-.2.2-.5.2Z"/>
    <path class="st2" d="M88.3,56.7c-.1,0-.2,0-.3,0-.3-.2-.3-.5-.2-.8v-.2c.3-.3.7-.3.9-.2.3.2.3.5.2.8v.2c-.3.2-.4.2-.6.2Z"/>
    <path class="st2" d="M95.2,51.7c-.1,0-.2,0-.3,0-.3-.2-.3-.5-.2-.8v-.2c.3-.3.7-.3.9-.2.3.2.3.5.2.8v.2c-.3.2-.4.2-.6.2Z"/>
    <path class="st2" d="M81,73.6c-.1,0-.3,0-.4-.2-.2-.2-.2-.6,0-.8s0,0,0,0c0-.2.3-.4.5-.4s.6.2.6.6-.2.5-.3.6c-.1.1-.2.2-.4.2ZM80.5,72.8h0s0,0,0,0Z"/>
  </g>
</svg>