<?xml version="1.0" encoding="UTF-8"?>
<svg id="Layer_1" xmlns="http://www.w3.org/2000/svg" version="1.1" viewBox="0 0 120 120">
  <!-- Generator: Adobe Illustrator 29.8.1, SVG Export Plug-In . SVG Version: 2.1.1 Build 2)  -->
  <defs>
    <style>
      .st0 {
        fill: #fff;
      }

      .st1 {
        fill: #f4d1a8;
      }

      .st2 {
        fill: #caa170;
      }
    </style>
  </defs>
  <path class="st0" d="M94.1,86.9h-12.4c-.5,0-.9-.1-1.5-.1-1,0-2,0-2.8.1-.4,0-1,0-1.8,0-3.5-.2-3.7-.7-7.5-.7-.5,0-2.6,0-4.7-.9-.4-.2-.7-.3-.9-.5-.7-.5-1.2-1.2-2.1-4.5-.7-2.5-.8-3.3-.5-4.1.1-.5.4-.9.5-1.1-1.8-.9-3.7-1.8-5.5-2.6-1.4-2.3-2.7-3.9-3.5-5-.7-.9-1.2-1.5-1.4-2.6-.3-1.2.3-1.7-.1-3.1-.3-.9-.5-1-.8-2.1-.3-.9-.3-1.7-.3-2.2.3-.5.7-.9.9-1.3,0-.9,0-1.6.1-2.5.4-.5.8-1,1.1-1.6,0-.6.1-1.1.2-1.7.3-.6.7-1.4,1.3-2.4,1.4-2.4,2.2-3.7,3.5-4.9,1.7-1.4,2.4-1.2,3.3-2.5.5-.7.7-1.5,1.6-1.9.5-.3.8-.1,1.6-.5s1.4-.7,1.7-.9c1.2-.9,1-1.2,2-1.8,1-.6,2-.7,2.5-.8.9,0,1.7,0,2.2.2.3.1.7.3,1,.2.3,0,.5-.2.7-.3.5-.4,2.2-1.4,3.6-1.2.2,0,.7.1,1.1,0,.3,0,.4-.2.5-.3.7-.3,1.4.6,2.4,1,1.4.7,2-.1,3.7.4.9.3,1.6.8,2,1.1l2.4.9c1,0,1.8.2,2.2.4,1.2.5,1.4,1,2.8,1.5,1,.4,1.1.1,1.9.5,1.1.6,1.8,1.6,1.9,1.8.5.8.4,1.1.9,1.7.5.5,1.1.8,1.2.9.7.3.8.1,1.2.4.5.4.7,1,.9,1.4.3.9.1,1.6,0,2.1,2.3,1.1,3.3,2.4,3.7,3.4.7,1.6,0,2.1.8,4.7.7,2.3,1.4,2.8,1.2,4.2-.3,1.3-1.1,1.4-1,2.6,0,1.2,1,1.7.8,2.9-.1.5-.3.5-.7,1.3s-.3,1.6-.3,2.1c0,1.4.3,1.5,0,2.4,0,.3-.3.9-.8,1.5-.4.5-.7.5-1,.9-.5.6-.7,1.2-.7,1.4-.3.8-2.1,1.8-8.5,3,1.8,3,2.2,6.2.7,8.1-.3.4-.8.9-1.5,1.2h.2Z"/>
  <g>
    <path class="st2" d="M73.3,87.1s0,0,0,0c-.4,0-.9-.1-1.4-.1-.9-.1-1.8-.2-2.6-.3-1.3-.1-2.6-.3-3.9-.5-1.3-.3-2.9-.7-3.8-2.2-.8-1.3-1.3-2.6-1.6-3.8,0-.2-.1-.4-.2-.7-.4-1.4-.8-2.9,0-4.5-.3-.1-.6-.3-.9-.4-.8-.4-1.6-.7-2.4-1.1-.2-.1-.3-.4-.2-.7.1-.2.4-.3.7-.2.8.4,1.6.7,2.4,1.1.5.2.9.4,1.4.6l.5.2-.3.5c-.9,1.4-.6,2.8-.2,4.2,0,.2.1.4.2.7.3,1.1.8,2.3,1.5,3.5.6,1.1,1.9,1.5,3.1,1.7,1.2.2,2.6.3,3.8.4.8,0,1.7.2,2.6.3.4,0,1,0,1.5.1.3,0,.5.3.4.6,0,.2-.2.4-.5.4Z"/>
    <path class="st2" d="M95.7,77.9c-.2,0-.5-.2-.5-.4,0-.3.2-.5.4-.5,3-.4,5.4-1.2,7.3-2.6,0,0,0-.2,0-.3.2-.6.5-1.3,1.1-1.6,1.4-.7,1.4-1.8,1.2-3.4-.1-1-.2-2.2.6-3.3.4-.5.4-1.1.1-1.8-.4-.9-.9-2.3,0-3.6,1.1-1.7.4-3.3-.5-4.7-.1-.2,0-.5.1-.7.2-.1.5,0,.7.1,1,1.6,1.9,3.6.5,5.8-.5.8-.2,1.7.2,2.7.4,1,.3,1.9-.3,2.7-.5.8-.6,1.6-.4,2.7.1,1.4.3,3.4-1.8,4.4-.2.1-.4.7-.6,1.1,0,.1-.1.3-.2.4h0c0,.1-.1.2-.1.2-2.1,1.6-4.6,2.5-7.9,2.9,0,0,0,0,0,0ZM103.3,74.6h0,0Z"/>
    <path class="st2" d="M87.9,87.5c-2.1,0-4.3,0-6.2-.1-.3,0-.5-.2-.5-.5,0-.3.2-.5.5-.5,1.9,0,4.1.1,6.1.1s1.9,0,2.8,0c.9,0,1.9,0,2.8,0s.5.2.5.5-.2.5-.5.5c-.9,0-1.9,0-2.8,0-.9,0-1.9,0-2.8,0Z"/>
    <path class="st2" d="M48.8,57.6c-.2,0-.4-.1-.5-.3,0-.3,0-.5.3-.6.2,0,.8-.3.6-1.3-.3-1.4.3-2.6,1-3.5h0c0-.2.3-.5.3-.6-.2-1.6.6-2.8,1.5-3.9.1-.2.3-.3.4-.5.2-.2.5-.3.7-.1.2.2.3.5.1.7-.1.2-.3.4-.4.5-.8,1-1.5,1.9-1.3,3.2h0c0,.4-.2.8-.6,1.2h0c-.7,1-1,1.8-.8,2.8.2,1.2-.2,2-1.2,2.4,0,0-.1,0-.2,0Z"/>
    <path class="st2" d="M55,72.9c-.1,0-.3,0-.3-.1-.1,0-.3-.2-.4-.4-.5-.8-1.1-1.7-1.7-2.6-.9-1.3-1.8-2.6-2.6-4-.4-.6-.4-1.4-.4-2.2,0-.3,0-.5,0-.8,0-.3.2-.5.5-.5.3,0,.5.2.5.5,0,.3,0,.6,0,.9,0,.6,0,1.3.2,1.7.8,1.4,1.7,2.7,2.6,4,.6.9,1.2,1.7,1.8,2.6,0,0,0,0,0,0,0,0,0,0,.1.1.2.2.2.5,0,.7,0,0-.2.1-.3.1Z"/>
    <path class="st2" d="M94.7,87c-.2,0-.3,0-.4-.2-.1-.2,0-.5.2-.7.9-.6,1.4-1.4,1.5-2.8.1-1.6-.2-3-1.1-4.7-.1-.2,0-.5.2-.7.2-.1.5,0,.7.2.9,1.9,1.3,3.5,1.2,5.2-.2,1.7-.8,2.8-2,3.5,0,0-.2,0-.3,0Z"/>
    <path class="st2" d="M64.3,37.6c-.1,0-.2,0-.3-.1-.2-.2-.2-.5,0-.7,1.2-1.5,2.7-2.8,4.8-2.8s1.5.1,2.2.2c.4,0,.7.1,1.1.2.3,0,.5.3.4.5,0,.3-.3.5-.5.4-.4,0-.8-.1-1.1-.2-.7-.1-1.4-.2-2.1-.2-1.6,0-2.8,1-4.1,2.5,0,.1-.2.2-.4.2Z"/>
    <path class="st2" d="M88.3,36.9c0,0-.1,0-.2,0-.3-.1-.6-.2-.9-.3-.5-.1-1.1-.3-1.6-.6h-.1c-1.1-.8-2-1.4-3.1-1.4s-.7,0-1,0c-.3,0-.6,0-.9,0s-.5-.2-.5-.5.2-.5.5-.5.7,0,1,0c.3,0,.6,0,.9,0,1.5,0,2.6.7,3.7,1.4h.1c.3.3.8.5,1.3.6.3,0,.7.2,1,.3.3.1.4.4.3.6,0,.2-.3.3-.5.3Z"/>
    <path class="st2" d="M101.4,47.1s0,0,0,0c-.3,0-.5-.2-.5-.5,0-1.7-.3-2.5-1.4-2.9-1.5-.4-2.5-1.4-3-3,0-.3,0-.5.3-.6.3,0,.5,0,.6.3.4,1.3,1,2,2.3,2.3,2.2.6,2.1,3,2.1,3.8,0,.3-.2.5-.5.5Z"/>
    <path class="st2" d="M96.8,41c-.1,0-.3,0-.3-.1-.2-.2-.5-.5-.7-.8-.3-.4-.7-.9-1-1-1.6-.2-3-.8-4.6-1.9-.2-.2-.3-.5,0-.7.2-.2.5-.3.7,0,1.4,1.1,2.6,1.6,4.1,1.7.7,0,1.2.7,1.7,1.3.2.3.4.5.6.7.2.2.2.5,0,.7s-.2.1-.3.1Z"/>
    <path class="st2" d="M105.5,55.1c-.2,0-.4-.2-.5-.4-.1-.7-.3-1.4-.3-2.1.2-1.7-.4-2.9-1.7-3.8-.2-.1-.3-.5-.1-.7.1-.2.5-.3.7-.1,1.7,1.1,2.4,2.7,2.2,4.7,0,.6.1,1.2.3,1.8,0,.3-.1.5-.4.6,0,0,0,0,0,0Z"/>
    <path class="st2" d="M58,42.2c-.1,0-.3,0-.3-.1-.2-.2-.2-.5,0-.7s.3-.3.4-.4c.3-.2.6-.5.7-.8.6-1.7,1.8-2.5,3.6-2.7.3,0,.5.2.5.4,0,.3-.2.5-.4.5-1.5.1-2.3.7-2.8,2-.2.5-.6.8-1,1.2-.1.1-.3.2-.4.3s-.2.1-.3.1Z"/>
    <path class="st2" d="M72.5,35c-.2,0-.3,0-.4-.3-.1-.2,0-.5.2-.7.2-.1.4-.2.6-.3.6-.3,1.1-.7,1.8-.8.8-.2,1.7-.2,2.6-.2s.5.2.5.5-.2.5-.5.5c-.8,0-1.6,0-2.4.2-.5.1-1,.4-1.5.7-.2.1-.4.2-.6.3,0,0-.2,0-.2,0Z"/>
    <path class="st2" d="M53.4,47c0,0-.2,0-.3,0-.2-.2-.3-.5-.1-.7.2-.3.4-.6.6-.9.2-.3.4-.6.6-.8.2-.3.5-.7.7-1,.2-.3.5-.6.7-1,.2-.2.5-.3.7-.1.2.2.3.5.1.7-.2.3-.5.7-.7,1-.2.3-.5.6-.7,1-.2.3-.4.6-.6.9-.2.3-.4.5-.6.8,0,.1-.3.2-.4.2Z"/>
    <path class="st2" d="M49.9,62c-.1,0-.3,0-.3-.1-.7-.7-.8-1.5-.9-2.2,0-.4-.1-.7-.2-1-.1-.3,0-.5.3-.6.3-.1.5,0,.6.3.2.4.2.8.3,1.2.1.6.2,1.2.6,1.6.2.2.2.5,0,.7s-.2.1-.3.1Z"/>
    <path class="st2" d="M50.4,61.6c-.2,0-.4-.1-.5-.4,0-.4-.2-.7-.3-1.1,0-.3-.2-.7-.3-1,0-.3,0-.5.3-.6.3,0,.5,0,.6.3,0,.4.2.7.3,1.1,0,.3.2.7.3,1,0,.3,0,.5-.3.6,0,0,0,0-.1,0Z"/>
    <path class="st2" d="M102.2,74c0,0-.1,0-.2,0-.2-.1-.4-.4-.2-.6.1-.3.3-.6.4-.9.1-.3.3-.6.4-.9.1-.2.4-.4.6-.2.2.1.4.4.2.6-.1.3-.3.6-.4.9-.1.3-.3.6-.4.9,0,.2-.3.3-.4.3Z"/>
    <path class="st2" d="M101.7,49.2c-.2,0-.4,0-.4-.3l-.8-1.6c-.1-.2,0-.5.2-.7.2-.1.5,0,.7.2l.8,1.6c.1.2,0,.5-.2.7,0,0-.1,0-.2,0Z"/>
    <path class="st2" d="M77.6,87.4v-1c.4,0,.9-.1,1.5-.1s.5.2.5.5-.2.5-.5.5c-.5,0-1,0-1.5.1Z"/>
    <path class="st2" d="M54.1,70.3c-.2,0-.4-.1-.5-.3-.1-.3-.2-.5-.3-.8,0-.3-.2-.5-.3-.8,0-.3,0-.5.3-.6.3,0,.5,0,.6.3.1.3.2.5.3.8,0,.3.2.5.3.8,0,.3,0,.5-.3.6,0,0-.1,0-.2,0Z"/>
    <path class="st2" d="M93,40.1c0,0-.1,0-.2,0l-1.6-.8c-.2-.1-.3-.4-.2-.7.1-.2.4-.3.7-.2l1.6.8c.2.1.3.4.2.7,0,.2-.3.3-.4.3Z"/>
    <path class="st2" d="M79.3,34.1c0,0-.1,0-.2,0-.3-.1-.5-.2-.8-.3-.3-.1-.5-.2-.8-.3-.3,0-.4-.4-.3-.6,0-.3.4-.4.6-.3.3.1.5.2.8.3.3.1.5.2.8.3.3,0,.4.4.3.6,0,.2-.3.3-.5.3Z"/>
    <path class="st2" d="M105.1,63.5s0,0,0,0c-.3,0-.5-.3-.4-.5,0-.3,0-.5.1-.8,0-.3,0-.5.1-.8,0-.3.3-.5.5-.4.3,0,.5.3.4.5,0,.3,0,.5-.1.8,0,.3,0,.5-.1.8,0,.2-.2.4-.5.4Z"/>
    <path class="st2" d="M51.1,61.4c-.2,0-.5-.2-.5-.4,0-.5-.1-1.1-.1-1.6s.2-.5.5-.5.5.2.5.5c0,.5,0,1,.1,1.5,0,.3-.2.5-.4.5,0,0,0,0,0,0Z"/>
    <path class="st2" d="M72,35.9h-1.6c-.3,0-.5-.2-.5-.5s.2-.5.5-.5h1.6c.3,0,.5.2.5.5s-.2.5-.5.5Z"/>
    <path class="st2" d="M52,61.9c-.3,0-.5-.2-.5-.5v-1.3c0-.3.2-.5.5-.5s.5.2.5.5v1.3c0,.3-.2.5-.5.5Z"/>
    <path class="st2" d="M64.8,38.5c-.2,0-.3,0-.4-.2-.2-.2-.1-.5.1-.7.2-.2.4-.3.6-.5.2-.2.4-.4.7-.5.2-.2.5-.1.7.1.2.2.1.5-.1.7-.2.2-.4.3-.6.5-.2.2-.4.4-.7.5,0,0-.2,0-.3,0Z"/>
    <path class="st2" d="M87.2,38.2c0,0-.1,0-.2,0-.2,0-.4-.2-.6-.3-.2,0-.4-.2-.7-.3-.2-.1-.4-.4-.3-.6s.4-.4.6-.3c.2,0,.4.2.6.3.2,0,.4.2.7.3.2.1.4.4.3.6,0,.2-.3.3-.5.3Z"/>
    <path class="st2" d="M97,44c-.2,0-.3,0-.4-.2-.1-.2-.3-.4-.4-.6-.1-.2-.3-.4-.4-.7-.1-.2,0-.5.2-.7.2-.1.5,0,.7.2.1.2.3.4.4.6.1.2.3.4.4.7.1.2,0,.5-.2.7,0,0-.2,0-.2,0Z"/>
    <path class="st2" d="M60.9,77.1c0,0-.1,0-.2,0-.3,0-.4-.4-.3-.6l.4-1.2c0-.3.4-.4.6-.3.3,0,.4.4.3.6l-.4,1.2c0,.2-.3.3-.5.3Z"/>
    <path class="st2" d="M59.1,42.7c-.1,0-.3,0-.3-.1-.2-.2-.2-.5,0-.7l1-1c.2-.2.5-.2.7,0s.2.5,0,.7l-1,1c0,0-.2.1-.3.1Z"/>
    <path class="st2" d="M79.9,37.7c0,0-.2,0-.3,0-.1,0-.3-.2-.5-.2-.2,0-.4-.2-.6-.3-.2-.1-.3-.4-.2-.7.1-.2.4-.3.7-.2.1,0,.3.2.5.2.2,0,.4.2.6.3.2.1.3.4.2.7,0,.2-.3.2-.4.2Z"/>
    <path class="st2" d="M55.1,70.6c-.2,0-.4-.2-.5-.4s0-.3-.1-.5c0-.2-.1-.4-.1-.6,0-.3.1-.5.4-.6.3,0,.5.1.6.4,0,.2,0,.3.1.5,0,.2.1.4.1.6,0,.3-.1.5-.4.6,0,0,0,0,0,0Z"/>
    <path class="st2" d="M54.9,47.1c-.1,0-.2,0-.3-.1-.2-.2-.2-.5,0-.7.1-.2.3-.3.4-.5.1-.2.3-.4.4-.5.2-.2.5-.2.7,0,.2.2.2.5,0,.7-.1.2-.3.3-.4.5-.1.2-.3.4-.4.5,0,.1-.2.2-.4.2Z"/>
    <path class="st2" d="M95.9,46.4c-.1,0-.3,0-.3-.1l-.8-.8c-.2-.2-.2-.5,0-.7s.5-.2.7,0l.8.8c.2.2.2.5,0,.7s-.2.1-.3.1Z"/>
    <g>
      <path class="st1" d="M84.5,66.5s0,0,0,0c-.3,0-.5-.3-.4-.6v-.2c0-.4.1-.9.3-1.4.9-3.6,1.8-7.3,2.7-10.9.9-3.6,1.8-7.3,2.7-10.9,0-.3.3-.4.6-.4.3,0,.4.3.4.6-.9,3.6-1.8,7.3-2.7,10.9-.9,3.6-1.8,7.3-2.7,10.9-.1.4-.2.8-.2,1.2v.2c0,.2-.3.4-.5.4Z"/>
      <path class="st1" d="M79.6,59s0,0,0,0c-.3,0-.5-.3-.5-.5l.4-5.9c.2-4.2.4-8.3.7-12.4v-2.2c.1-.3.4-.5.6-.5.3,0,.5.2.5.5v2.2c-.3,4.1-.6,8.3-.8,12.4l-.4,5.9c0,.3-.2.5-.5.5Z"/>
      <path class="st1" d="M69.6,75.3c-.1,0-.3,0-.4-.2-3.8-4-7.7-8.1-11.7-12.1-1.4-1.4-3.1-2.6-4.6-3.7-.6-.4-1.2-.9-1.7-1.3-.2-.2-.3-.5,0-.7.2-.2.5-.3.7,0,.6.4,1.1.9,1.7,1.3,1.6,1.2,3.3,2.4,4.7,3.8,4,3.9,7.9,8.1,11.8,12.1.2.2.2.5,0,.7,0,0-.2.1-.3.1Z"/>
      <path class="st1" d="M71.7,63.1c-.2,0-.4-.1-.5-.3-.5-1.4-1-2.9-1.5-4.3-.5-1.4-1-2.9-1.5-4.3-.6-1.6-1.1-3.1-1.6-4.7-.5-1.6-1.1-3.1-1.6-4.7,0-.3,0-.5.3-.6.3,0,.5,0,.6.3.6,1.6,1.1,3.2,1.6,4.7.5,1.6,1.1,3.1,1.6,4.7.5,1.4,1,2.9,1.5,4.3.5,1.4,1,2.9,1.5,4.3,0,.3,0,.5-.3.6,0,0-.1,0-.2,0Z"/>
      <path class="st1" d="M73.8,54.8c-.2,0-.4-.2-.5-.4h0c0-.4-.1-.7-.1-1l-2-15.9c0-.3.2-.5.4-.5.3,0,.5.2.5.4l2,15.9c0,.3,0,.5,0,.7h0c0,.4-.1.7-.4.7,0,0,0,0,0,0Z"/>
      <path class="st1" d="M90.1,77.4c-.2,0-.3,0-.4-.2-.2-.2,0-.5.1-.7l14-9.4c.2-.2.5,0,.7.1.2.2,0,.5-.1.7l-14,9.4c0,0-.2,0-.3,0Z"/>
      <path class="st1" d="M73,77.6c-.2,0-.3,0-.4-.3-.2-.5-.5-1-.7-1.4-.4-.8-.8-1.6-1.2-2.4-.8-1.3-1.5-2.7-2.3-4-.8-1.3-1.5-2.7-2.3-4-.1-.2,0-.5.2-.7.2-.1.5,0,.7.2.8,1.3,1.5,2.7,2.3,4,.8,1.3,1.5,2.7,2.3,4,.5.8.9,1.6,1.3,2.4.2.5.5.9.7,1.4.1.2,0,.5-.2.7,0,0-.2,0-.2,0Z"/>
      <path class="st1" d="M89.6,67.6c0,0-.2,0-.2,0-.2-.1-.3-.4-.2-.7.7-1.2,1.3-2.4,2-3.7.7-1.2,1.3-2.5,2-3.7.4-.7.8-1.5,1.2-2.2,1.2-2.4,2.5-4.9,4.4-7,.2-.2.5-.2.7,0,.2.2.2.5,0,.7-1.8,2-3.1,4.5-4.3,6.8-.4.8-.8,1.5-1.2,2.3-.7,1.2-1.3,2.4-2,3.7-.7,1.2-1.3,2.5-2,3.7,0,.2-.3.3-.4.3Z"/>
      <path class="st1" d="M93.3,68.9c-.1,0-.3,0-.4-.1-.2-.2-.2-.5,0-.7,1.6-1.6,3.2-3.2,4.9-4.7,1.6-1.6,3.2-3.1,4.8-4.7.2-.2.5-.2.7,0,.2.2.2.5,0,.7-1.6,1.6-3.2,3.1-4.8,4.7-1.6,1.6-3.3,3.2-4.9,4.7,0,0-.2.1-.3.1Z"/>
      <path class="st1" d="M71,81.7c-.1,0-.2,0-.3-.1l-.8-.6c-1.2-.9-2.4-1.9-3.6-2.6-1-.6-2.1-1.2-3.1-1.8-.7-.4-1.3-.7-2-1.1-.2-.1-.3-.4-.2-.7s.4-.3.7-.2c.7.4,1.3.7,2,1.1,1.1.6,2.1,1.2,3.2,1.8,1.3.8,2.5,1.8,3.7,2.7l.8.6c.2.2.3.5,0,.7,0,.1-.2.2-.4.2Z"/>
      <path class="st1" d="M64.2,54.9c-.2,0-.3,0-.4-.2l-6.7-9c-.2-.2-.1-.5.1-.7.2-.2.5-.1.7.1l6.7,9c.2.2.1.5-.1.7,0,0-.2,0-.3,0Z"/>
      <path class="st1" d="M59.1,56.3c-.1,0-.3,0-.4-.2-.9-1-1.8-2-2.8-3-.9-1-1.8-2-2.8-3-.2-.2-.2-.5,0-.7.2-.2.5-.2.7,0,.9,1,1.8,2,2.8,3,.9,1,1.8,2,2.8,3,.2.2.2.5,0,.7,0,0-.2.1-.3.1Z"/>
      <path class="st1" d="M84.5,82.5c-.1,0-.3,0-.4-.2-.2-.2-.1-.5,0-.7.3-.2.6-.4.9-.6,1.5-.6,2.9-1.2,4.4-1.7,1.4-.6,2.9-1.1,4.3-1.7.3,0,.5,0,.6.3,0,.3,0,.5-.3.6-1.4.6-2.9,1.1-4.3,1.7-1.4.6-2.9,1.2-4.3,1.7-.2,0-.4.3-.7.5,0,0-.2,0-.3,0Z"/>
      <path class="st1" d="M78.8,73.2s0,0,0,0c-.3,0-.5-.3-.4-.6,0-.4.1-.9.2-1.3,0-.4.1-.9.2-1.3,0-.3.3-.4.6-.4.3,0,.5.3.4.6,0,.4-.1.9-.2,1.3,0,.4-.1.9-.2,1.3,0,.2-.2.4-.5.4Z"/>
      <path class="st1" d="M88,71.3c0,0-.1,0-.2,0-.2-.1-.4-.4-.2-.6.1-.3.3-.6.4-.9.1-.3.3-.6.4-.9.1-.2.4-.4.6-.2.2.1.4.4.2.6-.1.3-.3.6-.4.9-.1.3-.3.6-.4.9,0,.2-.3.3-.4.3Z"/>
      <path class="st1" d="M78.3,81.8s0,0,0,0c-.3,0-.5-.3-.4-.5,0-.5.1-1,.1-1.5s.2-.5.5-.5.5.2.5.5c0,.6,0,1.1-.1,1.6,0,.2-.2.4-.5.4Z"/>
      <path class="st1" d="M79.3,67.1s0,0,0,0c-.3,0-.5-.3-.4-.5,0-.5.1-1,.1-1.5s.2-.5.5-.5.5.2.5.5c0,.6,0,1.1-.1,1.6,0,.2-.2.4-.5.4Z"/>
      <path class="st1" d="M85.1,75.8c0,0-.2,0-.2,0-.2-.1-.3-.4-.2-.7.1-.2.3-.5.4-.7.1-.2.3-.4.4-.6.1-.2.4-.3.7-.2.2.1.3.4.2.7-.1.2-.3.5-.4.7-.1.2-.3.4-.4.6,0,.2-.3.2-.4.2Z"/>
      <path class="st1" d="M82.5,72.4s0,0,0,0c-.3,0-.5-.3-.4-.6,0-.2,0-.5.1-.7,0-.2,0-.4.1-.6,0-.3.3-.5.6-.4.3,0,.5.3.4.6,0,.2,0,.5-.1.7,0,.2,0,.4-.1.6,0,.2-.2.4-.5.4Z"/>
      <path class="st1" d="M90.9,71.6c0,0-.2,0-.3,0-.2-.2-.3-.5-.1-.7.2-.2.4-.5.6-.7.2-.2.3-.4.5-.6.2-.2.5-.3.7-.1.2.2.3.5.1.7-.2.2-.4.5-.5.7-.2.2-.3.4-.5.6,0,.1-.2.2-.4.2Z"/>
      <path class="st1" d="M81.4,75.5c-.1,0-.2,0-.3-.1-.2-.2-.2-.5,0-.7.1-.2.3-.3.4-.5.1-.2.3-.4.4-.5.2-.2.5-.2.7,0s.2.5,0,.7c-.1.2-.3.3-.4.5-.1.2-.3.4-.4.5,0,.1-.2.2-.4.2Z"/>
      <path class="st1" d="M84.8,81.3c-.1,0-.3,0-.3-.1-.2-.2-.2-.5,0-.7l1-1c.2-.2.5-.2.7,0s.2.5,0,.7l-1,1c0,0-.2.1-.3.1Z"/>
      <path class="st1" d="M72.4,79.1c-.2,0-.4,0-.4-.3,0-.2-.2-.4-.3-.6-.1-.2-.2-.4-.3-.6s0-.5.2-.7c.2-.1.5,0,.7.2,0,.2.2.4.3.6.1.2.2.4.3.6s0,.5-.2.7c0,0-.1,0-.2,0Z"/>
      <path class="st1" d="M73,83.1c-.1,0-.2,0-.3-.1-.2-.2-.4-.3-.6-.4-.2-.2-.4-.3-.6-.5-.2-.2-.2-.5,0-.7.2-.2.5-.2.7,0,.2.2.4.3.6.4.2.2.4.3.6.5.2.2.2.5,0,.7,0,.1-.2.2-.4.2Z"/>
      <path class="st1" d="M83.5,69c0,0-.2,0-.3,0-.2-.1-.3-.4-.2-.7,0-.1.2-.3.2-.5,0-.2.2-.4.3-.6.1-.2.4-.3.7-.2.2.1.3.4.2.7,0,.1-.2.3-.2.5,0,.2-.2.4-.3.6s-.3.2-.4.2Z"/>
      <path class="st1" d="M87.5,79.5c-.2,0-.4-.2-.5-.4,0-.3.1-.5.4-.6h.1c.3,0,.6-.1.9-.1s.5.2.5.5-.2.5-.5.5-.4,0-.7,0h-.1s0,0,0,0Z"/>
      <path class="st1" d="M62.5,60.9c-.2,0-.3,0-.4-.2,0-.1-.2-.3-.3-.4-.1-.2-.3-.3-.4-.5-.1-.2,0-.5.2-.7.2-.1.5,0,.7.2,0,.1.2.3.3.4.1.2.3.3.4.5.1.2,0,.5-.2.7,0,0-.2,0-.3,0Z"/>
    </g>
    <path class="st2" d="M102.9,48.6c0,0-.2,0-.3,0-.2,0-.3-.2-.4-.3-.2,0-.3-.2-.5-.3-.2-.1-.3-.4-.2-.7.1-.2.4-.3.7-.2.2,0,.3.2.4.3.2,0,.3.2.5.3.2.1.3.4.2.7,0,.2-.3.2-.4.2Z"/>
    <path class="st2" d="M79.3,35.3c-.1,0-.2,0-.3,0-.1,0-.2-.2-.4-.2-.1,0-.3-.2-.4-.3-.2-.2-.3-.5,0-.7.2-.2.5-.3.7,0,.1,0,.2.2.4.2.1,0,.3.2.4.3.2.2.3.5,0,.7,0,.1-.2.2-.4.2Z"/>
    <path class="st2" d="M96.1,44.8c-.1,0-.2,0-.3,0-.1,0-.2-.2-.4-.2-.1,0-.3-.2-.4-.3-.2-.2-.3-.5,0-.7.2-.2.5-.3.7,0,.1,0,.2.2.4.2.1,0,.3.2.4.3.2.2.3.5,0,.7,0,.1-.2.2-.4.2Z"/>
    <path class="st2" d="M95.1,47.7c-.1,0-.3,0-.3-.1l-.5-.5c-.2-.2-.2-.5,0-.7s.5-.2.7,0l.5.5c.2.2.2.5,0,.7s-.2.1-.3.1Z"/>
    <path class="st2" d="M72.3,39.7c-.2,0-.3,0-.4-.2-.2-.2,0-.5.1-.7,0,0,.2-.1.2-.2,0,0,.2-.1.3-.2.2-.1.5,0,.7.1.2.2,0,.5-.1.7,0,0-.2.1-.2.2,0,0-.2.1-.3.2,0,0-.2,0-.3,0Z"/>
    <path class="st2" d="M91.9,41.4c0,0-.1,0-.2,0-.1,0-.3-.1-.4-.2,0,0-.1,0-.2,0-.3,0-.4-.4-.3-.6,0-.3.4-.4.6-.3.1,0,.3.1.4.2,0,0,.1,0,.2,0,.3,0,.4.4.3.6,0,.2-.3.3-.5.3Z"/>
    <path class="st2" d="M101.6,73.6c-.1,0-.3,0-.3-.1-.2-.2-.2-.5,0-.7l.4-.4c.2-.2.5-.2.7,0,.2.2.2.5,0,.7l-.4.4c0,0-.2.1-.3.1Z"/>
    <path class="st2" d="M56.2,47.4c0,0-.1,0-.2,0-.3,0-.4-.4-.3-.6,0-.1.1-.3.2-.4,0,0,0-.1,0-.2,0-.3.4-.4.6-.3.3,0,.4.4.3.6,0,.1-.1.3-.2.4,0,0,0,.1,0,.2,0,.2-.3.3-.5.3Z"/>
    <path class="st2" d="M79.9,41.4c-.1,0-.3,0-.3-.1l-.3-.3c-.2-.2-.2-.5,0-.7.2-.2.5-.2.7,0l.3.3c.2.2.2.5,0,.7,0,0-.2.1-.3.1Z"/>
    <path class="st2" d="M86.4,41.6c-.1,0-.3,0-.3-.1l-.3-.3c-.2-.2-.2-.5,0-.7.2-.2.5-.2.7,0l.3.3c.2.2.2.5,0,.7,0,0-.2.1-.3.1Z"/>
    <path class="st2" d="M86.4,42.7c-.1,0-.3,0-.3-.1l-.3-.3c-.2-.2-.2-.5,0-.7.2-.2.5-.2.7,0l.3.3c.2.2.2.5,0,.7,0,0-.2.1-.3.1Z"/>
    <path class="st2" d="M60.4,43.5c-.1,0-.3,0-.3-.1-.2-.2-.2-.5,0-.7l.3-.3c.2-.2.5-.2.7,0s.2.5,0,.7l-.3.3c0,0-.2.1-.3.1Z"/>
    <path class="st2" d="M61.2,44.3c-.1,0-.3,0-.3-.1-.2-.2-.2-.5,0-.7l.3-.3c.2-.2.5-.2.7,0,.2.2.2.5,0,.7l-.3.3c0,0-.2.1-.3.1Z"/>
    <path class="st2" d="M100.9,59.7c-.1,0-.3,0-.3-.1-.2-.2-.2-.5,0-.7l.3-.3c.2-.2.5-.2.7,0,.2.2.2.5,0,.7l-.3.3c0,0-.2.1-.3.1Z"/>
    <path class="st2" d="M91.9,80c-.2,0-.4,0-.4-.3,0,0,0,0,0-.1,0,0-.1-.2-.2-.3-.1-.2,0-.5.2-.7.2-.1.5,0,.7.2,0,0,0,0,0,.1,0,0,.1.2.2.3.1.2,0,.5-.2.7,0,0-.1,0-.2,0Z"/>
    <path class="st2" d="M93,79.7c-.2,0-.4,0-.4-.3,0-.2-.2-.4-.2-.6s.2-.5.5-.5.5.2.5.5c0,0,0,.1,0,.2.1.2,0,.5-.2.7,0,0-.1,0-.2,0ZM93.3,78.9h0,0Z"/>
    <path class="st2" d="M68.3,75.5c-.1,0-.3,0-.3-.1l-.3-.3c-.2-.2-.2-.5,0-.7.2-.2.5-.2.7,0l.3.3c.2.2.2.5,0,.7,0,0-.2.1-.3.1Z"/>
    <path class="st2" d="M74.9,61.1c-.1,0-.3,0-.3-.1-.2-.2-.2-.5,0-.7l.3-.3c.2-.2.5-.2.7,0,.2.2.2.5,0,.7l-.3.3c0,0-.2.1-.3.1Z"/>
    <path class="st2" d="M62,73.2c-.1,0-.3,0-.3-.1l-.3-.3c-.2-.2-.2-.5,0-.7s.5-.2.7,0l.3.3c.2.2.2.5,0,.7,0,0-.2.1-.3.1Z"/>
    <path class="st2" d="M56.2,70.6c-.1,0-.3,0-.3-.1l-.3-.3c-.2-.2-.2-.5,0-.7.2-.2.5-.2.7,0l.3.3c.2.2.2.5,0,.7s-.2.1-.3.1Z"/>
    <path class="st2" d="M60.7,52.4c-.1,0-.3,0-.3-.1l-.3-.3c-.2-.2-.2-.5,0-.7s.5-.2.7,0l.3.3c.2.2.2.5,0,.7s-.2.1-.3.1Z"/>
  </g>
</svg>