<?xml version="1.0" encoding="UTF-8"?>
<svg id="Layer_1" xmlns="http://www.w3.org/2000/svg" version="1.1" viewBox="0 0 120 120">
  <!-- Generator: Adobe Illustrator 29.8.1, SVG Export Plug-In . SVG Version: 2.1.1 Build 2)  -->
  <defs>
    <style>
      .st0 {
        fill: #fff;
      }

      .st1 {
        fill: #f4d1a8;
      }

      .st2 {
        fill: #caa170;
      }
    </style>
  </defs>
  <path class="st0" d="M81,81.4c.8.5,1.9,1.1,3.4,1.5,1.8.5,3.3.5,4.8.5,1.4,0,2.9,0,4.8-.5,1.4-.4,3.8-1.2,6.3-3.4.5-.5,1.2-1.2,1.7-2.3.4-.7.6-1.2,1.1-3.2.8-2.7,1.2-4.1,1.3-4.7.3-1.9.4-3.3.4-3.7,0-1,0-2.1-.3-3.9-.2-1.3-.5-4.1-1.2-6.1-1.2-3.9-3.6-6.7-5.4-8.7-4.1-4.5-9.8-10.6-19.5-12.1-10.1-1.7-18.1,2.7-20.7,4.3-3.4,2.1-5.4,4.3-5.9,4.9-2,2.3-6.8,8.4-6.6,17.1.1,5.1,1.9,8.8,2.6,10.4.9,1.8,3.3,6.7,8.9,10.3,5.9,3.8,12,4.1,13.5,3.7.1,0,1.1-.3,2.5-.4,1-.1,1.7-.1,1.9-.1,1.1,0,3-.7,6.3-3.7h0Z"/>
  <g>
    <path class="st2" d="M69.1,86.1c-1.7,0-3.4-.2-5.2-.7-6.5-1.7-11.5-5.3-14.8-10.6-.1-.2,0-.5.2-.7.2-.1.5,0,.7.2,3.1,5.1,7.9,8.5,14.2,10.2,2.8.8,5.7.9,8.4.3.3,0,.5.1.6.4s-.1.5-.4.6c-1.2.2-2.5.4-3.7.4Z"/>
    <path class="st2" d="M47.2,70.7c-.2,0-.4-.1-.4-.3-1.9-4.3-2.4-8.8-1.5-13.4.6-3.4,1.9-6.8,3.9-10,.1-.2.4-.3.7-.2.2.1.3.4.2.7-1.9,3.2-3.2,6.5-3.8,9.7-.8,4.4-.3,8.7,1.5,12.8.1.2,0,.5-.3.6,0,0-.1,0-.2,0Z"/>
    <path class="st2" d="M98.9,48.4c-.1,0-.3,0-.4-.2-.5-.5-.9-1-1.4-1.6-.9-1.1-1.9-2.1-2.9-3.1-4.4-4.1-9.5-6.9-15.3-8.3-.3,0-.4-.3-.4-.6,0-.3.3-.4.6-.4,5.9,1.4,11.2,4.3,15.7,8.5,1.1,1,2,2.1,3,3.2.5.5.9,1,1.4,1.6.2.2.2.5,0,.7,0,0-.2.1-.3.1Z"/>
    <path class="st2" d="M102.6,77.2l-1-.2c0-.3.1-.7.3-1.1,1.3-3.3,2.6-7.2,2.5-11.4,0-1.6-.3-3.3-.6-5-.1-.7-.2-1.4-.3-2.2,0-.3.2-.5.4-.5.3,0,.5.2.5.4,0,.7.2,1.4.3,2.1.3,1.7.5,3.4.6,5.1.1,4.4-1.2,8.4-2.6,11.8-.1.3-.2.6-.2.9Z"/>
    <path class="st2" d="M53.3,43c-.1,0-.3,0-.4-.2-.2-.2-.1-.5,0-.7.2-.1.3-.2.5-.3.4-.3.8-.6,1.1-.9,2.1-1.8,4.3-3.2,6.7-4.3,3.8-1.7,7.6-2.6,11.7-2.8.3,0,.5.2.5.5,0,.3-.2.5-.5.5-4,.1-7.7,1-11.3,2.7-2.3,1-4.5,2.4-6.5,4.1-.4.3-.8.6-1.2.9-.2.1-.3.2-.5.3,0,0-.2,0-.3,0Z"/>
    <path class="st2" d="M89.7,83.8c-1.3,0-2.6,0-3.9-.2h0c-.3,0-.6,0-.9-.1-.2,0-.4,0-.6-.1-.3,0-.5-.3-.4-.5,0-.3.3-.5.5-.4.2,0,.4,0,.7.1.3,0,.5.1.8.1,3.8.3,7.1.5,10.3-1.2.9-.5,1.8-1.1,2.7-1.7.4-.3.8-.5,1.2-.8.2-.1.5,0,.7.1.1.2,0,.5-.1.7-.4.2-.8.5-1.2.8-.9.6-1.9,1.3-2.8,1.8-2.2,1.2-4.5,1.5-6.9,1.5Z"/>
    <path class="st2" d="M75.7,85.1c-.2,0-.4-.1-.4-.3-.1-.2,0-.5.2-.6.3-.1.6-.3.8-.4.7-.3,1.3-.6,2-1,.6-.3,1.1-.7,1.6-1.2.3-.2.5-.4.8-.7.2-.2.5-.1.7,0,.2.2.1.5,0,.7-.3.2-.5.4-.8.6-.5.4-1.1.9-1.7,1.3-.7.4-1.4.7-2,1-.3.1-.6.2-.8.4,0,0-.1,0-.2,0Z"/>
    <path class="st2" d="M89,82.7s0,0,0,0c-.6,0-1.2,0-1.8-.1-.6,0-1.1,0-1.7-.1-.3,0-.5-.2-.5-.5,0-.3.2-.5.5-.5.6,0,1.2,0,1.8.1.6,0,1.2,0,1.7.1.3,0,.5.2.5.5,0,.3-.2.5-.5.5Z"/>
    <path class="st2" d="M88.4,80.5s0,0,0,0c-1-.1-2.1-.4-3-.5s-.4-.3-.4-.6.3-.4.6-.4c.8.2,1.9.4,2.9.5.3,0,.5.3.4.5,0,.2-.2.4-.5.4Z"/>
    <path class="st2" d="M100.3,76.3c-.1,0-.3,0-.4-.2-.2-.2-.1-.5,0-.7.3-.2.5-.4.8-.6.3-.2.5-.3.8-.5.2-.2.5-.1.7,0,.2.2.1.5,0,.7-.3.2-.6.4-.8.6-.3.2-.5.3-.8.5,0,0-.2,0-.3,0Z"/>
    <path class="st2" d="M88.9,81.9s0,0,0,0c-.3,0-.6,0-.9-.1-.3,0-.7-.1-1-.1-.3,0-.5-.3-.4-.5s.3-.5.5-.4c.4,0,.7,0,1.1.1.3,0,.6,0,.8.1.3,0,.5.3.4.5,0,.2-.2.4-.5.4Z"/>
    <path class="st2" d="M62.2,57.6c-.1,0-.2,0-.3-.1-.2-.2-.4-.4-.7-.5-.2-.2-.5-.4-.7-.6-.2-.2-.2-.5,0-.7.2-.2.5-.2.7,0,.2.2.4.4.7.5.2.2.5.4.7.6.2.2.2.5,0,.7,0,.1-.2.2-.4.2Z"/>
    <path class="st2" d="M99.8,77.9c-.2,0-.3,0-.4-.3-.1-.2,0-.5.2-.7l1.6-.8c.2-.1.5,0,.7.2.1.2,0,.5-.2.7l-1.6.8c0,0-.1,0-.2,0Z"/>
    <g>
      <path class="st1" d="M85.2,60c-.2,0-.3,0-.4-.2-2.8-4.4-6.4-6.8-11.1-7.3-.2,0-.5,0-.7-.2-.1,0-.2,0-.3,0-.3,0-.4-.3-.4-.6,0-.3.3-.4.6-.4.2,0,.3,0,.5.1.2,0,.3.1.4.1,5.1.6,8.9,3.1,11.9,7.8.1.2,0,.5-.1.7,0,0-.2,0-.3,0Z"/>
      <path class="st1" d="M57.8,57.8c-.1,0-.2,0-.3-.1-.2-.2-.2-.5,0-.7.3-.3.5-.5.7-.8.2-.3.5-.6.8-.8,2.3-2.3,5.2-3.6,8.9-4.1,0,0,.1,0,.2,0,.4,0,1.4-.3,1.7.9,0,.3-.1.5-.4.6-.3,0-.5-.1-.6-.4,0-.3,0-.3-.6-.2,0,0-.2,0-.3,0-3.5.5-6.3,1.7-8.4,3.9s-.5.5-.7.8c-.2.3-.5.6-.8.8,0,0-.2.1-.3.1Z"/>
      <path class="st1" d="M60,77.3c-.1,0-.2,0-.3-.1-3.2-3-4.9-6.4-5.4-10.3,0-.3.2-.5.4-.5.3,0,.5.2.5.4.5,3.7,2.2,6.9,5.2,9.7.2.2.2.5,0,.7,0,0-.2.1-.4.1Z"/>
      <path class="st1" d="M68.7,79.8c-.4,0-.7,0-1.1,0-.4,0-.7,0-1.1,0-.7,0-1.4-.2-2.1-.3-.3,0-.5-.1-.8-.2-.3,0-.4-.3-.4-.6,0-.3.3-.4.6-.4.3,0,.5.1.8.2.6.2,1.2.3,1.8.3s.7,0,1.1,0c2,0,3.9,0,5.5-1.3.2-.2.5-.1.7,0s.1.5,0,.7c-1.6,1.3-3.3,1.5-5,1.5Z"/>
      <path class="st1" d="M62,72.7c-.2,0-.4-.1-.5-.3-.6-1.5-.5-3,.3-4.2.7-1.1,2-1.7,3.5-1.7s3.4.9,4.6,2.8c.1.2,0,.5-.2.7-.2.1-.5,0-.7-.2-1-1.6-2.2-2.4-3.8-2.4s-2.2.4-2.7,1.3c-.6.9-.6,2-.2,3.3,0,.2,0,.5-.3.6,0,0-.1,0-.2,0Z"/>
      <path class="st1" d="M76.9,72.2c-.3,0-.5-.2-.5-.5,0-4.6-1.4-6.7-5.2-8.2-1.5-.5-2.7-.8-4-.5-.3,0-.5,0-.6-.3,0-.3,0-.5.3-.6,1.7-.4,3.3,0,4.6.5,4.3,1.6,5.9,4.1,5.9,9.1s-.2.5-.5.5Z"/>
      <path class="st1" d="M87.4,71.6s0,0,0,0c-.3,0-.4-.3-.4-.5,0-.4.1-.9.1-1.3h0c.3-2.2.1-4.2-.6-5.9-.1-.2,0-.5.3-.6.2-.1.5,0,.6.3.8,1.9,1,4,.7,6.3,0,.5,0,.9-.1,1.4,0,.2-.2.4-.5.4Z"/>
      <path class="st1" d="M66.1,77.2c-1.7,0-3.2-.6-4.2-1.8-.2-.2-.1-.5,0-.7.2-.2.5-.1.7,0,1,1.2,2.4,1.4,3.4,1.4,1.9,0,3.2-.7,3.6-4.2,0-.3,0-.7-.1-1.1,0-.3.1-.5.4-.6.3,0,.5.1.6.4,0,.4.1.9.1,1.3-.4,3.6-1.8,5.1-4.6,5.1Z"/>
      <path class="st1" d="M66.1,74.6c-.1,0-.2,0-.3-.1-.2-.2-.2-.5,0-.7.6-.7.9-1.2.8-1.5,0-.3-.4-.5-1.1-.9-.2-.1-.3-.4-.2-.7.1-.2.4-.3.7-.2.7.3,1.4.8,1.6,1.6.2.8-.4,1.6-1,2.3,0,.1-.2.2-.4.2Z"/>
      <path class="st1" d="M61.1,74.3c-.1,0-.3,0-.4-.2-1.3-1.6-1.7-3.5-1.3-5.9,0-.3.3-.4.6-.4.3,0,.4.3.4.6-.3,2.2,0,3.8,1.1,5.2.2.2.1.5,0,.7,0,0-.2.1-.3.1Z"/>
      <path class="st1" d="M59.8,68.4c0,0-.2,0-.2,0-.2-.1-.3-.4-.2-.7.2-.5.5-.9.7-1.4.1-.3.3-.6.4-.9l.3-.7.5.6c.2.2.2.3.3.5,0,0,0,.1,0,.1.2.2.2.5,0,.7-.2.2-.5.2-.7,0,0,0,0,0,0,0,0,0,0,.1,0,.2-.3.5-.5,1-.7,1.5,0,.2-.3.3-.4.3Z"/>
      <path class="st1" d="M73.9,78.8c0,0-.1,0-.2,0-.2,0-.5-.2-.5-.2l-.5-.3.3-.5c.3-.4.5-.7.7-.9.2-.2.3-.4.5-.6.2-.2.5-.3.7-.1.2.2.3.5.1.7-.2.2-.3.4-.5.7,0,.1-.2.3-.3.4.2.1.2.3.2.5s-.3.3-.5.3Z"/>
      <path class="st1" d="M61,65.9c0,0-.1,0-.2,0-.3,0-.4-.4-.3-.6,0-.2.2-.5.3-.7.1-.4.3-.8.4-1.1,0-.3.3-.4.6-.3.3,0,.4.3.3.6-.1.4-.3.8-.4,1.2,0,.2-.2.5-.2.7,0,.2-.3.3-.5.3Z"/>
    </g>
    <path class="st2" d="M100,54.6s0,0,0,0c-.3,0-.4-.3-.4-.5,0-.2,0-.5.1-.7,0-.2,0-.4.1-.6,0-.3.3-.5.5-.4.3,0,.4.3.4.5,0,.2,0,.5-.1.7,0,.2,0,.4-.1.6,0,.2-.2.4-.5.4Z"/>
    <path class="st2" d="M97.3,50.8s0,0,0,0c-.3,0-.4-.3-.4-.5,0-.2,0-.5.1-.7,0-.2,0-.4.1-.6,0-.3.3-.4.5-.4.3,0,.4.3.4.5,0,.2,0,.5-.1.7,0,.2,0,.4-.1.6,0,.2-.2.4-.5.4Z"/>
    <path class="st2" d="M49.9,52.6c-.1,0-.2,0-.3-.1-.2-.2-.4-.3-.6-.5-.2-.2-.4-.3-.6-.5-.2-.2-.2-.5,0-.7.2-.2.5-.2.7,0,.2.2.4.3.6.5.2.2.4.3.6.5.2.2.2.5,0,.7,0,.1-.2.2-.4.2Z"/>
    <path class="st2" d="M54.9,46.8c-.1,0-.2,0-.3-.1-.4-.3-.7-.6-1.1-.8-.2-.1-.3-.4-.1-.7.1-.2.4-.3.7-.1.4.3.7.5,1.1.9.2.2.2.5,0,.7,0,.1-.2.2-.4.2Z"/>
    <path class="st2" d="M78.1,74.6h-1.1c-.3,0-.5-.2-.5-.5s.2-.5.5-.5h1.1c.3,0,.5.2.5.5s-.2.5-.5.5Z"/>
    <path class="st2" d="M101.3,56.2s0,0,0,0c-.3,0-.4-.3-.4-.6v-.2c0-.3.1-.6.1-.9s.2-.5.5-.5.5.2.5.5,0,.7-.1,1h0c0,.4-.2.6-.5.6Z"/>
    <path class="st2" d="M76.5,67.9c-.2,0-.4-.2-.5-.4,0-.3.1-.5.4-.6.2,0,.3,0,.5-.1.2,0,.4-.1.6-.1.3,0,.5.1.6.4,0,.3-.1.5-.4.6-.2,0-.3,0-.5.1-.2,0-.4.1-.6.1,0,0,0,0,0,0Z"/>
    <path class="st2" d="M98.5,52.3c0,0-.1,0-.2,0-.2,0-.4-.4-.3-.6l.4-1c0-.2.4-.4.6-.3.2,0,.4.4.3.6l-.4,1c0,.2-.3.3-.4.3Z"/>
    <path class="st2" d="M77.6,75.9s0,0,0,0c-.2,0-.4,0-.6-.1-.2,0-.3,0-.5-.1-.3,0-.4-.3-.4-.6,0-.3.3-.4.6-.4.2,0,.4,0,.6.1.2,0,.3,0,.5.1.3,0,.4.3.4.6,0,.2-.2.4-.5.4Z"/>
    <path class="st2" d="M87.9,77.7c-.4,0-.7,0-1-.1h-.2c-.3,0-.4-.3-.4-.6,0-.3.3-.4.6-.4h.2c.3,0,.6.1.9.1s.5.2.5.5-.2.5-.5.5Z"/>
    <path class="st2" d="M87.4,79.2s0,0,0,0c-.2,0-.4,0-.6-.1-.2,0-.3,0-.5-.1-.3,0-.4-.3-.4-.6,0-.3.3-.4.6-.4.2,0,.4,0,.6.1.2,0,.3,0,.5.1.3,0,.4.3.4.6,0,.2-.2.4-.5.4Z"/>
    <path class="st2" d="M48.7,55.1c-.1,0-.2,0-.3-.1-.4-.3-.7-.6-1.1-.8-.2-.1-.3-.4-.1-.7.1-.2.4-.3.7-.1.4.3.7.5,1.1.9.2.2.2.5,0,.7,0,.1-.2.2-.4.2Z"/>
    <path class="st2" d="M48.1,58.1c0,0-.1,0-.2,0-.3-.1-.6-.2-.9-.4h-.3c-.2-.3-.3-.6-.2-.8.1-.2.4-.3.6-.2l.3.2c.3.1.5.3.7.3.3,0,.4.4.3.6,0,.2-.3.3-.5.3Z"/>
    <path class="st2" d="M60.9,58.4c-.1,0-.2,0-.3-.1-.4-.3-.7-.6-1.1-.8-.2-.1-.3-.4-.1-.7.1-.2.4-.3.7-.1.4.3.7.5,1.1.9.2.2.2.5,0,.7,0,.1-.2.2-.4.2Z"/>
    <path class="st2" d="M58.7,61.7c-.1,0-.2,0-.3-.1l-.8-.8c-.2-.2-.2-.5,0-.7s.5-.2.7,0l.8.8c.2.2.2.5,0,.7s-.2.1-.3.1Z"/>
    <path class="st2" d="M59.5,59.8c-.1,0-.2,0-.3-.1l-.8-.8c-.2-.2-.2-.5,0-.7s.5-.2.7,0l.8.8c.2.2.2.5,0,.7s-.2.1-.3.1Z"/>
    <path class="st2" d="M52.7,48.4c-.1,0-.2,0-.3-.1l-.8-.8c-.2-.2-.2-.5,0-.7s.5-.2.7,0l.8.8c.2.2.2.5,0,.7s-.2.1-.3.1Z"/>
    <path class="st2" d="M78.4,71.9h-.8c-.3,0-.5-.2-.5-.5s.2-.5.5-.5h.8c.3,0,.5.2.5.5s-.2.5-.5.5Z"/>
    <path class="st2" d="M57.9,62.7c0,0-.1,0-.2,0-.4-.2-.7-.4-1-.6-.2-.2-.3-.5,0-.7.2-.2.5-.3.7,0,.2.2.5.3.7.5.2,0,.4.4.3.6,0,.2-.3.3-.4.3Z"/>
    <path class="st2" d="M65.7,54.3c-.1,0-.2,0-.3-.1l-.5-.5c-.2-.2-.2-.5,0-.7s.5-.2.7,0l.5.5c.2.2.2.5,0,.7,0,0-.2.1-.3.1Z"/>
    <path class="st2" d="M77.2,68.8c-.2,0-.4-.1-.5-.3,0-.3,0-.5.3-.6.2,0,.5-.2.8-.2s.5.2.5.5-.2.5-.5.5-.3,0-.5.1c0,0-.1,0-.2,0Z"/>
    <path class="st2" d="M64.6,54.8c-.1,0-.2,0-.3-.1l-.5-.5c-.2-.2-.2-.5,0-.7s.5-.2.7,0l.5.5c.2.2.2.5,0,.7s-.2.1-.3.1Z"/>
    <path class="st2" d="M68.4,64.1c-.2,0-.3,0-.4-.3-.1-.2,0-.5.2-.6,0,0,0,0,.1,0,.1,0,.3-.2.5-.2.3,0,.5,0,.6.3,0,.3,0,.5-.3.6-.1,0-.2,0-.3.1,0,0-.1,0-.2,0,0,0-.1,0-.2,0Z"/>
    <path class="st2" d="M50.8,50.2c-.1,0-.2,0-.3-.1l-.5-.5c-.2-.2-.2-.5,0-.7s.5-.2.7,0l.5.5c.2.2.2.5,0,.7,0,0-.2.1-.3.1Z"/>
    <path class="st2" d="M60.5,69c0,0-.2,0-.3,0-.4-.3-.9-.6-1.3-.8-.2-.1-.3-.4-.2-.7.1-.2.4-.3.7-.2.5.3.9.5,1.4.9.2.2.3.5.1.7,0,.1-.2.2-.4.2Z"/>
    <path class="st2" d="M61.4,39.7c-.2,0-.3,0-.4-.3,0,0,0,0,0-.1,0-.1-.2-.3-.2-.5,0-.3,0-.5.3-.6.3,0,.5,0,.6.3,0,.1,0,.2.1.3,0,0,0,.1,0,.2.1.2,0,.5-.2.7,0,0-.1,0-.2,0Z"/>
    <path class="st2" d="M92.2,44c-.1,0-.2,0-.3-.1l-.3-.3c-.2-.2-.2-.5,0-.7.2-.2.5-.2.7,0l.3.3c.2.2.2.5,0,.7,0,0-.2.1-.3.1Z"/>
    <path class="st2" d="M83.8,56.8c-.1,0-.2,0-.3-.1l-.3-.3c-.2-.2-.2-.5,0-.7.2-.2.5-.2.7,0l.3.3c.2.2.2.5,0,.7s-.2.1-.3.1Z"/>
    <path class="st2" d="M58.9,71.9c-.1,0-.2,0-.3-.1-.2-.2-.2-.5,0-.7l.3-.3c.2-.2.5-.2.7,0,.2.2.2.5,0,.7l-.3.3c0,0-.2.1-.3.1Z"/>
    <path class="st2" d="M95.7,47.8c-.1,0-.2,0-.3-.1-.2-.2-.2-.5,0-.7l.3-.3c.2-.2.5-.2.7,0,.2.2.2.5,0,.7l-.3.3c0,0-.2.1-.3.1Z"/>
    <path class="st2" d="M102.7,59.7c-.1,0-.2,0-.3-.1-.2-.2-.2-.5,0-.7l.3-.3c.2-.2.5-.2.7,0,.2.2.2.5,0,.7l-.3.3c0,0-.2.1-.3.1Z"/>
    <path class="st2" d="M57.3,72.1c-.1,0-.2,0-.3-.1-.2-.2-.2-.5,0-.7l.3-.3c.2-.2.5-.2.7,0s.2.5,0,.7l-.3.3c0,0-.2.1-.3.1Z"/>
    <path class="st2" d="M89.5,74.6c-.1,0-.2,0-.3-.1-.2-.2-.2-.5,0-.7l.3-.3c.2-.2.5-.2.7,0,.2.2.2.5,0,.7l-.3.3c0,0-.2.1-.3.1Z"/>
    <path class="st2" d="M87.9,76.2c-.1,0-.2,0-.3-.1l-.3-.3c-.2-.2-.2-.5,0-.7s.5-.2.7,0l.3.3c.2.2.2.5,0,.7,0,0-.2.1-.3.1Z"/>
    <path class="st2" d="M89.2,76.8c-.1,0-.2,0-.3-.1l-.3-.3c-.2-.2-.2-.5,0-.7s.5-.2.7,0l.3.3c.2.2.2.5,0,.7,0,0-.2.1-.3.1Z"/>
    <path class="st2" d="M77.3,78.1c-.1,0-.2,0-.3-.1l-.3-.3c-.2-.2-.2-.5,0-.7s.5-.2.7,0l.3.3c.2.2.2.5,0,.7s-.2.1-.3.1Z"/>
    <path class="st2" d="M67.8,53.5c-.1,0-.2,0-.3-.1l-.3-.3c-.2-.2-.2-.5,0-.7s.5-.2.7,0l.3.3c.2.2.2.5,0,.7s-.2.1-.3.1Z"/>
    <path class="st2" d="M86.5,40c-.1,0-.2,0-.3-.1l-.3-.3c-.2-.2-.2-.5,0-.7.2-.2.5-.2.7,0l.3.3c.2.2.2.5,0,.7,0,0-.2.1-.3.1Z"/>
    <path class="st2" d="M85.7,81.4c-.1,0-.2,0-.3-.1l-.3-.3c-.2-.2-.2-.5,0-.7s.5-.2.7,0l.3.3c.2.2.2.5,0,.7s-.2.1-.3.1Z"/>
    <path class="st2" d="M73.8,80c-.1,0-.2,0-.3-.1l-.3-.3c-.2-.2-.2-.5,0-.7s.5-.2.7,0l.3.3c.2.2.2.5,0,.7,0,0-.2.1-.3.1Z"/>
    <path class="st2" d="M69.9,69.9c-.2,0-.3,0-.4-.3-.1-.2,0-.5.2-.6.2,0,.4-.2.6-.2s.5.2.5.5-.2.5-.5.5c0,0-.1,0-.2,0,0,0-.1,0-.2,0Z"/>
    <path class="st2" d="M88.9,78.4c-.1,0-.2,0-.3-.1l-.3-.3c-.2-.2-.2-.5,0-.7s.5-.2.7,0l.3.3c.2.2.2.5,0,.7,0,0-.2.1-.3.1Z"/>
  </g>
</svg>