<?xml version="1.0" encoding="UTF-8"?>
<svg id="Layer_1" xmlns="http://www.w3.org/2000/svg" version="1.1" viewBox="0 0 120 120">
  <!-- Generator: Adobe Illustrator 29.8.1, SVG Export Plug-In . SVG Version: 2.1.1 Build 2)  -->
  <defs>
    <style>
      .st0 {
        fill: #fff;
      }

      .st1 {
        fill: #f4d1a8;
      }

      .st2 {
        fill: #caa170;
      }
    </style>
  </defs>
  <path class="st0" d="M78.2,93.9c.1.2.1.4.2.6,0,1.1-1.3,2-2.2,2.3-.4.1-.7.3-1.1.2-.6-.1-1.1-.7-1.3-1.3-.3-.9.3-1.7.4-1.8,0-.1-1.1-1.7-.4-3.1.2-.4.5-.7.8-.9-.7-.6-.9-1.2-.9-1.6-.1-1.2.9-1.8.6-3.1-.1-.8-.5-.8-.5-1.6s0-.5.3-1.8c.1-.5.3-1.1.6-1.8-.6-.4-.9-.8-1.1-1.1-.9-1.6-.4-3.8,1.3-5.7v-.8c-.5-.6-1.6-1.9-1.6-3.7,0-1.2.4-2.3.6-2.8.4-.9.6-1.1,1.3-2.3.6-1,.9-1.8,1.1-2.3,0-.6-.1-1.3-.2-2-.4-.8-.9-1.9-1.1-3.5-.2-1.6,0-2.8.3-4.3.4-1.9,1-3.3,1.3-4.2.1-.4.5-1.1,1.1-2.1.3-.6,1.3-2.4,3.2-4.6,1.2-1.4,3.1-3.3,5.7-5.2.6-.7,1.1-1.4,1.6-2.1.8-2.3,1.1-3.6,1.3-4.3,0-.2.3-1.3.7-2.8h0c0-.3,0-.5,0-.8,0-.2.1-.4.3-.9.1-.3.1-.5.2-.5.3-.5.8-.6,1.1-.7,1.3-.4,2.7-.1,3.2,0,.2.1.6.4.9,1,.4.9,0,1.8,0,1.8,1,.4,1.8.8,2.3,1,1.6.6,2.2.9,2.7,1.5.4.5.6,1.1.8,1.5v2.6c.3.6.7,1.4,1.4,2.3,1.1,1.5,1.9,1.7,2.3,2.6.4.8.4,2.1-.9,4.4.1.7.3,1.4.4,2.1.3,1.9,1,8.5-3.3,14.3s-3.1,3.3-4.4,4.1c-.6.6-1.2,1.2-1.8,1.8.1.7.6,2.8-.4,5-1.3,3.1-4.3,4.1-4.8,4.3,0,1-.3,1.8-.5,2.4-.4,1.3-.7,2.3-1.7,3.3-.7.6-1.4.9-1.8,1.1-.1.2-.4.4-.5.6,0,.3.6,2.1-.4,3.8-.9,1.6-2.3,2.1-2.7,2.2,0,.4,0,1-.2,1.7-.6,1.6-2.1,2.2-2.4,2.3,0,.3.1.6,0,1.1-.2,1.2-1.3,1.8-1.6,1.8h0Z"/>
  <g>
    <path class="st2" d="M97.1,63c-.1,0-.2,0-.3,0-.2-.2-.3-.5-.1-.7.2-.2.3-.5.6-.7,3-2,5-4.6,6.3-8.2,1-2.8,1.2-5.8.6-9.2,0-.3.1-.6.4-.6.3,0,.6.1.6.4.6,3.6.4,6.7-.7,9.7-1.3,3.7-3.6,6.6-6.7,8.7-.1,0-.2.2-.3.4-.1.2-.3.2-.4.2Z"/>
    <path class="st2" d="M77.4,45.6c0,0-.2,0-.2,0-.3-.1-.4-.4-.3-.7,1.5-3.1,3.7-5.7,6.9-8.2l2.1-1.7c.2-.2.6-.1.7,0,.2.2.1.6,0,.7l-2.1,1.7c-3,2.4-5.2,4.9-6.6,7.8,0,.2-.3.3-.5.3Z"/>
    <path class="st2" d="M75.9,59.7c-.2,0-.4,0-.5-.3-1.4-2.5-1.6-5.2-.8-8.3.2-.9.5-1.7.8-2.6.2-.5.3-1,.5-1.4,0-.3.4-.4.7-.3.3,0,.4.4.3.7-.2.5-.3,1-.5,1.5-.3.8-.6,1.6-.8,2.5-.7,2.9-.5,5.3.7,7.6.1.3,0,.6-.2.7,0,0-.2,0-.3,0Z"/>
    <path class="st2" d="M87.9,33.7s0,0-.1,0c-.3,0-.4-.4-.4-.7.3-1.1.7-2.3,1-3.4.3-1.1.7-2.2,1-3.3,0-.2.1-.5.1-.8,0-.2,0-.3,0-.5.3-1.8,1-2.3,2.7-2.5h1.7c.3,0,.5.2.5.5s-.2.5-.5.5h-1.6c-1.2.1-1.4.3-1.7,1.6,0,.1,0,.3,0,.4,0,.3,0,.7-.2,1-.3,1.1-.6,2.2-1,3.3-.3,1.1-.7,2.2-1,3.4,0,.2-.3.4-.5.4Z"/>
    <path class="st2" d="M86.1,80.9l-.9-.3c-.3,0-.5-.4-.4-.7,0-.3.4-.4.7-.4l.6.2c1.2-.4,2.1-1.3,2.6-2.6.3-.8.5-1.7.7-2.7,0-.3.1-.7.2-1.1v-.3c0,0,.4,0,.4,0,3.4-.9,5.8-5.2,4.8-8.6,0-.3,0-.6.4-.7.3,0,.6,0,.7.4,1.1,3.9-1.4,8.6-5.2,9.9,0,.2,0,.5-.1.7-.2,1-.4,2-.8,2.9-.7,1.6-1.8,2.7-3.5,3.2h-.1Z"/>
    <path class="st2" d="M104.4,42.4c0,0-.1,0-.2,0-.3-.1-.4-.4-.3-.7,0-.2.2-.4.3-.6.2-.5.4-1,.6-1.5.4-1.3,0-2.4-1-3.3-.1-.1-.3-.3-.4-.4-.4-.4-.8-.8-1.2-1.3-.4-.5-.7-1.1-.9-1.6v-.3c-.3-.3-.2-.6,0-.7.3-.1.6,0,.7.2v.3c.4.5.6,1,.9,1.4.3.4.7.8,1.1,1.1.1.1.3.3.4.4,1.3,1.2,1.8,2.7,1.3,4.4-.2.6-.4,1.1-.6,1.6,0,.2-.2.4-.3.6,0,.2-.3.3-.5.3Z"/>
    <path class="st2" d="M79.8,91.4l-2.6-.2c-.3,0-.5-.3-.5-.6,0-.3.3-.5.6-.5l2.4.2c1.6-.7,2.3-1.7,2.2-3.4v-.4s.4-.1.4-.1c2.5-.8,2.9-2.7,2.8-5.3-.1,0-.3,0-.7,0-.3,0-.6,0-.9,0-.3,0-.5-.3-.4-.6s.3-.5.6-.4c.2,0,.4,0,.6,0,.5,0,1.2,0,1.7.5h.1c0,.1,0,.3,0,.3.1,2.6-.2,5.3-3.2,6.4,0,1.9-1,3.3-3,4.1h-.1Z"/>
    <path class="st2" d="M75.2,97.6s0,0,0,0c-.7-.1-1.3-.5-1.6-1.2-.3-.7-.3-1.6,0-2.4-.8-2-.8-2.9.3-4.1,0,0,0-.1-.1-.2-.2-.3-.4-.7-.6-1.1v-.2c-.1,0,0-.2,0-.2.1-.6.3-1.2.5-1.8.2-.7.3-1.1,0-1.6-.7-1.2-.3-2.3,0-3.2,0-.3.2-.5.2-.8,0-.2,0-.5.1-.7,0-.1,0-.2,0-.4,0-.3.3-.5.6-.4.3,0,.5.3.4.6,0,.1,0,.3-.1.4,0,.2,0,.4,0,.5h0c0,.4-.2.8-.3,1.1-.3.9-.5,1.6-.1,2.4.5.9.3,1.7.1,2.5-.2.5-.3,1-.4,1.5.2.3.4.6.5.9.1.2.2.4.3.5l.2.4-.3.3c-1,.9-1.1,1.3-.2,3.5v.2c0,0,0,.2,0,.2-.3.5-.4,1.2-.1,1.6.1.2.3.5.8.6.3,0,.5.3.4.6,0,.3-.3.4-.5.4Z"/>
    <path class="st2" d="M101.5,30.5c-.2,0-.5-.2-.5-.4-.3-1.4-1.4-1.9-2.7-2.4-.2,0-.3-.1-.5-.2-.8-.3-1.7-.7-2.5-1-.5-.2-1.1-.4-1.6-.6-1.2-.5-1.8-1.4-1.9-2.9,0-.3.2-.5.5-.6.3,0,.5.2.6.5,0,1,.4,1.6,1.2,2,.5.2,1.1.4,1.6.6.9.3,1.7.7,2.5,1,.2,0,.3.1.5.2,1.3.6,2.9,1.2,3.3,3.2,0,.3-.1.6-.4.6,0,0,0,0-.1,0Z"/>
    <path class="st2" d="M74.8,72.8c-.1,0-.3,0-.4-.2-1.7-1.9-2.1-4.4-1.2-7,.3-1,1-2,1.5-3,.3-.4.5-.9.8-1.3,0-.2,0-.3.1-.4h0c.1-.3.5-.4.7-.3.3.1.4.5.2.7s0,0,0,.1h0c0,.1,0,.2,0,.2-.3.5-.6,1-.9,1.4-.6.9-1.1,1.8-1.4,2.7-.6,1.6-.9,3.9,1,5.9.2.2.2.6,0,.8-.1,0-.2.1-.4.1Z"/>
    <path class="st2" d="M74.1,80.4h-.2c-.7-.7-1.2-1.6-1.3-2.7-.2-1.7.5-3.5,1.7-5,.2-.2.5-.3.8,0,.2.2.3.5,0,.7-1,1.2-1.6,2.8-1.4,4.2,0,.5.2,1.2.7,1.6.4,0,.8-.1,1.2-.1s.5.2.5.5-.2.5-.5.5-.9,0-1.3.1h-.2Z"/>
    <path class="st2" d="M76.3,97.4c-.2,0-.3,0-.4-.2-.2-.2-.1-.6.1-.7.2-.1.4-.3.6-.4.3-.2.6-.3.8-.5.6-.6.7-.9.4-1.3-.1-.3,0-.6.2-.7.3-.1.6,0,.7.2.8,1.3-.2,2.3-.6,2.6-.3.3-.7.5-1,.7-.2.1-.4.2-.5.3,0,0-.2,0-.3,0Z"/>
    <path class="st2" d="M95.6,26.6s0,0,0,0c-.3,0-.5-.3-.5-.6v-.3c.2-1.1.2-1.6-.6-2.1-.3-.1-.3-.5-.2-.7.1-.3.5-.3.7-.2,1.5.8,1.3,2.1,1.2,3.1v.3c0,.3-.3.5-.6.5Z"/>
    <path class="st2" d="M77.6,94.3s0,0-.1,0c-.3,0-.5-.3-.5-.6,0-.3.3-.5.6-.5.5,0,.9-.2,1.2-.5.4-.4.6-1.1.5-1.8,0-.3.2-.6.5-.6.3,0,.6.2.6.5.1,1-.2,2-.8,2.7-.5.5-1.2.8-1.9.8Z"/>
    <path class="st2" d="M79.2,59s0,0-.1,0l-.9-.2v-.4c-.1-.7-.1-1.4-.1-2.1s.2-.5.5-.5.5.2.5.5c0,.6,0,1.1,0,1.6h.2c.3.1.5.4.4.7,0,.2-.3.4-.5.4Z"/>
    <path class="st2" d="M95.6,62.6c0,0-.1,0-.2,0-.3-.1-.7-.3-1.1-.4-.4-.1-.8-.3-1.1-.4-.3-.1-.4-.4-.3-.7.1-.3.4-.4.7-.3.4.1.7.3,1.1.4.4.1.7.3,1.1.4.3.1.4.4.3.7,0,.2-.3.3-.5.3Z"/>
    <path class="st2" d="M95.4,63.3s0,0-.1,0l-2.3-.6c-.3,0-.4-.4-.4-.7,0-.3.4-.4.7-.4l2.3.6c.3,0,.4.4.4.7,0,.2-.3.4-.5.4Z"/>
    <path class="st2" d="M102.9,43c0,0-.2,0-.3,0-.3-.1-.3-.5-.2-.7.1-.2.3-.5.4-.8.1-.3.3-.5.4-.8.1-.3.5-.3.7-.2.3.1.3.5.2.7-.1.2-.3.5-.4.8-.1.3-.3.5-.4.8,0,.2-.3.3-.5.3Z"/>
    <path class="st2" d="M78,72h-1.8c-.3,0-.5-.2-.5-.5s.2-.5.5-.5h1.8c.3,0,.5.2.5.5s-.2.5-.5.5Z"/>
    <path class="st2" d="M74.5,71c-.2,0-.5-.2-.5-.4,0-.3.1-.6.4-.6.3,0,.6-.2.9-.2.3,0,.6-.2.9-.3.3,0,.6.1.6.4,0,.3-.1.6-.4.6-.3,0-.6.2-.9.2-.3,0-.6.2-.9.3,0,0,0,0-.1,0Z"/>
    <path class="st2" d="M75.5,71.5c-.3,0-.5-.2-.5-.5,0-.3.2-.6.5-.6.3,0,.5,0,.8-.1.3,0,.6-.1.9-.1.3,0,.6.2.6.5s-.2.6-.5.6c-.3,0-.5,0-.8.1-.3,0-.6.1-.9.1,0,0,0,0,0,0Z"/>
    <path class="st2" d="M91.2,72.6s0,0-.1,0l-1.3-.4c-.3,0-.4-.4-.4-.7,0-.3.4-.4.7-.4l1.3.4c.3,0,.4.4.4.7,0,.2-.3.4-.5.4Z"/>
    <path class="st2" d="M77.3,60.2c-.3,0-.5-.2-.5-.5s.2-.5.5-.5.4,0,.7,0c.3,0,.5,0,.8,0s.5.2.5.5-.2.5-.5.5-.4,0-.7,0c-.3,0-.5,0-.8,0Z"/>
    <path class="st2" d="M76.8,58.3c-.3,0-.5-.2-.5-.5s.2-.5.5-.5.9,0,1.3-.1c.3,0,.6.1.6.4s-.1.6-.4.6c-.4,0-1,.1-1.4.1Z"/>
    <path class="st2" d="M82.8,85.2c0,0-.2,0-.3,0-.3-.2-.3-.5-.2-.7,0-.1.2-.3.3-.4.1-.2.3-.4.4-.7s.5-.4.7-.2c.3.1.4.5.2.7s-.3.6-.5.8c0,.1-.2.3-.2.4s-.3.3-.5.3Z"/>
    <path class="st2" d="M89.1,74.4s0,0,0,0h-.2c-.3,0-.6-.1-1-.1s-.5-.2-.5-.5.2-.5.5-.5.8,0,1.1.1h.2c.3,0,.5.3.4.6,0,.3-.3.4-.5.4Z"/>
    <path class="st2" d="M84.8,82.5h-1.2c-.3,0-.5-.2-.5-.5s.2-.5.5-.5h1.2c.3,0,.5.2.5.5s-.2.5-.5.5Z"/>
    <path class="st2" d="M100.5,34.4c-.3,0-.5-.2-.5-.5v-1.2c0-.3.2-.5.5-.5s.5.2.5.5v1.2c0,.3-.2.5-.5.5Z"/>
    <path class="st2" d="M74.3,70.1c-.2,0-.5-.2-.5-.4,0-.3.1-.6.4-.6.2,0,.3,0,.5-.1.2,0,.4-.1.6-.2.3,0,.6.1.6.4s-.1.6-.4.6c-.2,0-.3,0-.5.1-.2,0-.4.1-.6.2,0,0,0,0-.1,0Z"/>
    <path class="st2" d="M77.5,57.4s0,0-.1,0c-.3,0-.5,0-.9,0s-.5-.2-.5-.5.2-.5.5-.5.7,0,1.1,0c.3,0,.5.3.4.6,0,.3-.3.4-.5.4Z"/>
    <path class="st2" d="M91.8,26.9c-.1,0-.3,0-.4-.2-.2-.2-.2-.5,0-.8l.7-.7c.2-.2.5-.2.8,0,.2.2.2.5,0,.8l-.7.7c-.1.1-.2.2-.4.2Z"/>
    <path class="st2" d="M74.3,69c-.3,0-.5-.2-.5-.5s.2-.5.5-.5.5,0,.7-.1l.3,1c-.3,0-.6.2-1,.2Z"/>
    <path class="st2" d="M102.1,42.6c0,0-.2,0-.3,0-.2-.2-.3-.5-.2-.7h0c.1-.2.3-.4.4-.7.1-.3.4-.4.7-.2.3.1.4.5.2.7-.2.3-.3.5-.4.8-.1.2-.3.2-.5.2Z"/>
    <path class="st2" d="M92,72.2s0,0-.1,0l-.8-.2c-.3,0-.5-.4-.4-.7,0-.3.4-.4.7-.4l.8.2c.3,0,.5.4.4.7,0,.2-.3.4-.5.4Z"/>
    <path class="st2" d="M75.8,85.7h-.8c-.3,0-.5-.2-.5-.5s.2-.5.5-.5h.8c.3,0,.5.2.5.5s-.2.5-.5.5Z"/>
    <path class="st2" d="M80.4,90.1h-.6c-.3,0-.5-.2-.5-.5s.2-.5.5-.5h.6c.3,0,.5.2.5.5s-.2.5-.5.5Z"/>
    <path class="st2" d="M80.2,59.9h-.6c-.3,0-.5-.2-.5-.5s.2-.5.5-.5h.6c.3,0,.5.2.5.5s-.2.5-.5.5Z"/>
    <path class="st2" d="M86.3,80.2c0,0-.2,0-.2,0l-.4-.2c-.3-.1-.4-.5-.2-.7s.5-.4.7-.2l.4.2c.3.1.4.5.2.7,0,.2-.3.3-.5.3Z"/>
    <path class="st2" d="M88.7,75h-.4c-.3,0-.5-.2-.5-.5s.2-.5.5-.5h.4c.3,0,.5.2.5.5s-.2.5-.5.5Z"/>
    <path class="st2" d="M80.6,89.6c-.3,0-.5-.2-.5-.5s.2-.5.5-.5.2,0,.2,0c.3-.1.6,0,.7.2.1.3,0,.6-.2.7-.3.1-.5.1-.7.1Z"/>
    <g>
      <path class="st1" d="M101.2,54.5c0,0-.2,0-.2,0-.3-.1-.4-.5-.2-.7,1.1-2.1,1.5-4.3,1.2-6.6,0-.3.2-.6.5-.6.3,0,.6.2.6.5.4,2.5,0,4.9-1.3,7.3,0,.2-.3.3-.5.3Z"/>
      <path class="st1" d="M76.7,53.9s0,0,0,0c-.3,0-.5-.3-.5-.6,0-.4,0-.9.1-1.4,0-.9.1-1.9.3-2.8.3-1.1.7-2,1.2-3,.2-.3.3-.7.5-1,.1-.3.4-.4.7-.3.3.1.4.4.3.7-.2.3-.3.7-.5,1-.4.9-.9,1.8-1.1,2.8-.2.8-.2,1.8-.3,2.6,0,.5,0,.9-.1,1.4,0,.3-.3.5-.5.5Z"/>
      <path class="st1" d="M89.8,62.6s0,0-.1,0c-.3,0-.5-.1-.8-.2-.6-.2-1.2-.3-1.8-.4-.5,0-1,0-1.5,0-.4,0-.7,0-1.1,0s-.5-.2-.5-.5.2-.5.5-.5.7,0,1.1,0c.5,0,1.1,0,1.7,0,.7,0,1.4.2,2,.4.2,0,.5.1.7.2.3,0,.5.4.4.6,0,.2-.3.4-.5.4Z"/>
      <path class="st1" d="M90,69.8c0,0-.1,0-.2,0-.3,0-.4-.4-.4-.7.2-.7.4-1.4.7-2.1.2-.7.5-1.4.7-2.1,0-.3.4-.4.7-.4.3,0,.4.4.4.7-.2.7-.4,1.4-.7,2.1-.2.7-.5,1.4-.7,2.1,0,.2-.3.4-.5.4Z"/>
      <path class="st1" d="M94.4,33.8c-.2,0-.4-.1-.5-.4-.1-.3,0-.6.3-.7.8-.3,1.6-.6,2.3-.9.8-.3,1.6-.6,2.4-.9.3,0,.6,0,.7.3s0,.6-.3.7c-.8.3-1.6.6-2.3.9-.8.3-1.6.6-2.4.9,0,0-.1,0-.2,0Z"/>
      <path class="st1" d="M85.3,79c0,0-.2,0-.3,0-.2-.2-.3-.5-.2-.7.7-1.1,1.1-2.2,1.1-3.4,0-.3.3-.5.6-.5.3,0,.5.3.5.6,0,1.4-.5,2.7-1.3,3.9-.1.2-.3.3-.5.3Z"/>
      <path class="st1" d="M82.5,87.3s0,0-.1,0c-.1,0-.2,0-.3,0-.2,0-.3,0-.4,0h0c-.5,0-.9-.1-1.4-.2-.5,0-1-.1-1.4-.2-.3,0-.5-.3-.4-.6s.3-.5.6-.4c.5,0,.9.1,1.4.2.5,0,.9.1,1.4.2.3,0,.5,0,.7.2,0,0,.2,0,.2,0,.3,0,.5.4.4.6,0,.2-.3.4-.5.4Z"/>
      <path class="st1" d="M77.5,60.9c-.3,0-.5-.2-.5-.5s.2-.5.5-.5c1,0,2,0,3-.1.3,0,.5.2.6.5,0,.3-.2.5-.5.6-1.1,0-2.1.1-3.1.1Z"/>
      <path class="st1" d="M79,66.8c0,0-.1,0-.2,0-.3,0-.4-.4-.3-.7l.9-2.6c0-.3.4-.4.7-.3.3,0,.4.4.3.7l-.9,2.6c0,.2-.3.4-.5.4Z"/>
      <path class="st1" d="M82.4,81.8c-.3,0-.5-.2-.5-.5s.2-.5.5-.5c.8,0,1.6,0,2.4,0,.3,0,.6.2.6.5,0,.3-.2.6-.5.6-.9,0-1.7,0-2.5,0Z"/>
      <path class="st1" d="M94,30.4c-.2,0-.4-.1-.5-.3-.1-.3,0-.6.2-.7l2.9-1.6c.3-.1.6,0,.7.2.1.3,0,.6-.2.7l-2.9,1.6c0,0-.2,0-.3,0Z"/>
      <path class="st1" d="M94.9,64.2c0,0-.1,0-.2,0-.3-.1-.6-.3-1-.4-.3-.1-.7-.3-1-.4-.3-.1-.4-.4-.3-.7.1-.3.4-.4.7-.3.3.1.6.3,1,.4.4.1.7.3,1,.4.3.1.4.4.3.7,0,.2-.3.3-.5.3Z"/>
      <path class="st1" d="M89.9,74c-.1,0-.2,0-.3-.1,0,0-.1,0-.2-.1-.2-.1-.4-.3-.5-.3-.8-.1-1.6-.3-2.5-.4l.2-1.1v.5c0,0,0-.5,0-.5.8.1,1.7.3,2.5.4.4,0,.7.3,1,.5h.2c.2.3.3.6.1.9-.1.1-.3.2-.4.2Z"/>
      <path class="st1" d="M92,28.7l-.6-.9c.8-.5,1.6-1,2.4-1.4.3-.1.6,0,.7.2.1.3,0,.6-.2.7-.8.4-1.5.9-2.3,1.4ZM91.7,28.3h0,0Z"/>
      <path class="st1" d="M82.6,72.5h-1.6c-.3,0-.5-.2-.5-.5s.2-.5.5-.5h1.6c.3,0,.5.2.5.5s-.2.5-.5.5Z"/>
      <path class="st1" d="M90.7,37c-.2,0-.4-.1-.5-.4,0-.3,0-.6.3-.7s.4-.1.6-.2c.2,0,.4-.1.6-.2.3,0,.6,0,.7.3,0,.3,0,.6-.3.7-.2,0-.4.1-.6.2-.2,0-.4.1-.6.2s-.1,0-.2,0Z"/>
      <path class="st1" d="M79,92.3c-.3,0-.5-.2-.5-.5s0-.5.3-.7c.3-.2.6-.1.8,0,0,0,0,0,0,0,.2,0,.4,0,.6,0,.2.2.3.5.1.7-.2.3-.6.3-.8.3,0,.1-.2.2-.4.2Z"/>
      <path class="st1" d="M75.8,73.5c-.3,0-.5-.2-.5-.4,0-.3.1-.6.4-.6h.9c.3-.2.6,0,.6.3,0,.3-.1.6-.4.6h-.9c0,.1,0,.1,0,.1Z"/>
      <path class="st1" d="M76.5,56.6c0,0-.1,0-.2,0-.3,0-.4-.4-.3-.7,0-.1.1-.3.2-.4,0,0,0-.1,0-.2v-1c0-.3.2-.5.5-.5s.5.2.5.5v1.3c0,.1-.1.3-.2.4,0,0,0,.2-.1.2,0,.2-.3.4-.5.4Z"/>
      <path class="st1" d="M88.5,64.9s0,0-.1,0c-.3,0-.5-.4-.4-.7l.2-.8c0-.3.4-.5.7-.4.3,0,.5.4.4.7l-.2.8c0,.2-.3.4-.5.4Z"/>
    </g>
    <path class="st2" d="M74.7,88.2c-.2,0-.4-.1-.5-.4,0,0,0,0,0,0-.2-.2-.2-.5,0-.8.2-.2.5-.2.8,0,.1.1.3.3.3.6s-.2.5-.5.5ZM74.2,87.7h0s0,0,0,0Z"/>
    <path class="st2" d="M74.9,87.5c-.2,0-.4-.1-.5-.4,0,0,0,0,0,0-.2-.2-.2-.5,0-.8.2-.2.5-.2.8,0,.1.1.3.3.3.6s-.2.5-.5.5ZM74.4,87h0s0,0,0,0Z"/>
    <path class="st2" d="M75.2,72.2c-.3,0-.5-.2-.5-.5s.1-.4.4-.5c.2-.2.5-.2.7,0,.2.2.2.5,0,.7-.1.1-.3.3-.6.3ZM75.2,71.1h0,0Z"/>
    <path class="st2" d="M74.8,83c-.2,0-.4-.1-.5-.4-.2-.2-.2-.5,0-.7.2-.2.5-.2.7,0,.1.1.3.3.3.6s-.2.5-.5.5ZM74.3,82.4h0s0,0,0,0Z"/>
    <path class="st2" d="M76.5,81.3c-.3,0-.5-.2-.5-.5s.1-.4.4-.5c0,0,0,0,0,0,.2-.2.5-.2.8,0s.2.5,0,.8c-.1.1-.3.3-.6.3ZM76.5,80.2h0,0Z"/>
    <path class="st2" d="M77.7,53.2c-.2,0-.4-.1-.5-.4,0,0,0,0,0,0-.2-.2-.2-.5,0-.8s.5-.2.8,0c.1.1.3.3.3.6s-.2.5-.5.5ZM77.1,52.7h0s0,0,0,0Z"/>
    <path class="st2" d="M75.3,65.9c-.3,0-.5-.2-.5-.5s.1-.4.4-.5c.2-.2.5-.2.7,0,.2.2.2.5,0,.7-.1.1-.3.3-.6.3ZM75.3,64.9h0,0Z"/>
    <path class="st2" d="M94.1,64.8c-.3,0-.5-.2-.5-.5s.1-.4.4-.5c0,0,0,0,0,0,.2-.2.5-.2.8,0s.2.5,0,.8-.3.3-.6.3ZM94.1,63.7h0,0Z"/>
    <path class="st2" d="M100.5,42.7c-.2,0-.3,0-.4-.2-.2-.2,0-.6.1-.7h.2c.2-.3.6-.2.7,0,.2.2,0,.6-.1.7h-.2c0,.2-.2.2-.3.2Z"/>
    <path class="st2" d="M75.6,64.4c-.2,0-.4-.1-.5-.4-.2-.2-.2-.5,0-.7.2-.2.5-.2.7,0,.1.1.3.3.3.6s-.2.5-.5.5ZM75.1,63.8h0s0,0,0,0Z"/>
    <path class="st2" d="M75.7,66.8c-.2,0-.4-.1-.5-.4-.2-.2-.2-.5,0-.7.2-.2.5-.2.7,0,.1.1.3.3.3.6s-.2.5-.5.5ZM75.2,66.3h0s0,0,0,0Z"/>
    <path class="st2" d="M74.7,91.7c-.2,0-.4-.1-.5-.4-.2-.2-.2-.5,0-.7.2-.2.5-.2.7,0,.1.1.3.3.3.6s-.2.5-.5.5ZM74.2,91.2h0s0,0,0,0Z"/>
    <path class="st2" d="M97.1,36.3c-.2,0-.3,0-.4-.2v-.2c-.3-.2-.2-.6,0-.7.2-.2.6,0,.7.1v.2c.3.2.2.6,0,.7,0,0-.2,0-.3,0Z"/>
    <path class="st2" d="M79.4,91.1c-.3,0-.5-.2-.5-.5v-.3c0-.3.2-.5.5-.5s.5.2.5.5v.3c0,.3-.2.5-.5.5Z"/>
    <path class="st2" d="M79.9,90.8c-.3,0-.5-.2-.5-.5v-.3c0-.3.2-.5.5-.5s.5.2.5.5v.3c0,.3-.2.5-.5.5Z"/>
  </g>
</svg>