<svg width="128" height="129" viewBox="0 0 128 129" fill="none" xmlns="http://www.w3.org/2000/svg">
<path d="M2.7318 63.7286C2.7288 74.5671 5.5608 85.1501 10.9458 94.4781L2.2168 126.349L34.8328 117.797C43.854 122.708 53.9615 125.281 64.2328 125.282H64.2598C98.1673 125.282 125.769 97.6906 125.783 63.7771C125.79 47.3436 119.396 31.8906 107.779 20.2646C96.1638 8.63956 80.7163 2.23406 64.2573 2.22656C30.3458 2.22656 2.7463 29.8166 2.7323 63.7286" fill="url(#paint0_linear_2284_17)"/>
<path d="M0.535 63.708C0.5315 74.9365 3.465 85.898 9.042 95.56L0 128.574L33.7855 119.715C43.0945 124.79 53.5755 127.466 64.2405 127.47H64.268C99.392 127.47 127.985 98.8865 128 63.759C128.006 46.735 121.382 30.7265 109.35 18.684C97.3165 6.643 81.3165 0.007 64.268 0C29.138 0 0.549 28.58 0.535 63.708ZM20.6555 93.896L19.394 91.8935C14.091 83.4615 11.292 73.7175 11.296 63.712C11.307 34.5145 35.069 10.76 64.288 10.76C78.438 10.766 91.736 16.282 101.738 26.29C111.739 36.299 117.243 49.604 117.24 63.755C117.227 92.9525 93.464 116.71 64.268 116.71H64.247C54.7405 116.705 45.417 114.152 37.286 109.327L35.351 108.18L15.302 113.437L20.6555 93.896Z" fill="url(#paint1_linear_2284_17)"/>
<path d="M48.3398 37.0737C47.1468 34.4222 45.8913 34.3687 44.7568 34.3222C43.8278 34.2822 42.7658 34.2852 41.7048 34.2852C40.6428 34.2852 38.9173 34.6847 37.4588 36.2772C35.9988 37.8712 31.8848 41.7232 31.8848 49.5577C31.8848 57.3922 37.5913 64.9642 38.3868 66.0277C39.1833 67.0892 49.4033 83.6812 65.5893 90.0642C79.0413 95.3687 81.7788 94.3137 84.6983 94.0477C87.6183 93.7827 94.1203 90.1967 95.4468 86.4782C96.7743 82.7602 96.7743 79.5732 96.3763 78.9072C95.9783 78.2437 94.9163 77.8452 93.3238 77.0492C91.7313 76.2532 83.9018 72.4002 82.4423 71.8687C80.9823 71.3377 79.9208 71.0727 78.8588 72.6672C77.7968 74.2592 74.7473 77.8452 73.8178 78.9072C72.8893 79.9717 71.9598 80.1042 70.3678 79.3077C68.7743 78.5087 63.6458 76.8292 57.5613 71.4047C52.8273 67.1837 49.6313 61.9712 48.7023 60.3767C47.7733 58.7847 48.6028 57.9217 49.4013 57.1282C50.1168 56.4147 50.9943 55.2687 51.7913 54.3392C52.5853 53.4092 52.8503 52.7457 53.3813 51.6837C53.9128 50.6207 53.6468 49.6907 53.2493 48.8942C52.8503 48.0977 49.7558 40.2222 48.3398 37.0737Z" fill="white"/>
<defs>
<linearGradient id="paint0_linear_2284_17" x1="6180.54" y1="12414.5" x2="6180.54" y2="2.22656" gradientUnits="userSpaceOnUse">
<stop stop-color="#1FAF38"/>
<stop offset="1" stop-color="#60D669"/>
</linearGradient>
<linearGradient id="paint1_linear_2284_17" x1="6400" y1="12857.4" x2="6400" y2="0" gradientUnits="userSpaceOnUse">
<stop stop-color="#F9F9F9"/>
<stop offset="1" stop-color="white"/>
</linearGradient>
</defs>
</svg>
